<svg 
  width="408"
  height="299"
  viewBox="0 0 408 299"
  fill="none"
  xmlns="http://www.w3.org/2000/svg"
>
<path opacity="0.25" fill-rule="evenodd" clip-rule="evenodd" d="M282.805 3.9143C326.343 -5.83126 366.679 5.73185 388.359 38.7602C410.039 71.7878 404.368 124.197 399.671 147.331C394.975 170.465 383.062 191.653 368.276 210.049C340.813 244.215 303.7 270.361 262.211 284.475C220.721 298.588 175.675 301.483 132.438 294.343C108.184 290.337 32.3152 270.715 15.9378 211.501C-0.439572 152.287 -10.8044 101.678 24.6611 81.1198C60.1263 60.5613 84.6923 76.024 102.249 83.6275C184.274 119.151 239.267 13.6605 282.805 3.9143Z" fill="#4E157A"/>
<path fill-rule="evenodd" clip-rule="evenodd" d="M344.113 59.378C351.097 58.8383 358.625 59.1871 364.317 63.2708C370.008 67.3546 372.594 76.3223 367.92 81.5401C373.204 79.4743 379.413 82.9778 382.06 87.996C384.707 93.0135 384.568 99.0254 383.772 104.643C381.8 118.553 376.13 131.922 367.499 143.008C367.102 144.176 366.705 145.345 366.309 146.514C376.51 149.144 416.347 164.615 405.583 202.753C394.819 240.892 347.813 255.408 343.001 259.973C334.614 267.93 321.814 268.473 310.259 268.106C281.85 267.205 253.528 263.595 225.802 257.34C223.444 256.808 220.458 256.485 219.1 258.483C209.264 272.944 188.696 274.236 171.254 272.977C148.847 271.361 126.57 267.963 104.701 262.826C92.2967 259.912 79.1238 255.855 71.3962 245.724C62.3874 233.912 63.4277 217.536 64.8897 202.753C58.9682 206.046 49.147 207.829 35.427 208.103C27.3486 206.455 22.3098 203.527 20.31 199.318C11.1653 180.07 8.02949 155.268 19.4171 136.297C20.7851 134.018 22.3635 131.772 24.5912 130.322C26.9525 128.784 29.8313 128.279 32.6386 128.03C43.7099 127.05 55.0693 129.634 64.6266 135.308C64.5416 104.244 64.4559 73.1803 64.3709 42.1166C64.3662 40.3376 64.3905 38.4498 65.339 36.9447C66.7106 34.7682 69.5206 34.0935 72.05 33.6212C95.0581 29.3263 118.327 26.4293 141.685 24.9524C149.318 24.4701 159.762 26.5939 159.797 34.2413C159.93 63.5279 160.063 92.8145 160.197 122.101C160.228 129.072 160.676 128.489 163.942 126.469C161.889 126.682 162.347 123.2 163.902 121.843C169.711 116.781 178.174 116.594 185.878 116.673C203.112 116.849 220.345 117.026 237.579 117.202C254.276 117.373 274.301 119.491 281.86 134.38C281.641 129.955 285.651 125.779 290.082 125.82C294.913 125.864 298.954 121.673 300.365 117.051C301.775 112.43 301.153 107.464 300.518 102.674C292.727 95.1306 290.688 82.3072 295.754 72.7188C300.82 63.1305 312.563 57.5881 323.184 59.7727C330.046 61.1834 337.129 59.917 344.113 59.378ZM144.144 203.036C143.915 209.203 143.672 215.451 141.857 221.349L144.144 203.036ZM137.004 127.363C138.608 127.833 140.593 129.255 139.751 130.698C146.719 131.395 144.638 131.072 144.951 122.861C145.27 114.529 145.296 105.317 139.841 99.0106C135.015 93.4304 127.143 91.6851 119.791 91.0576C111.212 90.325 102.539 90.6771 94.0461 92.1027C89.9023 92.7983 85.4138 93.9965 83.0092 97.442C81.6633 99.3709 81.1681 101.752 80.7727 104.071C79.2176 113.189 78.7319 122.489 79.3289 131.72C97.1928 123.409 118.094 121.83 137.004 127.363ZM292.037 188.579C292.474 188.138 293.136 188.031 293.75 187.947C296.205 187.609 298.66 187.271 301.115 186.933C295.481 184.389 292.066 178.344 291.046 172.247C290.026 166.15 291.022 159.916 292.028 153.816C288.424 157.827 288.684 163.878 289.156 169.249C290.189 181.005 291.601 189.021 292.037 188.579ZM245.686 246.485C246.169 244.914 247.812 244.071 249.016 242.952C251.182 240.939 251.986 237.895 252.693 235.023C255.135 225.1 257.592 215.055 257.561 204.835C257.555 202.67 257.445 200.446 258.161 198.403C258.879 196.36 260.675 194.512 262.84 194.502C265.123 194.491 265.669 191.324 265.464 189.05C264.76 181.21 264.057 173.369 263.353 165.529C263.128 163.024 262.899 160.497 262.139 158.1C259.329 149.24 248.502 143.881 239.753 147.023C238.682 147.408 238.396 148.761 238.274 149.892C236.928 162.433 235.581 174.975 234.234 187.516C233.995 189.744 236.872 191.166 239.044 190.614C241.217 190.062 242.875 188.365 244.752 187.142C246.631 185.92 249.278 185.216 251.003 186.647C252.952 188.265 255.837 186.468 257.53 184.584C259.223 182.7 261.428 180.429 263.836 181.215C261.011 183.917 258.187 186.619 255.362 189.32C254.426 190.217 253.599 192.006 254.783 192.535C258.029 191.384 260.963 189.367 263.199 186.749C264.233 186.716 264.282 188.34 263.705 189.199C261.531 192.435 256.413 193.156 255.094 196.825C252.019 205.39 242.426 211.079 233.436 209.67C231.591 209.381 230.672 211.807 230.45 213.661C229.565 221.051 228.68 228.441 227.795 235.832C227.592 237.532 227.401 239.33 228.101 240.892C229.27 243.5 232.393 244.486 235.163 245.188C238.824 246.116 242.527 247.047 246.268 247.453C247.844 247.623 247.838 247.046 245.686 246.485ZM99.8401 232.935C105.071 234.687 110.607 235.28 116.093 235.863C118.419 236.11 120.896 236.332 122.983 235.274C125.44 234.03 126.749 231.334 127.805 228.791C133.697 214.609 137.061 199.383 137.691 184.039C137.781 181.859 134.99 180.896 132.812 180.75C115.432 179.583 98.8093 187.224 83.0679 194.685C82.3137 195.043 81.5061 195.451 81.1337 196.198C80.8557 196.755 80.8699 197.407 80.8908 198.029C81.1728 206.505 81.5283 215.285 85.3193 222.873C86.3434 224.922 87.6455 226.893 89.4894 228.252C90.606 229.076 91.8845 229.647 93.1522 230.211C95.3516 231.191 97.5564 232.17 99.8401 232.935ZM212.278 201.563C214.595 189.104 216.228 176.518 217.167 163.88C217.488 159.556 217.723 155.161 216.788 150.928C215.854 146.694 213.599 142.579 209.913 140.297C207.641 138.891 204.982 138.26 202.352 137.791C197.553 136.935 192.67 136.546 187.796 136.633C183.495 136.709 178.98 137.233 175.469 139.719C174.308 140.54 173.253 141.616 172.829 142.975C172.405 144.332 172.762 146 173.94 146.798C176.917 148.814 178.13 152.587 178.688 156.139C179.246 159.69 179.381 163.41 180.999 166.62C181.834 168.276 183.031 169.72 184.286 171.085C191.092 178.485 199.969 183.959 209.636 186.718C211.336 187.203 213.498 188.253 213.139 189.983C218.485 193.356 212.189 202.042 212.278 201.563ZM197.543 238.312C199.511 237.116 200.847 235.125 202.022 233.144C207.007 224.737 210.276 215.318 211.57 205.631C193.638 205.55 175.812 198.784 162.341 186.945C161.88 188.796 161.969 190.732 162.032 192.638C162.425 204.536 161.719 216.47 159.925 228.238C159.498 231.044 161.174 233.849 163.478 235.506C165.782 237.162 168.62 237.874 171.407 238.411C177.689 239.621 184.108 240.117 190.501 239.886C192.932 239.799 195.464 239.575 197.543 238.312ZM310.705 135.685C309.659 133.166 308.875 130.325 306.706 128.672C304.537 127.017 300.454 127.827 300.327 130.551C302.473 130.156 304.114 132.805 303.748 134.957C303.382 137.108 301.818 138.819 300.575 140.613C298.858 143.091 297.684 145.898 296.522 148.68C293.758 155.301 292.682 162.618 293.424 169.754C293.86 173.955 295.012 178.271 297.853 181.397C300.693 184.523 305.563 186.086 309.306 184.129C312.521 182.449 314.125 178.744 314.862 175.192C315.6 171.64 315.731 167.922 317.124 164.572C319.694 158.392 326.031 154.659 332.3 152.315C322.876 151.035 314.35 144.469 310.705 135.685ZM284.645 142.369C285.064 143.989 285.644 145.567 286.374 147.073C286.813 144.951 287.516 142.885 288.463 140.936C287.505 140.827 286.54 140.775 285.576 140.781C285.341 140.782 285.093 140.791 284.896 140.916C284.451 141.199 284.513 141.859 284.645 142.369ZM171.053 140.702C170.46 141.179 170.112 142.207 170.738 142.641C171.698 141.68 172.657 140.719 173.616 139.759C173.418 139.513 173.13 139.342 172.819 139.285C172.438 139.945 171.647 140.225 171.053 140.702Z" fill="#F0F0F0"/>
<path d="M337.175 133.82C339.225 133.82 340.886 132.159 340.886 130.109C340.886 128.06 339.225 126.399 337.175 126.399C335.125 126.399 333.464 128.06 333.464 130.109C333.464 132.159 335.125 133.82 337.175 133.82Z" fill="#D39CFF"/>
<path d="M315.923 130.109C317.041 130.109 317.947 129.203 317.947 128.085C317.947 126.967 317.041 126.061 315.923 126.061C314.805 126.061 313.899 126.967 313.899 128.085C313.899 129.203 314.805 130.109 315.923 130.109Z" fill="#D39CFF"/>
<path fill-rule="evenodd" clip-rule="evenodd" d="M124.268 76.8633C130.34 76.9018 136.411 76.9403 142.483 76.9787C142.768 76.9807 143.073 76.9888 143.302 77.1568C143.771 77.5009 143.584 78.3065 143.101 78.6303C142.62 78.9541 141.994 78.9407 141.413 78.9204C136.07 78.7349 130.71 79.0128 125.415 79.7489C124.609 79.8609 123.76 79.9783 123.006 79.6727C122.253 79.3664 121.677 78.4643 122.024 77.7289C122.386 76.9605 123.418 76.858 124.268 76.8633ZM103.963 76.2669C104.348 76.6502 104.164 77.3545 103.736 77.6898C103.309 78.0251 102.736 78.0919 102.196 78.1466C96.8123 78.6917 91.4292 79.2368 86.0467 79.782C85.4098 79.8467 84.7513 79.9088 84.1428 79.7125C83.5335 79.5168 82.9823 78.9899 82.9682 78.3503C82.9533 77.6905 83.5133 77.1298 84.1394 76.9194C84.7648 76.7089 85.4442 76.7675 86.1027 76.8195C91.6181 77.2533 97.1875 77.003 102.641 76.0767C103.099 75.9984 103.635 75.9397 103.963 76.2669ZM103.209 65.9338C103.611 66.2583 103.468 66.9538 103.064 67.277C102.661 67.6002 102.112 67.6535 101.596 67.694L84.3087 69.0581C83.6617 69.1087 82.9911 69.1573 82.3812 68.9367C81.7707 68.7154 81.235 68.1467 81.27 67.4983C81.3058 66.8419 81.9123 66.3325 82.5512 66.1773C83.1901 66.0221 83.8594 66.1382 84.5098 66.2347C90.3774 67.1016 96.3434 66.3109 102.25 65.7739C102.581 65.7435 102.95 65.7246 103.209 65.9338ZM127.352 62.5085C130.959 62.9693 134.616 63.0394 138.238 62.7176C139.679 62.5894 141.419 62.5294 142.237 63.7208C141.266 64.5062 139.932 64.6175 138.686 64.6964C134.555 64.9562 130.424 65.2166 126.294 65.477C125.351 65.5364 124.177 65.4649 123.789 64.6047C123.441 63.8322 124.053 62.9032 124.841 62.5908C125.628 62.2777 126.512 62.4012 127.352 62.5085ZM96.1903 58.0928C96.1944 58.7162 95.4124 58.9854 94.7951 59.0764L85.7174 60.4069C85.0691 60.502 84.3998 60.5958 83.767 60.4264C83.1342 60.2578 82.5425 59.7545 82.4838 59.1021C82.4109 58.3039 83.1605 57.63 83.9431 57.4559C84.7257 57.2818 85.5366 57.464 86.3321 57.5665C89.0739 57.9194 91.84 57.3169 94.6035 57.2218C95.2795 57.1988 96.1849 57.4161 96.1903 58.0928ZM139.993 55.9197C140.696 55.9979 141.417 56.4169 141.604 57.0983C140.357 58.0422 138.708 58.2135 137.15 58.3518C134.484 58.588 131.817 58.8241 129.15 59.0609C128.211 59.1439 127.272 59.2276 126.332 59.3106C125.646 59.3713 124.931 59.4286 124.285 59.1851C123.64 58.9415 123.089 58.3012 123.186 57.6185C123.337 56.5424 124.75 56.2631 125.836 56.286C129.867 56.3731 133.948 56.9816 137.898 56.17C138.59 56.0276 139.291 55.8407 139.993 55.9197ZM143.534 45.7403C123.775 48.4046 103.517 47.0249 84.0301 51.2402C82.8744 51.4898 81.2613 51.5026 80.9624 50.3584C80.9894 49.0104 82.7327 48.524 84.0773 48.4282C103.035 47.0761 121.992 45.7241 140.948 44.3721C142.061 44.2925 143.621 44.6291 143.534 45.7403Z" fill="#D39CFF"/>
<path fill-rule="evenodd" clip-rule="evenodd" d="M74.0294 250.557C74.2359 252.947 70.9408 253.757 68.541 253.766C56.0711 253.816 43.6134 256.129 31.9572 260.559C30.1781 261.235 28.2742 262.087 27.4086 263.782C26.2617 266.026 27.5132 268.898 29.5412 270.393C31.5699 271.889 34.1586 272.345 36.6461 272.749C101.297 283.277 166.91 287.892 232.399 286.517L233.452 286.494C241.005 286.32 248.713 285.914 255.632 282.923C249.904 278.908 244.176 274.894 238.448 270.879C248.364 268.898 258.595 270.308 268.658 271.302C291.689 273.576 314.94 273.622 337.98 271.441C336.358 274.033 332.792 274.392 329.735 274.458C300.753 275.082 271.736 274.052 242.871 271.376C246.637 273.854 250.403 276.333 254.169 278.811C255.534 279.709 257.044 280.849 257.122 282.481C257.241 284.933 254.227 286.156 251.805 286.557C243.767 287.885 235.59 288.097 227.445 288.215C163.824 289.146 100.125 284.593 37.2837 274.626C34.2173 274.139 31.0403 273.596 28.4833 271.835C25.9264 270.074 24.1836 266.725 25.2578 263.812C26.3264 260.914 29.5783 259.554 32.5138 258.595C45.9471 254.208 59.9289 251.5 74.0294 250.557ZM159.797 34.2413C159.93 63.5279 160.063 92.8145 160.196 122.101C160.228 129.072 161.601 137.892 168.342 139.667C177.657 135.368 188.156 133.669 198.352 134.812C204.188 135.467 210.249 137.231 214.2 141.577C219.62 147.537 219.628 156.514 219.046 164.549C217.867 180.836 215.543 197.041 212.099 213.004C214.836 212.831 217.627 213.929 219.512 215.92C216.608 217.247 213.149 217.303 210.204 216.069C212.227 227.033 203.295 237.849 192.598 240.989C181.901 244.131 170.294 241.169 160.235 236.362C159.291 240.036 164.206 242.194 167.958 242.748C177.483 244.156 187.007 245.564 196.532 246.972C184.769 247.325 172.968 246.363 161.418 244.107C159.291 247.119 164.108 250.16 167.747 250.749C177.401 252.312 187.056 253.874 196.71 255.436C185.805 255.363 174.906 254.637 164.089 253.26C170.968 259.466 180.359 262.803 189.612 262.329C184.392 264.046 178.593 263.942 173.438 262.041C179.887 270.678 193.082 272.277 202.717 267.447C212.352 262.616 218.644 252.733 221.721 242.404C224.799 232.074 225.098 221.156 225.643 210.391C226.65 190.521 228.574 170.677 232.055 151.087C234.399 137.896 240.157 122.167 253.425 120.303C229.787 119.214 206.126 118.627 182.465 118.541C175.274 118.515 166.343 119.691 163.942 126.469C161.889 126.682 162.347 123.2 163.902 121.843C169.711 116.781 178.174 116.594 185.878 116.673L237.579 117.202C254.276 117.373 274.301 119.491 281.86 134.38C281.641 129.955 285.651 125.779 290.082 125.82C294.913 125.864 298.954 121.673 300.365 117.051C301.775 112.43 301.153 107.464 300.518 102.674C292.727 95.1306 290.688 82.3072 295.754 72.7189C297.187 70.0067 299.304 63.54 311.128 59.378C319.01 56.6031 326.802 56.908 334.503 60.2928C348.965 57.4963 358.903 58.4895 364.317 63.2708C372.438 70.4439 372.594 76.3223 367.92 81.5401C373.204 79.4743 379.414 82.9778 382.06 87.996C384.707 93.0135 384.568 99.0255 383.772 104.643C381.8 118.553 376.13 131.922 367.499 143.008L366.309 146.514C387.187 151.896 404.078 170.351 407.595 191.623C400.653 175.977 391.256 159.407 375.066 153.853C371.413 157.685 367.657 161.684 365.941 166.693C364.225 171.701 365.152 178.03 369.502 181.047C366.77 181.68 364.038 182.314 361.305 182.947C362.215 184.56 363.124 186.174 364.034 187.787C353.709 195.636 352.521 210.482 352.584 223.451C352.647 236.421 352.41 251.047 343.001 259.973C334.614 267.93 321.814 268.473 310.26 268.106C281.85 267.205 253.528 263.595 225.802 257.34C223.444 256.808 220.458 256.485 219.1 258.483C209.264 272.944 188.696 274.236 171.254 272.977C148.847 271.361 126.57 267.963 104.701 262.826C92.2967 259.912 79.1238 255.855 71.3962 245.724C62.3874 233.912 63.4277 217.536 64.8897 202.753C56.0077 207.692 45.4782 209.603 35.427 208.103C46.022 201.176 51.1596 187.925 51.256 175.267C51.3525 162.609 47.1278 150.34 42.4267 138.587C32.0699 144.594 26.6206 157.257 27.4315 169.202C28.2418 181.147 34.5796 192.235 43.0831 200.663C32.6002 194.048 25.6639 182.13 25.0898 169.747C24.5156 157.365 30.3198 144.856 40.145 137.299C38.575 131.93 30.475 131.273 26.2293 134.916C21.984 138.559 20.6516 144.472 19.5596 149.959C17.5417 160.096 15.5156 170.471 16.9817 180.703C18.4478 190.935 24.0999 201.177 33.571 205.317C29.1452 208.508 23.2496 203.915 20.3101 199.318C8.38947 180.676 8.02947 155.268 19.4172 136.297C20.7851 134.018 22.3634 131.772 24.5912 130.322C26.9525 128.784 29.8313 128.279 32.6386 128.03C43.7099 127.05 55.0693 129.634 64.6273 135.308C64.5416 104.244 64.4566 73.1803 64.3709 42.1167C64.3662 40.3376 64.3904 38.4498 65.339 36.9447C66.7106 34.7682 69.5206 34.0935 72.0499 33.6212C95.0581 29.3263 118.327 26.4293 141.685 24.9524C149.318 24.4701 159.763 26.5939 159.797 34.2413ZM144.197 26.824C119.431 27.9898 94.7552 31.0514 70.4557 35.9731C69.4214 36.1823 68.3265 36.4272 67.5749 37.1673C66.5507 38.1759 66.4718 39.7742 66.4583 41.2112C66.1682 72.1427 66.291 103.077 66.826 134.005C69.7999 133.263 72.7739 132.522 75.7471 131.781C74.5847 125.435 73.4175 119.002 73.9147 112.569C74.4113 106.136 76.7719 99.5949 81.6275 95.3458C86.8825 90.7473 94.2161 89.4479 101.182 88.9588C107.88 88.4885 114.619 88.5978 121.299 89.284C128.118 89.9849 135.301 91.4995 140.22 96.2728C147.327 103.169 147.442 114.34 147.074 124.234C146.097 150.502 145.12 176.769 144.144 203.036C143.915 209.203 143.672 215.451 141.857 221.349C140.043 227.246 136.441 232.85 130.992 235.745C125.644 238.584 119.246 238.504 113.23 237.821C107.486 237.168 101.798 236.029 96.2455 234.42C92.8729 233.443 89.4982 232.267 86.6315 230.239C77.1471 223.526 76.0257 210.133 75.795 198.516C72.1532 197.858 68.593 200.63 67.0891 204.012C65.586 207.393 65.6521 211.235 65.7459 214.935C65.9786 224.163 66.3382 233.853 71.0494 241.792C78.3183 254.04 93.5853 258.566 107.525 261.491C132.267 266.682 157.388 270.068 182.622 271.611C171.36 265.876 161.376 256.059 159.001 243.646C158.355 240.274 158.287 236.823 158.219 233.39C156.904 166.275 155.589 99.1604 154.274 32.0452C154.191 27.8009 148.437 26.6243 144.197 26.824ZM240.2 137.014C239.574 138.542 239.118 140.237 239.535 141.834C239.952 143.432 241.505 144.827 243.133 144.556C250.428 143.341 258.292 146.934 262.149 153.244C265.33 158.451 265.772 164.822 266.131 170.913L269.393 226.401C269.742 232.331 269.914 238.856 266.228 243.514C261.447 249.558 252.469 249.759 244.798 249.009C238.47 248.391 231.812 247.338 226.899 243.301C227.073 245.651 226.388 248.055 225.002 249.959C223.291 252.31 226.053 255.404 228.74 256.516C232.021 257.874 235.59 258.347 239.113 258.804C255.245 260.898 271.387 262.918 287.538 264.862C299.97 266.358 312.6 267.807 324.96 265.799C317.141 263.605 309.659 260.214 302.855 255.781C299.461 253.569 296.178 251.042 293.863 247.717C290.084 242.289 289.287 235.392 288.658 228.808C286.789 209.231 285.397 189.608 284.485 169.963C283.812 155.473 279.166 141.187 271.186 129.073C269.759 126.907 268.014 124.659 265.491 124.056C255.461 121.659 244.114 127.473 240.2 137.014ZM194.208 262.407C195.059 262.552 195.932 262.742 196.633 263.245C197.334 263.749 197.823 264.642 197.607 265.477C197.392 266.313 196.288 266.862 195.592 266.353C194.823 265.791 193.8 265.771 192.884 265.512C191.968 265.253 191.007 264.492 191.172 263.554C191.381 262.366 193.018 262.205 194.208 262.407ZM158.884 262.76C159.939 262.98 161.175 263.732 160.958 264.788C160.768 265.72 159.616 266.03 158.673 266.156C157.617 266.297 156.489 266.428 155.53 265.964C154.571 265.499 153.949 264.189 154.578 263.329C155.002 262.749 155.796 262.594 156.515 262.565C157.308 262.533 158.106 262.598 158.884 262.76ZM222.038 251.02C221.036 251.743 220.348 252.808 219.641 253.821C216.418 258.438 212.333 262.452 207.66 265.593C207.777 266.089 208.52 265.964 208.96 265.709C214.371 262.573 218.233 257.394 221.939 252.357C222.242 251.945 222.492 251.255 222.038 251.02ZM270.423 126.278C273.31 129.687 276.219 133.129 278.331 137.065C280.62 141.332 281.907 146.061 282.943 150.792C288.736 177.258 287.19 204.773 290.944 231.604C291.622 236.445 292.518 241.389 295.037 245.579C297.988 250.487 302.885 253.889 307.875 256.7C311.91 258.974 316.122 260.971 320.554 262.318C327.602 264.459 336.067 264.61 341.47 259.602C344.503 256.791 346.099 252.779 347.346 248.835C352.688 231.931 353.275 213.551 349.024 196.34C349.13 206.634 350.467 216.903 350.161 227.193C349.855 237.483 347.743 248.078 341.695 256.408C340.496 258.058 339.107 259.641 337.297 260.579C334.912 261.815 332.079 261.791 329.413 261.466C324.756 260.897 320.204 259.49 316.038 257.333C312.875 255.693 309.948 253.634 307.111 251.477C303.814 248.97 300.577 246.269 298.267 242.832C295.978 239.424 294.701 235.444 293.689 231.465C286.298 202.416 291.583 171.081 282.813 142.418C280.746 135.663 277.156 128.415 270.423 126.278ZM94.1008 254.074C111.162 256.708 128.225 259.341 145.286 261.975C144.855 263.104 143.295 263.143 142.097 262.983C127.505 261.034 112.913 259.085 98.3215 257.135C96.6719 256.915 95.0223 256.694 93.3721 256.474C92.5895 256.369 91.6173 256.086 91.5181 255.303C91.3785 254.198 93.0004 253.905 94.1008 254.074ZM292.028 153.816C288.424 157.827 288.684 163.878 289.156 169.249C290.189 181.005 291.223 192.761 292.256 204.517C292.304 205.068 292.363 205.647 292.686 206.095C293.213 206.828 294.234 206.955 295.135 207.019C307.401 207.883 319.668 208.747 331.935 209.612C331.018 211.062 328.95 211.084 327.24 210.951C315.692 210.06 304.096 209.771 292.518 210.086C292.318 216.024 293.193 221.996 295.088 227.627C295.909 230.068 299.071 230.587 301.644 230.692C311.456 231.089 321.268 231.486 331.08 231.884C331.531 232.9 329.946 233.535 328.833 233.522C318.749 233.406 308.663 233.29 298.577 233.174C297.196 233.159 296.696 235.115 297.217 236.395C298.577 239.739 302.909 240.46 306.512 240.685L329.061 242.097C329.576 242.13 329.683 242.939 329.307 243.291C328.931 243.645 328.359 243.654 327.843 243.644L301.442 243.084C308.268 251.208 317.842 256.98 328.213 259.226C330.448 259.709 332.817 260.027 334.988 259.311C337.587 258.453 339.503 256.247 341.002 253.959C348.957 241.823 348.428 226.208 347.615 211.72L346.693 195.3C347.015 194.857 347.676 194.703 348.16 194.96C348.347 194.155 347.3 193.676 346.487 193.527C328.542 190.232 310.128 186.93 292.169 190.149C291.595 189.914 291.601 189.021 292.037 188.579C292.474 188.138 293.136 188.031 293.75 187.947C296.205 187.609 298.66 187.271 301.115 186.933C295.481 184.389 292.066 178.344 291.046 172.247C290.026 166.15 291.022 159.916 292.028 153.816ZM203.831 253.643C205.43 253.94 207.275 254.429 207.899 255.93C206.12 257.143 203.783 257.019 201.636 256.848C201.046 256.8 200.4 256.728 199.985 256.305C199.251 255.557 199.799 254.178 200.743 253.723C201.688 253.269 202.801 253.451 203.831 253.643ZM82.0998 242.673C100.482 248.449 119.532 252.101 138.747 253.533C140.237 253.644 142.241 254.355 141.954 255.821C121.633 253.523 101.434 250.127 81.4784 245.651C80.2053 245.365 78.5713 244.459 79.0456 243.242C79.4625 242.174 81.0061 242.33 82.0998 242.673ZM149.43 251.589C150.369 251.586 151.275 251.908 152.152 252.242C152.598 252.412 153.09 252.631 153.262 253.075C153.631 254.024 152.323 254.702 151.322 254.884C150.648 255.006 149.974 255.128 149.3 255.251C148.732 255.354 148.12 255.452 147.596 255.207C146.746 254.809 146.526 253.582 147.014 252.78C147.501 251.978 148.491 251.591 149.43 251.589ZM235.992 249.562C244.123 251.109 252.452 251.197 260.729 251.279C261.369 251.286 261.542 252.294 261.084 252.742C260.627 253.19 259.912 253.21 259.272 253.197C251.546 253.045 243.81 252.231 236.106 252.838C235.267 252.904 234.396 252.983 233.609 252.688C232.821 252.393 232.15 251.597 232.299 250.769C232.428 250.056 233.124 249.556 233.836 249.418C234.547 249.28 235.279 249.427 235.992 249.562ZM254.362 122.092C245.155 123.467 237.42 131.661 236.579 140.932C235.792 149.59 233.403 158.01 231.701 166.536C226.238 193.915 227.895 222.29 223.065 249.788C224.83 246.576 225.305 242.837 225.75 239.198L237.462 143.282C237.774 140.729 238.092 138.148 239.009 135.746C241.515 129.181 247.991 125.057 254.362 122.092ZM212.501 246.32C213.003 246.479 213.517 246.688 213.851 247.095C214.185 247.501 214.269 248.158 213.904 248.536C213.628 248.822 213.196 248.874 212.801 248.909C211.507 249.023 210.213 249.137 208.919 249.251C208.22 249.314 207.499 249.372 206.833 249.152C206.167 248.932 205.566 248.355 205.548 247.654C205.515 246.466 206.98 245.869 208.165 245.792C209.627 245.697 211.105 245.877 212.501 246.32ZM239.753 147.023C238.682 147.408 238.396 148.761 238.274 149.892L234.234 187.516C233.995 189.744 236.872 191.166 239.045 190.614C241.217 190.062 242.875 188.365 244.752 187.142C246.631 185.92 249.278 185.216 251.003 186.647C252.952 188.265 255.837 186.468 257.53 184.584C259.223 182.7 261.428 180.429 263.836 181.215C261.011 183.917 258.187 186.619 255.362 189.32C254.426 190.217 253.599 192.006 254.783 192.535C258.029 191.384 260.963 189.367 263.199 186.749C264.233 186.716 264.282 188.34 263.705 189.199C261.531 192.435 256.413 193.156 255.094 196.825C252.019 205.39 242.426 211.079 233.436 209.67C231.592 209.381 230.672 211.807 230.45 213.661C229.565 221.051 228.68 228.441 227.795 235.832C227.592 237.532 227.401 239.33 228.101 240.892C229.27 243.5 232.393 244.486 235.163 245.188C240.365 246.506 245.652 247.833 251.016 247.644C256.379 247.455 261.925 245.537 265.321 241.381C264.381 240.16 262.286 241.726 260.915 241.02C259.576 240.328 260.287 238.027 261.726 237.574C263.165 237.122 264.683 237.841 266.019 238.54C266.859 236.902 267.721 235.15 267.549 233.318C267.376 231.486 265.695 229.675 263.902 230.086C262.723 230.357 262.243 228.315 263.193 227.566C264.143 226.819 265.508 227.061 266.685 227.341C266.75 222.919 266.815 218.498 266.881 214.077C266.894 213.175 266.897 212.227 266.469 211.433C266.041 210.638 265.027 210.082 264.214 210.474C263.106 211.007 262.145 209.121 262.887 208.139C263.628 207.158 265.028 207.031 266.257 206.988C266.353 203.062 266.098 199.127 265.5 195.245C260.872 197.564 260.063 203.682 259.596 208.838C258.701 218.724 256.9 228.528 254.223 238.088C253.624 240.229 252.949 242.419 251.548 244.146C250.146 245.873 247.838 247.046 245.686 246.485C246.169 244.914 247.812 244.071 249.016 242.952C251.182 240.939 251.986 237.895 252.693 235.023C255.135 225.1 257.592 215.055 257.561 204.835L257.557 204.15C257.541 202.204 257.521 200.231 258.162 198.403C258.879 196.36 260.675 194.512 262.84 194.502C265.123 194.491 265.668 191.324 265.464 189.05C264.76 181.21 264.057 173.369 263.353 165.529C263.128 163.024 262.899 160.497 262.139 158.1C259.329 149.24 248.502 143.881 239.753 147.023ZM274.203 242.647C275.276 242.935 276.317 244.038 275.871 245.056C275.446 246.028 274.109 246.082 273.052 245.981C272.535 245.933 271.985 245.871 271.581 245.544C270.874 244.972 270.973 243.758 271.636 243.135C272.299 242.512 273.324 242.411 274.203 242.647ZM145.253 241.56C145.959 241.713 146.695 241.919 147.202 242.433C147.71 242.947 147.878 243.863 147.373 244.38C146.961 244.802 146.296 244.809 145.707 244.789C144.859 244.76 144.011 244.729 143.163 244.699C142.671 244.683 142.146 244.654 141.752 244.361C140.91 243.734 141.279 242.266 142.184 241.734C143.089 241.201 144.227 241.338 145.253 241.56ZM79.9125 233.866C84.6595 236.074 89.8753 237.037 95.0331 237.936C105.474 239.755 115.947 241.393 126.445 242.85C127.914 243.053 129.541 243.342 130.436 244.525C126.371 244.803 122.308 244.125 118.29 243.451C105.042 241.226 91.7954 239.002 78.5483 236.777C77.1599 236.544 75.3673 235.773 75.6378 234.391C75.9583 232.753 78.3992 233.163 79.9125 233.866ZM162.341 186.945C161.88 188.796 161.969 190.732 162.032 192.638C162.425 204.536 161.719 216.47 159.925 228.238C159.498 231.044 161.174 233.849 163.478 235.506C165.782 237.162 168.62 237.874 171.407 238.411C177.689 239.621 184.108 240.117 190.501 239.886C192.932 239.799 195.464 239.575 197.543 238.312C199.512 237.116 200.847 235.125 202.022 233.144C207.007 224.737 210.276 215.318 211.57 205.631C193.638 205.55 175.812 198.784 162.341 186.945ZM209.244 234.118C210.469 234.522 211.693 234.926 212.917 235.33C213.326 235.465 213.763 235.621 214.005 235.976C214.415 236.576 214.017 237.455 213.384 237.811C212.751 238.167 211.982 238.148 211.256 238.119C209.934 238.067 208.474 237.956 207.551 237.008C206.629 236.06 206.945 234.015 208.265 233.929C208.599 233.907 208.926 234.013 209.244 234.118ZM273.424 234.295C274.152 234.411 274.921 234.546 275.482 235.024C276.044 235.502 276.274 236.45 275.757 236.976C275.548 237.188 275.259 237.296 274.978 237.394C273.895 237.771 272.691 238.073 271.619 237.662C270.548 237.251 269.816 235.834 270.49 234.905C271.11 234.051 272.383 234.129 273.424 234.295ZM83.0679 194.685C82.3136 195.043 81.5061 195.451 81.1337 196.198C80.8557 196.755 80.8699 197.407 80.8908 198.029C81.1728 206.505 81.5283 215.285 85.3193 222.873C86.3434 224.922 87.6455 226.893 89.4894 228.252C90.606 229.076 91.8845 229.647 93.1522 230.211C95.3516 231.191 97.5564 232.17 99.8401 232.935C105.071 234.687 110.607 235.28 116.093 235.863C118.419 236.11 120.896 236.332 122.983 235.274C125.44 234.03 126.749 231.334 127.805 228.791C133.697 214.609 137.061 199.383 137.691 184.039C137.781 181.859 134.99 180.896 132.812 180.75C115.432 179.583 98.8092 187.224 83.0679 194.685ZM140.39 183.424C139.944 184.011 139.889 184.795 139.845 185.531C138.805 202.882 134.486 220.032 127.184 235.807C134.141 232.286 139.324 225.449 140.836 217.8C141.356 215.17 141.462 212.479 141.567 209.8C141.898 201.354 142.228 192.907 142.559 184.461C142.576 184.015 142.58 183.525 142.296 183.181C141.828 182.613 140.836 182.837 140.39 183.424ZM143.272 225.687C144.154 225.735 144.984 226.102 145.842 226.315C146.611 226.506 146.843 227.601 146.414 228.267C145.985 228.932 145.158 229.221 144.374 229.331C143.554 229.447 142.675 229.403 141.97 228.97C141.267 228.536 140.81 227.632 141.091 226.855C141.392 226.023 142.389 225.639 143.272 225.687ZM273.93 223.394C274.756 223.564 275.464 224.076 276.143 224.574C276.512 224.845 276.904 225.148 277.025 225.59C277.18 226.153 276.808 226.759 276.296 227.04C275.784 227.321 275.17 227.341 274.588 227.294C273.761 227.228 272.906 227.023 272.282 226.477C271.658 225.93 271.341 224.97 271.73 224.237C272.125 223.493 273.105 223.223 273.93 223.394ZM77.5667 197.153C77.3414 197.556 77.3866 198.049 77.4392 198.508L78.665 209.306C79.3309 215.166 80.2026 221.481 84.2985 225.724C84.9813 225.4 84.596 224.374 84.1656 223.752C80.8476 218.964 80.2087 212.877 79.6703 207.077C79.3552 203.677 79.0395 200.277 78.7244 196.877C78.4073 196.542 77.7927 196.751 77.5667 197.153ZM295.975 219.273C307.227 219.551 318.48 219.828 329.733 220.106C331.455 220.148 333.182 220.192 334.886 220.447C334.53 221.678 332.913 221.909 331.632 221.897C320.348 221.791 309.026 221.092 297.802 222.265C296.843 222.366 295.807 222.464 294.974 221.977C294.141 221.49 293.768 220.153 294.534 219.566C294.931 219.261 295.475 219.26 295.975 219.273ZM265.057 217.062C265.306 217.143 265.559 217.228 265.761 217.393C266.434 217.941 266.183 219.111 265.495 219.639C264.807 220.167 263.88 220.228 263.013 220.249C262.11 220.271 261.058 220.2 260.544 219.458C259.898 218.526 260.665 217.148 261.734 216.77C262.802 216.393 263.98 216.709 265.057 217.062ZM273.285 214.787C274.334 214.901 275.355 215.269 276.236 215.851C276.909 216.295 276.775 217.413 276.162 217.937C275.55 218.462 274.676 218.536 273.87 218.507C273.055 218.477 272.204 218.354 271.544 217.873C270.885 217.394 270.492 216.466 270.846 215.731C271.249 214.892 272.359 214.688 273.285 214.787ZM159.925 189.108C159.313 197.94 159.038 206.795 159.102 215.648C159.105 216.021 159.36 216.553 159.679 216.359C160.357 208.917 160.69 201.445 160.676 193.973C160.672 192.317 160.639 190.601 159.925 189.108ZM147.896 211.764C148.861 211.837 149.713 212.398 150.5 212.962C150.742 213.136 150.992 213.321 151.127 213.587C151.408 214.137 151.072 214.845 150.544 215.167C150.017 215.489 149.365 215.514 148.748 215.486C147.345 215.42 145.581 214.657 145.738 213.261C145.846 212.298 146.931 211.691 147.896 211.764ZM275.622 205.815C276.562 206.201 277.529 207.208 277.043 208.1C276.715 208.704 275.914 208.835 275.226 208.842C274.428 208.85 273.63 208.784 272.843 208.647C271.736 208.454 271.567 206.714 272.426 205.99C273.285 205.267 274.584 205.389 275.622 205.815ZM385.122 188.534C385.509 189.183 385.516 189.981 385.511 190.736C385.478 196.08 385.445 201.424 385.412 206.768C385.408 207.417 385.321 208.204 384.732 208.477C384.223 208.712 383.596 208.382 383.312 207.897C383.029 207.413 383.003 206.825 382.994 206.264C382.911 201.493 383.443 196.608 382.092 192.032C381.69 190.672 381.21 188.973 382.26 188.021C383.081 187.276 384.553 187.583 385.122 188.534ZM247.722 187.915C243.67 190.429 239.409 193.013 234.654 193.356C233.789 193.418 233.399 194.452 233.228 195.302C232.461 199.128 232.037 203.023 231.964 206.924C231.959 207.162 231.962 207.419 232.1 207.613C232.319 207.923 232.766 207.936 233.145 207.916C236.855 207.722 240.615 207.334 244.06 205.945C247.506 204.556 250.64 202.04 252.044 198.602C253.448 195.162 252.773 190.776 249.906 188.414C249.289 187.906 248.4 187.494 247.722 187.915ZM216.708 202.959C218.009 203.3 219.311 203.642 220.612 203.984C221.099 204.112 221.64 204.281 221.872 204.727C222.146 205.252 221.827 205.929 221.332 206.254C220.836 206.578 220.22 206.64 219.629 206.692C218.694 206.775 217.731 206.855 216.833 206.579C215.935 206.303 215.108 205.579 215.006 204.645C214.903 203.711 215.799 202.72 216.708 202.959ZM36.157 131.74C41.0281 133.713 44.6949 137.981 46.9692 142.719C49.2428 147.457 50.2784 152.681 51.1811 157.858C52.6749 166.428 53.8643 175.175 52.7754 183.805C51.6858 192.435 48.0784 201.04 41.3904 206.602C46.2622 206.863 52.0791 206.67 54.7238 202.571C55.9106 200.731 58.4655 199.916 60.4976 200.73C59.2198 199.625 60.1846 197.568 61.1332 196.171C65.0186 190.443 67.6849 183.86 68.6375 177.005C70.4854 163.713 65.8403 150.241 58.9486 138.725C54.4769 131.254 44.0472 128.057 36.157 131.74ZM151.658 200.598C152.663 200.993 152.429 202.654 151.49 203.188C150.55 203.722 149.379 203.481 148.332 203.216C147.844 203.091 147.326 202.946 146.994 202.567C146.22 201.681 147.109 200.184 148.255 199.919C149.4 199.655 150.564 200.167 151.658 200.598ZM187.796 136.633C183.495 136.709 178.98 137.233 175.469 139.719C174.308 140.54 173.253 141.616 172.829 142.975C172.405 144.332 172.762 146 173.94 146.798C176.917 148.815 178.13 152.587 178.688 156.139C179.246 159.69 179.381 163.41 180.999 166.62C181.834 168.276 183.031 169.72 184.286 171.085C191.091 178.485 199.969 183.959 209.636 186.718C211.336 187.203 213.498 188.253 213.139 189.983C199.23 187.066 186.547 178.673 178.426 167.011C175.958 174.59 171.09 181.369 164.697 186.128C177.168 196.741 193.308 202.96 209.677 203.458C210.419 203.481 211.258 203.452 211.759 202.905C212.086 202.546 212.189 202.042 212.278 201.563C214.595 189.104 216.228 176.518 217.167 163.88C217.488 159.556 217.723 155.161 216.788 150.928C215.854 146.694 213.599 142.579 209.913 140.297C207.641 138.891 204.982 138.26 202.352 137.791C197.553 136.935 192.67 136.546 187.796 136.633ZM273.256 197.268C274.383 197.27 275.806 197.599 276.004 198.709C276.201 199.815 274.941 200.64 273.826 200.782C273.01 200.886 272.124 200.787 271.477 200.28C270.83 199.773 270.529 198.779 270.979 198.09C271.44 197.384 272.413 197.268 273.256 197.268ZM356.581 175.051C354.511 183.069 353.302 191.281 352.098 199.474C352.038 199.881 352.004 200.364 352.311 200.638C355.537 196.629 358.497 192.406 361.165 188.005C361.428 187.571 361.686 187.003 361.391 186.59C360.723 185.655 360.054 184.721 359.386 183.787C358.891 183.094 358.379 182.179 358.816 181.447C359.17 180.852 359.964 180.726 360.654 180.662L366.323 180.141C366.261 179.789 366.047 179.487 365.84 179.197C364.322 177.085 362.667 174.864 360.237 173.938C358.889 173.424 356.941 173.655 356.581 175.051ZM94.0461 92.1027C89.9023 92.7983 85.4137 93.9965 83.0092 97.442C81.6633 99.3709 81.1681 101.752 80.7727 104.071C79.2176 113.189 78.7318 122.489 79.3289 131.72C97.1927 123.409 118.094 121.83 137.004 127.363C138.608 127.833 140.593 129.255 139.751 130.698C125.566 125.452 109.766 124.67 95.1323 128.489C90.3968 129.725 85.7949 131.424 81.0871 132.759C74.0895 134.744 66.8631 135.916 59.5976 136.247C72.8299 154.213 74.5422 179.938 63.8075 199.5C70.4867 198.236 76.7618 195.429 82.9202 192.552C92.1139 188.255 101.268 183.724 111.035 180.966C120.801 178.208 131.361 177.306 141.049 180.33C142.182 180.683 142.806 179.048 142.852 177.862L144.951 122.861C145.27 114.529 145.296 105.317 139.841 99.0106C135.015 93.4305 127.143 91.6851 119.792 91.0576C111.212 90.325 102.539 90.6771 94.0461 92.1027ZM222.03 194.186C222.302 194.363 222.582 194.586 222.645 194.903C222.773 195.548 221.989 195.958 221.357 196.138C220.439 196.398 219.492 196.659 218.543 196.559C217.593 196.459 216.628 195.914 216.315 195.012C216.004 194.11 216.63 192.926 217.585 192.908C219.15 192.879 220.72 193.33 222.03 194.186ZM356.775 159.577C353.319 161.514 349.191 162.222 345.287 161.547C345.786 162.939 347.976 163.424 347.987 164.904C347.993 165.805 347.145 166.439 346.662 167.199C346.291 167.785 346.131 168.476 345.982 169.152C344.592 175.521 343.793 182.019 343.601 188.535C343.568 189.657 343.847 191.14 344.963 191.263C347.276 191.516 349.454 192.813 350.779 194.726C351.865 187.893 352.95 181.062 354.036 174.23C354.288 172.644 354.5 170.874 353.571 169.565C352.293 167.764 353.406 165.297 354.526 163.394L356.775 159.577ZM151.023 189.106C152.203 189.341 153.544 190.36 153.098 191.476C152.822 192.165 151.991 192.443 151.251 192.482C150.511 192.521 149.741 192.411 149.048 192.675C148.233 192.984 147.273 192.261 147.173 191.395C147.074 190.528 147.676 189.687 148.461 189.307C149.245 188.926 150.168 188.935 151.023 189.106ZM273.242 188.05C273.985 188.154 274.769 188.317 275.31 188.837C275.851 189.358 276 190.348 275.424 190.829C275.234 190.988 274.994 191.072 274.759 191.153C273.737 191.501 272.645 191.843 271.597 191.584C270.549 191.325 269.638 190.213 270.001 189.196C270.418 188.023 272.008 187.88 273.242 188.05ZM340.926 174.006C340.139 174.195 339.565 174.853 339.045 175.475L335.919 179.219C335.308 179.95 336.383 180.97 337.333 181.05C338.283 181.13 339.393 180.906 340.069 181.578C340.777 182.283 340.485 183.511 339.905 184.324C339.325 185.137 338.503 185.801 338.152 186.736C337.628 188.134 338.495 189.886 339.925 190.317C340.702 190.551 341.791 190.191 341.798 189.38C341.838 184.64 342.115 179.902 342.628 175.189C342.715 174.384 341.714 173.816 340.926 174.006ZM182.268 176.36C182.867 176.758 183.255 177.395 183.654 177.993C187.085 183.129 192.822 186.66 198.953 187.406C200.372 187.579 202.045 187.752 202.756 188.99C201.42 190.313 199.243 190.152 197.412 189.726C190.92 188.216 184.972 184.465 180.811 179.259C180.147 178.429 179.541 177.166 180.281 176.403C180.782 175.887 181.669 175.962 182.268 176.36ZM337.554 153.663C332.97 154.789 328.392 156.379 324.677 159.291C320.961 162.203 318.197 166.627 318.227 171.348C318.264 177.334 315.323 183.267 310.535 186.862L318.595 187.81C319.539 187.921 320.597 188.001 321.336 187.404C322.417 186.53 322.14 184.852 321.868 183.489C321.594 182.126 321.654 180.325 322.951 179.824C324.561 179.201 325.894 181.435 325.65 183.144C325.406 184.853 324.414 186.497 324.725 188.195C328.542 188.737 332.371 189.193 336.209 189.564C335.445 188.938 335.362 187.75 335.749 186.841C336.135 185.931 336.885 185.236 337.614 184.569C338.39 183.859 337.271 182.608 336.224 182.495C335.179 182.383 333.947 182.634 333.21 181.884C332.293 180.951 332.981 179.386 333.763 178.337C335.282 176.302 337.164 173.849 336.187 171.505C333.803 165.79 334.328 158.947 337.554 153.663ZM161.748 138.047C161.109 153.692 161.197 169.366 162.011 185.004C167.987 181.76 172.353 176.055 175.061 169.818C176.714 166.012 177.819 161.819 177.159 157.723C176.666 154.669 175.221 151.848 173.539 149.251C170.557 144.645 166.664 140.486 161.748 138.047ZM300.327 130.551C302.473 130.156 304.114 132.805 303.748 134.957C303.382 137.108 301.818 138.819 300.575 140.613C298.858 143.091 297.684 145.898 296.522 148.68C293.758 155.301 292.682 162.618 293.424 169.754C293.86 173.955 295.012 178.271 297.853 181.397C300.693 184.523 305.563 186.086 309.306 184.129C312.521 182.449 314.125 178.744 314.862 175.192C315.6 171.64 315.731 167.922 317.124 164.572C319.694 158.392 326.031 154.659 332.3 152.315C322.876 151.035 314.35 144.469 310.705 135.685C309.659 133.166 308.875 130.325 306.706 128.672C304.537 127.017 300.454 127.827 300.327 130.551ZM220.67 180.95C221.332 181.076 221.982 181.269 222.607 181.524C223.639 181.943 224.747 183.104 224.083 183.998C223.721 184.487 223.025 184.546 222.417 184.561C221.308 184.589 220.112 184.593 219.206 183.953C218.3 183.312 217.986 181.762 218.9 181.132C219.402 180.787 220.071 180.835 220.67 180.95ZM270.63 178.308C271.527 178.384 272.421 178.509 273.305 178.681C273.742 178.766 274.214 178.885 274.488 179.236C274.905 179.768 274.643 180.601 274.116 181.023C273.589 181.445 272.888 181.564 272.221 181.669C271.201 181.828 270.114 181.979 269.174 181.555C268.234 181.13 267.591 179.888 268.166 179.031C268.667 178.283 269.733 178.233 270.63 178.308ZM14.1433 173.482C13.3834 173.474 13.1204 174.489 13.1435 175.249C13.2098 177.431 13.6516 179.602 14.4439 181.638C14.6644 181.862 14.9205 181.393 14.8897 181.08L14.1433 173.482ZM160.169 179.103C159.695 179.36 159.514 180.041 159.798 180.5L159.81 180.516L159.8 180.528C159.787 180.543 159.773 180.561 159.759 180.583C159.568 180.871 159.836 181.329 160.181 181.305C160.414 180.595 160.41 179.81 160.169 179.103ZM150.292 176.013C151.32 176.24 152.436 177.094 152.18 178.116C152.011 178.793 151.298 179.19 150.617 179.341C149.936 179.492 149.216 179.482 148.565 179.735C147.738 180.056 146.742 179.389 146.572 178.518C146.401 177.647 146.935 176.738 147.704 176.296C148.475 175.854 149.425 175.821 150.292 176.013ZM156.242 31.9049C156.302 79.0014 157.384 126.097 159.487 173.147L159.709 178.011L159.742 176.447C159.803 172.789 159.749 169.131 159.695 165.474C159.068 122.604 158.44 79.734 157.812 36.8637C157.786 35.0691 157.644 33.0262 156.242 31.9049ZM223.606 169.126C224.183 169.299 224.761 169.561 225.135 170.033C225.51 170.504 225.617 171.23 225.246 171.705C224.888 172.164 224.239 172.251 223.658 172.303L221.18 172.523C220.775 172.559 220.34 172.588 219.988 172.385C219.703 172.221 219.515 171.921 219.429 171.604C219.168 170.649 219.814 169.614 220.707 169.189C221.599 168.764 222.658 168.843 223.606 169.126ZM24.0151 132.26C21.4389 134.791 20.0989 138.29 18.8609 141.683C15.4111 151.137 12.1327 161.172 13.8349 171.091C14.3613 171.187 14.6121 170.471 14.6512 169.938C15.351 160.368 17.2632 150.888 20.3276 141.797C21.4968 138.327 22.9032 134.804 25.5006 132.224C25.4649 131.596 24.4639 131.818 24.0151 132.26ZM340.724 152.941C340.274 153.051 339.984 153.476 339.749 153.874C337.532 157.636 336.488 162.078 336.798 166.433C336.925 168.231 337.504 170.303 339.184 170.958C340.549 169.648 341.915 168.337 343.28 167.026C343.497 166.817 343.719 166.602 343.839 166.326C344.138 165.637 343.71 164.867 343.317 164.226C341.371 161.06 339.909 157.046 341.53 153.702C341.732 153.286 341.173 152.831 340.724 152.941ZM369.096 148.883C368.878 148.996 368.71 149.184 368.547 149.368C364.517 153.927 360.624 158.607 356.875 163.401C356.093 164.403 355.276 165.531 355.353 166.8C355.421 167.928 356.215 168.91 357.176 169.503C358.138 170.096 359.258 170.367 360.357 170.629C360.651 170.699 360.97 170.767 361.247 170.644C361.501 170.531 361.662 170.282 361.809 170.046C364.104 166.346 366.431 162.573 367.514 158.356C367.746 157.457 368.525 156.829 369.148 156.141C370.372 154.789 371.089 152.988 371.13 151.165C371.145 150.548 371.072 149.896 370.715 149.393C370.357 148.889 369.643 148.597 369.096 148.883ZM270.928 166.928C271.483 167.066 272.096 167.276 272.345 167.791C272.784 168.699 271.754 169.646 270.791 169.944C270.044 170.174 269.211 170.255 268.495 169.942C267.779 169.629 267.235 168.839 267.398 168.074C267.686 166.717 269.581 166.594 270.928 166.928ZM151.211 164.946C151.473 165.181 151.716 165.457 151.815 165.795C152.015 166.474 151.541 167.223 150.89 167.503C150.239 167.782 149.479 167.674 148.824 167.406C148.133 167.125 147.46 166.587 147.372 165.846C147.272 164.999 148.039 164.219 148.884 164.097C149.728 163.974 150.576 164.376 151.211 164.946ZM225.914 157.499C226.588 157.773 226.658 158.792 226.193 159.352C225.729 159.911 224.954 160.098 224.229 160.159C223.505 160.22 222.754 160.193 222.078 160.459C221.037 160.866 219.905 159.609 220.153 158.519C220.4 157.429 221.571 156.752 222.687 156.7C223.803 156.648 224.879 157.077 225.914 157.499ZM269.773 155.86C270.728 155.907 271.673 156.158 272.525 156.591C272.895 156.778 273.277 157.038 273.383 157.439C273.599 158.266 272.563 158.833 271.724 158.994C270.98 159.137 270.225 159.222 269.469 159.248C268.534 159.281 267.408 159.1 267.036 158.243C266.747 157.577 267.099 156.76 267.69 156.34C268.282 155.919 269.049 155.824 269.773 155.86ZM331.343 94.8641C325.77 95.7635 320.174 96.5083 314.562 97.0986C310.495 97.5257 306.666 99.8324 304.388 103.227C303.919 103.924 303.597 105.037 304.32 105.464C306.366 103.104 309.143 101.387 312.169 100.611C313.249 100.334 314.433 100.183 315.453 100.637C316.473 101.091 317.202 102.342 316.74 103.358C316.032 104.919 313.772 104.483 312.061 104.378C307.302 104.088 303.187 109.534 304.765 114.033C305.873 109.738 312.004 107.874 315.44 110.678C318.877 113.481 318.456 119.638 314.782 122.12C313.566 122.94 312.007 123.512 311.453 124.869C310.978 126.032 311.435 127.345 311.891 128.516C312.606 130.354 313.322 132.191 314.037 134.029C315.537 137.882 317.131 141.875 320.167 144.681C322.502 146.839 325.53 148.123 328.618 148.875C339.754 151.589 352.291 147.27 359.392 138.272C359.961 137.551 361.259 138.235 361.361 139.148C361.462 140.061 360.838 140.882 360.221 141.562C357.041 145.061 353.034 147.804 348.621 149.499C346.534 150.301 344.055 151.168 343.414 153.309C342.882 155.082 344 157.041 345.604 157.964C347.209 158.887 349.165 158.965 351.004 158.763C354.673 158.362 358.223 156.926 361.14 154.663C362.024 153.978 362.88 153.176 363.273 152.128C363.644 151.136 363.56 150.039 363.47 148.983L363.391 148.076C363.047 144.14 362.601 140.157 360.997 136.558C360.224 134.826 359.192 133.203 358.623 131.395C357.922 129.164 357.965 126.772 357.494 124.481C357.022 122.191 355.83 119.813 353.65 118.969C354.225 117.506 355.662 116.585 356.593 115.317C357.523 114.05 357.66 111.835 356.195 111.263C355.495 110.989 354.697 111.225 354.03 111.572C351.217 113.032 349.7 116.607 350.602 119.645C351.192 121.628 348.059 122.959 346.373 121.76C344.686 120.563 344.271 118.282 343.938 116.241C342.649 108.326 340.061 99.7946 333.302 95.4801C332.711 95.1036 332.034 94.7528 331.343 94.8641ZM150.62 151.003C151.509 151.291 152.395 152.09 152.21 153.006C152.035 153.871 151.039 154.277 150.168 154.426C148.934 154.637 147.323 154.395 146.976 153.191C146.646 152.045 147.845 150.948 149.03 150.822C149.564 150.766 150.109 150.837 150.62 151.003ZM293.135 134.519C292.306 135.304 291.903 136.425 291.526 137.502C290.677 139.934 289.816 142.436 289.914 145.009C289.977 146.666 289.016 148.157 288.33 149.667C287.644 151.176 287.272 153.109 288.347 154.37C290.916 152.211 291.533 148.575 292.097 145.267C292.773 141.312 293.691 137.213 296.248 134.122C295.353 133.414 293.963 133.734 293.135 134.519ZM225.453 145.54C226.114 145.753 226.862 146.178 226.87 146.873C226.881 147.717 225.841 148.105 225.01 148.258C224.593 148.334 224.176 148.41 223.76 148.487C222.699 148.68 221.561 148.867 220.574 148.43C219.588 147.993 218.931 146.661 219.575 145.795C219.992 145.235 220.758 145.083 221.454 145.04C222.803 144.956 224.167 145.127 225.453 145.54ZM128.93 133.342C130.091 133.898 131.39 134.992 130.96 136.205C118.995 133.597 106.212 134.887 95.0089 139.834C89.9677 142.06 85.2363 145.003 80.0191 146.778C78.2346 147.385 76.2855 147.85 74.4828 147.301C72.6794 146.75 71.1763 144.837 71.7032 143.027C72.1984 141.328 74.0901 140.52 75.7667 139.953C84.028 137.156 92.4336 134.784 100.938 132.849C110.218 130.739 120.345 129.236 128.93 133.342ZM300.737 133.199C299.882 133.195 299.164 133.822 298.602 134.466C297.24 136.027 296.271 137.9 295.55 139.843C294.655 142.257 294.126 144.806 293.986 147.377C296.46 143.121 299.105 138.964 301.913 134.92C302.401 134.219 301.591 133.202 300.737 133.199ZM285.576 140.781C285.341 140.782 285.094 140.791 284.896 140.916C284.451 141.199 284.513 141.859 284.645 142.369C285.064 143.989 285.644 145.567 286.374 147.073C286.813 144.951 287.516 142.885 288.463 140.936C287.505 140.827 286.54 140.775 285.576 140.781ZM98.0806 135.312C90.998 137.488 83.9153 139.665 76.8333 141.842C75.9873 142.102 75.0057 142.503 74.8249 143.37C75.401 144.21 76.498 144.567 77.5154 144.518C78.5328 144.468 79.4983 144.078 80.4415 143.692C87.6266 140.756 94.8119 137.821 101.997 134.885C100.714 134.526 99.3544 134.92 98.0806 135.312ZM172.819 139.285C172.438 139.945 171.647 140.225 171.053 140.702C170.46 141.179 170.112 142.208 170.738 142.641C171.698 141.68 172.657 140.719 173.616 139.759C173.418 139.513 173.13 139.342 172.819 139.285ZM247.546 138.773C252.694 139.31 257.889 139.584 263.046 139.139C264.38 139.024 265.975 138.97 266.768 140.051C265.768 141.069 264.196 141.191 262.771 141.252C257.419 141.482 252.066 141.711 246.714 141.94C245.669 141.985 244.347 141.852 244.008 140.864C243.741 140.085 244.348 139.226 245.109 138.914C245.87 138.601 246.728 138.688 247.546 138.773ZM327.137 133.149C328.383 134.664 328.838 136.795 328.319 138.687C328.191 139.154 328.004 139.612 327.705 139.993C326.923 140.992 325.477 141.288 324.242 140.992C323.007 140.696 321.949 139.91 321.007 139.059C320.035 138.182 319.124 137.182 318.657 135.959C318.191 134.736 318.246 133.248 319.073 132.234C319.754 131.398 320.856 130.997 321.932 130.918C323.888 130.775 325.891 131.633 327.137 133.149ZM153.59 136.671C154.082 137.069 154 137.894 153.579 138.367C153.16 138.84 152.519 139.041 151.906 139.194C151.181 139.375 150.419 139.516 149.693 139.344C148.966 139.171 148.285 138.607 148.196 137.866C148.066 136.791 149.191 135.949 150.262 135.78C151.43 135.596 152.67 135.928 153.59 136.671ZM321.437 133.506C320.892 134.211 321.25 135.486 322.134 135.607C323.155 135.746 323.95 136.819 323.786 137.836C323.656 138.635 324.63 139.302 325.403 139.063C326.176 138.823 326.623 137.956 326.606 137.148C326.589 136.339 326.203 135.584 325.765 134.904C325.283 134.154 324.692 133.425 323.878 133.06C323.064 132.695 321.983 132.799 321.437 133.506ZM318.718 60.9817C311.296 62.3411 303.944 65.5829 299.157 71.4154C294.37 77.2472 292.715 85.976 296.457 92.5277C297.779 94.8432 299.799 96.8625 302.337 97.6775C304.876 98.4925 307.946 97.8927 309.64 95.8329C311.561 93.4972 315.44 95.7378 318.332 94.8513C322.332 93.6247 326.489 92.913 330.669 92.7389C331.66 92.6978 332.682 92.6917 333.607 93.0506C334.611 93.4399 335.405 94.2205 336.168 94.9802C338.813 97.6161 341.513 100.329 343.08 103.719C345.564 109.096 344.949 115.652 348.087 120.676C348.453 117.525 348.82 114.375 349.187 111.225C349.323 110.056 349.475 108.843 350.106 107.85C350.739 106.857 352.002 106.161 353.107 106.562C355.058 107.271 357.09 108.032 358.49 109.564C359.89 111.097 360.409 113.651 359.063 115.231C357.761 116.758 359.237 118.965 359.928 120.848C361.125 124.111 359.718 127.839 360.658 131.185C361.437 133.956 363.689 136.025 365.84 137.938C366.469 138.498 367.202 139.095 368.041 139.018C368.743 138.954 369.307 138.431 369.786 137.914C372.645 134.833 374.603 130.926 375.36 126.791C375.665 125.124 375.085 122.693 373.405 122.921C373.864 118.919 377.543 116.192 379.704 112.792C382.034 109.125 382.584 104.616 382.691 100.272C382.798 95.9071 382.372 91.1629 379.463 87.9063C375.968 83.9939 369.177 83.7011 365.358 87.2991C364.406 88.1957 363.152 89.3811 362.016 88.7321C362.906 87.1358 363.796 85.5389 364.686 83.9426C366.136 81.3404 367.617 78.6445 367.912 75.6806C368.494 69.832 364.042 64.295 358.536 62.2379C353.031 60.1815 346.815 61.0343 341.293 63.0455C339.909 63.5501 338.273 64.633 338.649 66.0572C338.866 66.8823 339.702 67.3802 340.13 68.1176C340.397 68.5778 340.371 68.7248 340.069 69.0966C339.886 69.3219 339.557 69.9723 339.262 69.8454C336.131 66.2191 332.745 62.4228 328.155 61.0518C325.112 60.1424 321.842 60.4096 318.718 60.9817ZM283.159 135.766C282.767 135.535 282.018 135.383 282.091 135.831C282.303 136.93 283.292 137.747 284.359 138.083C285.425 138.419 286.571 138.362 287.688 138.302C288.125 138.278 288.591 138.245 288.938 137.979C289.23 137.756 289.39 137.407 289.538 137.071C289.793 136.496 290.047 135.922 290.301 135.347C288.225 133.996 285.29 137.029 283.159 135.766ZM223.214 132.015C224.087 132.08 224.953 132.233 225.796 132.469C226.527 132.674 227.366 133.102 227.402 133.859C227.45 134.856 226.153 135.264 225.157 135.35C224.145 135.437 223.132 135.525 222.119 135.613C221.382 135.676 220.547 135.709 220.005 135.204C219.276 134.528 219.571 133.214 220.359 132.609C221.148 132.003 222.222 131.94 223.214 132.015ZM246.895 131.798C251.737 132.446 256.646 132.602 261.521 132.264C262.093 132.224 262.715 132.191 263.186 132.517C263.657 132.844 263.774 133.687 263.261 133.941C263.105 134.018 262.925 134.026 262.751 134.033C256.858 134.255 250.965 134.477 245.072 134.7C244.535 134.72 243.944 134.723 243.53 134.379C242.791 133.763 243.215 132.446 244.063 131.99C244.912 131.536 245.941 131.671 246.895 131.798ZM293.917 126.998C292.035 127.1 290.121 127.274 288.384 128.004C286.647 128.733 285.088 130.106 284.569 131.917C284.464 132.285 284.425 132.737 284.707 132.996C284.927 133.197 285.257 133.199 285.555 133.188C288.68 133.065 291.792 132.6 294.817 131.803C296.32 131.407 298.133 130.451 297.93 128.909C297.822 128.098 297.122 127.463 296.349 127.194C295.576 126.926 294.734 126.954 293.917 126.998ZM76.8664 126.771C76.5668 128.359 76.4933 129.989 76.6498 131.598C77.0384 132.017 77.5498 131.198 77.5168 130.627C77.4419 129.323 77.2233 128.027 76.8664 126.771ZM177.502 124.829C188.335 125.319 199.168 125.808 210.001 126.298C211.012 126.344 212.356 126.731 212.296 127.741C211.003 128.572 209.335 128.4 207.809 128.222C198.152 127.097 188.383 126.942 178.695 127.759C177.859 127.83 176.97 127.898 176.224 127.514C175.477 127.131 174.996 126.108 175.48 125.422C175.905 124.823 176.768 124.796 177.502 124.829ZM151.232 123.693C151.709 123.765 152.206 123.89 152.552 124.225C153.343 124.992 152.855 126.45 151.903 127.006C150.951 127.561 149.772 127.484 148.673 127.388C147.468 127.285 147.078 125.476 147.869 124.562C148.66 123.647 150.037 123.512 151.232 123.693ZM189.334 119.686C206.99 120.602 224.645 121.518 242.301 122.434C243.247 122.483 244.498 122.847 244.448 123.792C241.537 124.317 238.522 124.259 235.633 123.622L238.198 125.829C236.976 126.6 235.672 127.397 234.227 127.428C232.782 127.461 231.208 126.395 231.249 124.95C231.98 124.612 232.712 124.275 233.443 123.937C219.181 122.715 204.851 122.269 190.541 122.602C189.715 122.621 188.833 122.629 188.136 122.186C187.439 121.744 187.086 120.667 187.664 120.076C188.076 119.654 188.744 119.655 189.334 119.686ZM303.657 122.047C303.021 122.082 302.481 122.505 301.988 122.908C301.403 123.386 300.819 123.865 300.234 124.343C299.622 124.844 298.959 125.442 298.923 126.232C298.903 126.661 299.23 127.171 299.648 127.074C299.765 127.047 299.866 126.976 299.964 126.907C301.356 125.925 302.749 124.943 304.141 123.961C304.425 123.761 304.729 123.533 304.821 123.199C304.989 122.584 304.293 122.012 303.657 122.047ZM325.314 116.903C325.37 118.335 324.659 119.677 324.406 121.088C324.153 122.498 324.635 124.295 326.03 124.625C326.441 124.723 326.561 125.311 326.328 125.665C326.096 126.018 325.657 126.17 325.241 126.246C323.949 126.48 322.419 126.065 321.825 124.894C321.527 124.308 321.505 123.626 321.488 122.969C321.443 121.208 321.397 119.449 321.352 117.689C321.321 116.487 321.456 115.005 322.557 114.519C323.869 113.941 325.259 115.47 325.314 116.903ZM306.109 124.885C305.855 125.004 305.682 125.279 305.684 125.56L305.621 125.577C305.762 125.89 306.271 125.939 306.469 125.659C306.668 125.377 306.453 124.914 306.109 124.885ZM303.674 115.688C303.09 115.703 302.436 115.809 302.091 116.281C301.721 116.785 301.871 117.524 302.25 118.021C302.63 118.517 303.189 118.836 303.71 119.18C305.907 120.63 307.661 122.74 308.683 125.165C309.379 124.25 310.074 123.335 310.769 122.42C311.288 121.737 311.835 120.955 311.726 120.104C311.647 119.489 311.234 118.972 310.796 118.533C308.938 116.675 306.301 115.622 303.674 115.688ZM79.7513 101.532C78.9349 101.599 78.5112 102.516 78.2549 103.293C77.8635 104.479 77.4722 105.664 77.0816 106.85C76.6539 108.145 76.2234 109.454 76.1067 110.813C76.0285 111.713 76.0905 112.619 76.1519 113.521C76.3442 116.337 76.5358 119.153 76.7281 121.969C76.7652 122.513 77.1794 123.265 77.6294 122.957C77.4426 115.764 78.157 108.548 79.7513 101.532ZM310.702 111.886C309.961 112.169 309.174 112.665 309.066 113.451C308.959 114.237 310.116 114.966 310.565 114.311C311.138 113.477 312.569 113.913 313.042 114.807C313.516 115.702 313.377 116.778 313.37 117.791C313.363 118.803 313.595 119.964 314.478 120.46C314.626 119.106 314.774 117.752 314.922 116.397C315.105 114.726 315.094 112.653 313.624 111.835C312.745 111.345 311.643 111.528 310.702 111.886ZM334.503 111.121C335.706 111.175 336.99 111.594 337.648 112.602C338.306 113.611 337.957 115.263 336.797 115.588C335.143 116.051 333.596 113.72 331.978 114.299C330.967 114.661 330.342 116.084 329.287 115.879C328.633 115.753 328.271 114.969 328.401 114.316C328.531 113.662 329.019 113.139 329.541 112.725C330.933 111.623 332.729 111.042 334.503 111.121ZM150.279 109.93C151.439 110.118 152.574 111.387 151.963 112.391C151.791 112.672 151.512 112.872 151.22 113.025C150.497 113.406 149.605 113.536 148.858 113.204C148.111 112.872 147.586 112.01 147.788 111.219C148.042 110.224 149.266 109.766 150.279 109.93ZM336.389 103.328C337.187 104.087 337.809 105.516 336.915 106.159C335.97 106.841 334.838 105.69 333.933 104.956C332.923 104.136 331.554 103.774 330.27 103.987C329.449 104.124 328.675 104.481 327.851 104.6C327.027 104.72 326.069 104.531 325.619 103.83C325.148 103.095 325.447 102.055 326.096 101.47C326.745 100.886 327.646 100.671 328.516 100.592C331.368 100.331 334.313 101.354 336.389 103.328ZM150.239 101.002C150.951 101.42 151.335 102.404 150.939 103.128C150.415 104.085 149.042 104.072 147.984 103.809C147.602 103.714 147.201 103.589 146.949 103.288C146.346 102.569 147.022 101.443 147.863 101.028C148.603 100.662 149.527 100.585 150.239 101.002Z" fill="#070707"/>
<path fill-rule="evenodd" clip-rule="evenodd" d="M54.6597 197.227C54.7568 197.498 54.8465 197.8 54.7352 198.065C54.5355 198.54 53.8858 198.558 53.3704 198.554C49.7467 198.525 46.3775 201.638 46.1204 205.252C46.0934 205.634 45.5685 205.809 45.2285 205.632C44.8891 205.456 44.7144 205.074 44.597 204.709C43.9352 202.655 44.3615 200.352 45.4167 198.47C46.4726 196.587 48.1053 195.086 49.8796 193.857C50.5678 193.38 51.4253 192.922 52.2039 193.23C52.718 193.434 53.0539 193.924 53.3346 194.401C53.8622 195.3 54.3061 196.247 54.6597 197.227ZM52.5547 196.816C52.2356 195.84 50.9409 195.49 49.9741 195.835C49.0073 196.18 48.3023 197.001 47.6445 197.789C47.0204 198.537 46.368 199.352 46.2945 200.322C47.9616 198.556 50.1772 197.315 52.5547 196.816Z" fill="#D39CFF"/>
</svg>
