<svg xmlns="http://www.w3.org/2000/svg" width="56" height="56" viewBox="0 0 56 56" fill="none">
<circle cx="28" cy="28" r="26.5" stroke="#FAFAFA" stroke-width="3"/>
<path d="M28.0098 33.5844L32.2572 29.3369L30.7706 27.8503L29.0716 29.5493V25.0895H26.9479V29.5493L25.249 27.8503L23.7624 29.3369L28.0098 33.5844ZM20.5768 22.9658V34.6462H35.4428V22.9658H20.5768ZM20.5768 36.7699C19.9928 36.7699 19.4926 36.5618 19.0764 36.1456C18.6601 35.7293 18.4524 35.2295 18.4531 34.6462V21.3995C18.4531 21.1518 18.4931 20.9129 18.5731 20.6828C18.653 20.4527 18.7723 20.2404 18.9309 20.0457L20.2582 18.4263C20.4529 18.1786 20.6961 17.9882 20.9877 17.8551C21.2794 17.722 21.5848 17.6558 21.9041 17.6565H34.1155C34.434 17.6565 34.7395 17.723 35.0318 17.8561C35.3242 17.9892 35.5674 18.1793 35.7613 18.4263L37.0887 20.0457C37.2479 20.2404 37.3676 20.4527 37.4476 20.6828C37.5276 20.9129 37.5672 21.1518 37.5665 21.3995V34.6462C37.5665 35.2302 37.3584 35.7304 36.9421 36.1466C36.5259 36.5629 36.0261 36.7706 35.4428 36.7699H20.5768ZM21.0015 20.8421H35.018L34.1155 19.7802H21.9041L21.0015 20.8421Z" fill="#FAFAFA"/>
</svg>