<svg width="108" height="25" viewBox="0 0 108 25" fill="none" xmlns="http://www.w3.org/2000/svg">
<g id="Logo">
<g id="Underline">
<path id="Vector 1 (Stroke)" opacity="0.15" fill-rule="evenodd" clip-rule="evenodd" d="M70.0317 17.4463C71.2756 17.1286 72.8916 16.5717 74.7172 15.9426C75.4347 15.6953 76.1846 15.4369 76.957 15.1775C79.7337 14.2448 82.84 13.2843 85.9192 12.7165C92.1217 11.573 97.96 12.0618 100.913 17.2239C101.047 17.4582 101.346 17.5394 101.58 17.4054C101.814 17.2714 101.895 16.9728 101.761 16.7386C98.4671 10.9799 91.9969 10.6021 85.742 11.7553C82.5926 12.336 79.4331 13.3147 76.6458 14.2509C75.8454 14.5198 75.0788 14.7839 74.3527 15.0342C72.5308 15.662 70.9638 16.202 69.7578 16.5075L69.7241 16.516L69.6919 16.5293C62.1702 19.6231 57.1271 19.9868 53.1299 19.4134C51.1229 19.1255 49.3634 18.5991 47.6588 18.042C47.3632 17.9453 47.0684 17.8475 46.774 17.7497C45.3805 17.2872 43.9929 16.8265 42.5405 16.5041C33.1801 14.4263 29.4717 14.3854 26.6395 15.4856C25.5489 15.9093 24.5908 16.5042 23.5195 17.1695C23.2244 17.3527 22.9208 17.5412 22.6034 17.733C21.1175 18.6309 19.2507 19.655 16.3882 20.6815C7.35572 23.9203 2.30353 19.331 0.919485 16.7502C0.791921 16.5124 0.495687 16.423 0.257829 16.5505C0.0199699 16.6781 -0.0694415 16.9743 0.0581227 17.2122C1.64895 20.1785 7.18733 25.0191 16.7181 21.6015C19.6566 20.5478 21.5828 19.4918 23.1089 18.5696C23.4545 18.3608 23.7756 18.1615 24.0804 17.9724C25.1359 17.3176 25.9952 16.7845 26.9934 16.3967C29.5161 15.4168 32.9473 15.3759 42.3287 17.4583C43.7278 17.7689 45.059 18.2106 46.4507 18.6724C46.749 18.7714 47.05 18.8713 47.3551 18.971C49.074 19.5328 50.8983 20.0806 52.9911 20.3809C57.1875 20.9829 62.3991 20.5809 70.0317 17.4463Z" fill="#FAFAFA"/>
<path id="Vector 2 (Stroke)" opacity="0.15" fill-rule="evenodd" clip-rule="evenodd" d="M72.7138 18.5586C73.9577 18.2409 75.5737 17.684 77.3993 17.0549C78.1168 16.8076 78.8667 16.5492 79.6391 16.2898C82.4158 15.3571 85.5221 14.3966 88.6013 13.8288C94.8038 12.6853 100.642 13.1742 103.595 18.3362C103.729 18.5705 104.028 18.6517 104.262 18.5177C104.496 18.3837 104.578 18.0851 104.443 17.8509C101.149 12.0922 94.679 11.7144 88.4241 12.8676C85.2747 13.4483 82.1152 14.427 79.3279 15.3632C78.5275 15.6321 77.7609 15.8962 77.0348 16.1465C75.2129 16.7743 73.6459 17.3143 72.4399 17.6198L72.4062 17.6283L72.374 17.6416C64.8523 20.7354 59.8092 21.0991 55.812 20.5257C53.8051 20.2378 52.0455 19.7114 50.3409 19.1543C50.0453 19.0576 49.7506 18.9598 49.4561 18.862C48.0626 18.3995 46.675 17.9388 45.2226 17.6164C35.8622 15.5386 32.1538 15.4977 29.3216 16.5979C28.231 17.0216 27.2729 17.6165 26.2016 18.2818C25.9065 18.465 25.6029 18.6535 25.2855 18.8453C23.7996 19.7432 21.9328 20.7673 19.0703 21.7938C10.0378 25.0326 4.98564 20.4433 3.60159 17.8625C3.47403 17.6247 3.1778 17.5353 2.93994 17.6628C2.70208 17.7904 2.61267 18.0866 2.74023 18.3245C4.33106 21.2908 9.86944 26.1314 19.4002 22.7138C22.3387 21.6601 24.2649 20.6041 25.791 19.6819C26.1366 19.4731 26.4577 19.2738 26.7625 19.0847C27.818 18.4299 28.6773 17.8968 29.6755 17.509C32.1982 16.5291 35.6294 16.4882 45.0108 18.5706C46.4099 18.8812 47.7411 19.3229 49.1328 19.7847C49.4311 19.8837 49.7322 19.9836 50.0373 20.0833C51.7561 20.6451 53.5804 21.193 55.6732 21.4932C59.8697 22.0952 65.0812 21.6932 72.7138 18.5586Z" fill="#FAFAFA"/>
<path id="Vector 3 (Stroke)" opacity="0.15" fill-rule="evenodd" clip-rule="evenodd" d="M75.396 19.671C76.6399 19.3532 78.2559 18.7963 80.0815 18.1672C80.799 17.9199 81.5489 17.6615 82.3213 17.4021C85.098 16.4694 88.2043 15.5089 91.2835 14.9411C97.4859 13.7976 103.324 14.2865 106.277 19.4485C106.411 19.6828 106.71 19.7641 106.944 19.63C107.178 19.496 107.26 19.1974 107.126 18.9632C103.831 13.2045 97.3612 12.8267 91.1063 13.9799C87.9568 14.5606 84.7973 15.5393 82.0101 16.4755C81.2097 16.7444 80.4431 17.0085 79.7169 17.2588C77.8951 17.8866 76.328 18.4266 75.1221 18.7321L75.0884 18.7406L75.0562 18.7539C67.5344 21.8477 62.4913 22.2114 58.4941 21.638C56.4872 21.3501 54.7277 20.8238 53.0231 20.2666C52.7274 20.1699 52.4327 20.0721 52.1382 19.9744C50.7448 19.5118 49.3572 19.0511 47.9048 18.7287C38.5444 16.6509 34.8359 16.61 32.0038 17.7102C30.9132 18.1339 29.9551 18.7288 28.8837 19.3941C28.5887 19.5773 28.2851 19.7659 27.9677 19.9576C26.4818 20.8555 24.6149 21.8796 21.7525 22.9061C12.72 26.1449 7.6678 21.5556 6.28375 18.9749C6.15619 18.737 5.85995 18.6476 5.6221 18.7751C5.38424 18.9027 5.29483 19.1989 5.42239 19.4368C7.01322 22.4031 12.5516 27.2437 22.0824 23.8261C25.0209 22.7724 26.9471 21.7164 28.4732 20.7942C28.8187 20.5854 29.1399 20.3861 29.4447 20.197C30.5002 19.5422 31.3595 19.0091 32.3577 18.6213C34.8803 17.6414 38.3116 17.6005 47.6929 19.6829C49.0921 19.9935 50.4233 20.4352 51.815 20.897C52.1133 20.996 52.4143 21.0959 52.7194 21.1956C54.4382 21.7575 56.2625 22.3053 58.3553 22.6055C62.5518 23.2075 67.7633 22.8055 75.396 19.671Z" fill="#FAFAFA"/>
</g>
<g id="CURATER">
<path d="M17.1753 10.9471H10.1222C9.36113 10.9471 8.67303 10.8063 8.05791 10.5248C7.44279 10.2433 6.91107 9.85236 6.46277 9.35193C6.02488 8.85149 5.68605 8.27286 5.44625 7.61603C5.20646 6.94878 5.08656 6.23462 5.08656 5.47354C5.08656 4.72288 5.20646 4.01914 5.44625 3.36231C5.68605 2.69506 6.02488 2.11122 6.46277 1.61078C6.91107 1.09992 7.44279 0.70374 8.05791 0.422244C8.67303 0.140748 9.36113 0 10.1222 0H17.1753V1.56387H10.1222C9.40284 1.56387 8.7825 1.74111 8.26121 2.09558C7.75035 2.43963 7.35417 2.90879 7.07267 3.50306C6.79118 4.09733 6.65043 4.75416 6.65043 5.47354C6.65043 6.19291 6.79118 6.84974 7.07267 7.44401C7.35417 8.02785 7.75035 8.49701 8.26121 8.85149C8.7825 9.20597 9.40284 9.3832 10.1222 9.3832H17.1753V10.9471Z" fill="#FAFAFA"/>
<path d="M30.789 0L30.7733 5.47354C30.7733 6.23462 30.6326 6.94878 30.3511 7.61603C30.0696 8.27286 29.6786 8.85149 29.1782 9.35193C28.6777 9.85236 28.0939 10.2433 27.4266 10.5248C26.7698 10.8063 26.0661 10.9471 25.3154 10.9471H24.1582C23.4075 10.9471 22.6986 10.8063 22.0313 10.5248C21.3745 10.2433 20.7959 9.85236 20.2954 9.35193C19.795 8.84106 19.404 8.25722 19.1225 7.60039C18.841 6.93314 18.7003 6.22419 18.7003 5.47354V0H20.2641V5.47354C20.2641 6.19291 20.4362 6.84974 20.7802 7.44401C21.1347 8.02785 21.6091 8.49701 22.2033 8.85149C22.7976 9.20597 23.4492 9.3832 24.1582 9.3832H25.3154C26.0348 9.3832 26.6864 9.20597 27.2703 8.85149C27.8645 8.49701 28.3337 8.02785 28.6777 7.44401C29.0322 6.84974 29.2095 6.19291 29.2095 5.47354V0H30.789Z" fill="#FAFAFA"/>
<path d="M45.67 10.9471H43.5588L40.2747 7.81934H35.4736V6.27111H41.7603C42.1982 6.27111 42.5944 6.16685 42.9489 5.95833C43.3034 5.73939 43.5849 5.45268 43.7934 5.09821C44.0019 4.7333 44.1062 4.33713 44.1062 3.90967C44.1062 3.47179 44.0019 3.07561 43.7934 2.72113C43.5849 2.36665 43.3034 2.08516 42.9489 1.87664C42.5944 1.66813 42.1982 1.56387 41.7603 1.56387H34.5978V10.9471H33.034V0H41.7603C42.4797 0 43.1366 0.177238 43.7308 0.531715C44.3251 0.875766 44.7943 1.34493 45.1383 1.9392C45.4928 2.53346 45.67 3.19029 45.67 3.90967C45.67 4.55607 45.5241 5.15555 45.2321 5.70812C44.9506 6.26068 44.5597 6.71942 44.0592 7.08432C43.5692 7.4388 43.0114 7.66816 42.3859 7.77242L45.67 10.9471Z" fill="#FAFAFA"/>
<path d="M60.1131 10.9471H58.5492V7.81934H49.8072V6.25547H58.5492V1.56387H52.9349C52.226 1.56387 51.5744 1.74111 50.9801 2.09558C50.3858 2.43963 49.9114 2.90879 49.557 3.50306C49.2129 4.09733 49.0409 4.75416 49.0409 5.47354V10.9471H47.477V5.47354C47.477 4.72288 47.6178 4.01914 47.8993 3.36231C48.1808 2.69506 48.5717 2.11122 49.0722 1.61078C49.5726 1.09992 50.1512 0.70374 50.8081 0.422244C51.4753 0.140748 52.1843 0 52.9349 0H60.1131V10.9471Z" fill="#FAFAFA"/>
<path d="M68.681 10.9471H67.1171V1.56387H61.581V0H74.2171V1.56387H68.681V10.9471Z" fill="#FAFAFA"/>
<path d="M87.0115 10.9471H75.6891V0H87.0115V1.56387H77.2529V9.3832H87.0115V10.9471ZM85.6822 6.25547H78.0349V4.6916H85.6822V6.25547Z" fill="#FAFAFA"/>
<path d="M101.581 10.9471H99.4701L96.186 7.81934H91.3849V6.27111H97.6717C98.1095 6.27111 98.5057 6.16685 98.8602 5.95833C99.2147 5.73939 99.4962 5.45268 99.7047 5.09821C99.9132 4.7333 100.017 4.33713 100.017 3.90967C100.017 3.47179 99.9132 3.07561 99.7047 2.72113C99.4962 2.36665 99.2147 2.08516 98.8602 1.87664C98.5057 1.66813 98.1095 1.56387 97.6717 1.56387H90.5091V10.9471H88.9453V0H97.6717C98.391 0 99.0479 0.177238 99.6421 0.531715C100.236 0.875766 100.706 1.34493 101.05 1.9392C101.404 2.53346 101.581 3.19029 101.581 3.90967C101.581 4.55607 101.435 5.15555 101.143 5.70812C100.862 6.26068 100.471 6.71942 99.9705 7.08432C99.4805 7.4388 98.9227 7.66816 98.2972 7.77242L101.581 10.9471Z" fill="#FAFAFA"/>
</g>
</g>
</svg>
