<svg width="32" height="33" viewBox="0 0 32 33" fill="none" xmlns="http://www.w3.org/2000/svg">
<g id="jam:menu">
<path id="Vector" d="M8 9.57715H14.6667C15.0203 9.57715 15.3594 9.71762 15.6095 9.96767C15.8595 10.2177 16 10.5569 16 10.9105C16 11.2641 15.8595 11.6032 15.6095 11.8533C15.3594 12.1033 15.0203 12.2438 14.6667 12.2438H8C7.64638 12.2438 7.30724 12.1033 7.05719 11.8533C6.80714 11.6032 6.66666 11.2641 6.66666 10.9105C6.66666 10.5569 6.80714 10.2177 7.05719 9.96767C7.30724 9.71762 7.64638 9.57715 8 9.57715ZM17.3333 20.2438H24C24.3536 20.2438 24.6928 20.3843 24.9428 20.6343C25.1929 20.8844 25.3333 21.2235 25.3333 21.5771C25.3333 21.9308 25.1929 22.2699 24.9428 22.52C24.6928 22.77 24.3536 22.9105 24 22.9105H17.3333C16.9797 22.9105 16.6406 22.77 16.3905 22.52C16.1405 22.2699 16 21.9308 16 21.5771C16 21.2235 16.1405 20.8844 16.3905 20.6343C16.6406 20.3843 16.9797 20.2438 17.3333 20.2438ZM8 14.9105H24C24.3536 14.9105 24.6928 15.051 24.9428 15.301C25.1929 15.5511 25.3333 15.8902 25.3333 16.2438C25.3333 16.5974 25.1929 16.9366 24.9428 17.1866C24.6928 17.4367 24.3536 17.5771 24 17.5771H8C7.64638 17.5771 7.30724 17.4367 7.05719 17.1866C6.80714 16.9366 6.66666 16.5974 6.66666 16.2438C6.66666 15.8902 6.80714 15.5511 7.05719 15.301C7.30724 15.051 7.64638 14.9105 8 14.9105Z" fill="#D39CFF"/>
</g>
</svg>
