<svg width="17" height="17" viewBox="0 0 17 17" fill="none" xmlns="http://www.w3.org/2000/svg">
<g clip-path="url(#clip0_66_372)">
<rect width="16.1542" height="16.1542" transform="translate(0.410168 0.0678711)" fill="#FAFAFA"/>
<path d="M6.57097 3.70796C7.42378 2.17869 7.84985 1.41406 8.48727 1.41406C9.12468 1.41406 9.55075 2.17869 10.4036 3.70796L10.6243 4.10374C10.8666 4.53855 10.9878 4.75596 11.1763 4.89933C11.3647 5.0427 11.6003 5.09587 12.0715 5.20222L12.4996 5.29915C14.1554 5.67406 14.9826 5.86118 15.1798 6.49456C15.3764 7.12727 14.8123 7.78757 13.6835 9.1075L13.3914 9.44876C13.071 9.82367 12.9102 10.0115 12.8381 10.243C12.7661 10.4752 12.7903 10.7256 12.8388 11.2257L12.8832 11.6814C13.0535 13.4429 13.139 14.3233 12.6234 14.7144C12.1078 15.1061 11.3324 14.7487 9.78297 14.0352L9.38113 13.8508C8.94093 13.6475 8.72083 13.5465 8.48727 13.5465C8.2537 13.5465 8.0336 13.6475 7.59273 13.8508L7.19224 14.0352C5.64211 14.7487 4.86671 15.1054 4.35179 14.715C3.83553 14.3233 3.92101 13.4429 4.0913 11.6814L4.13573 11.2264C4.18419 10.7256 4.20842 10.4752 4.13573 10.2437C4.06438 10.0115 3.90351 9.82367 3.58312 9.44943L3.291 9.1075C2.16222 7.78824 1.59817 7.12794 1.79472 6.49456C1.99193 5.86118 2.81983 5.67339 4.47564 5.29915L4.90373 5.20222C5.37422 5.09587 5.60913 5.0427 5.79827 4.89933C5.98673 4.75596 6.10789 4.53855 6.3502 4.10374L6.57097 3.70796Z" fill="#D39CFF" stroke="#414141" stroke-width="1.5"/>
</g>
<defs>
<clipPath id="clip0_66_372">
<rect width="16.1542" height="16.1542" fill="white" transform="translate(0.410168 0.0678711)"/>
</clipPath>
</defs>
</svg>
