<svg width="22" height="23" viewBox="0 0 22 23" fill="none" xmlns="http://www.w3.org/2000/svg">
<g id="solar:star-line-duotone">
<path id="Vector" d="M8.39026 5.18275C9.55168 3.00541 10.1319 1.91675 11 1.91675C11.8681 1.91675 12.4483 3.00541 13.6098 5.18275L13.9104 5.74625C14.2404 6.36533 14.4054 6.67487 14.6621 6.879C14.9188 7.08312 15.2396 7.15883 15.8813 7.31025L16.4643 7.44825C18.7193 7.98204 19.8458 8.24846 20.1144 9.15025C20.3821 10.0511 19.6139 10.9912 18.0767 12.8705L17.6788 13.3564C17.2425 13.8902 17.0234 14.1575 16.9253 14.4872C16.8273 14.8178 16.8603 15.1743 16.9263 15.8864L16.9868 16.5352C17.2187 19.0431 17.3351 20.2966 16.6329 20.8534C15.9308 21.4112 14.8748 20.9023 12.7646 19.8865L12.2173 19.6239C11.6178 19.3345 11.3181 19.1907 11 19.1907C10.6819 19.1907 10.3822 19.3345 9.78176 19.6239L9.23635 19.8865C7.12526 20.9023 6.06926 21.4102 5.36801 20.8544C4.66493 20.2966 4.78135 19.0431 5.01326 16.5352L5.07376 15.8873C5.13976 15.1743 5.17276 14.8178 5.07376 14.4882C4.9766 14.1575 4.75751 13.8902 4.32118 13.3573L3.92335 12.8705C2.3861 10.9922 1.61793 10.052 1.8856 9.15025C2.15418 8.24846 3.28168 7.98108 5.53668 7.44825L6.11968 7.31025C6.76043 7.15883 7.08035 7.08312 7.33793 6.879C7.5946 6.67487 7.7596 6.36533 8.0896 5.74625L8.39026 5.18275Z" stroke="#4E157A" stroke-width="1.5"/>
</g>
</svg>
