<svg xmlns="http://www.w3.org/2000/svg" width="324" height="282" viewBox="0 0 324 282" fill="none">
<path fill-rule="evenodd" clip-rule="evenodd" d="M192.816 281.996C234.611 281.996 271.289 250.795 250.691 208.415C230.092 166.035 306.628 167.404 329.11 138.114C356.528 102.394 348.588 -49.234 172.575 43.2056C144.381 58.0133 71.9697 27.9716 47.9505 42.8778C19.6774 60.4237 -20.1008 96.3522 19.6774 133.155C39.2717 151.284 -30.9776 198.337 -0.209861 240.485C29.8115 281.611 50.8565 242.406 96.5635 250.795C142.271 259.183 161.775 281.996 192.816 281.996Z" fill="#D39CFF"/>
<path d="M144.305 208.268C144.305 208.268 153.928 203.725 157.521 200.564C161.114 197.403 165.581 189.551 165.581 189.551C165.581 189.551 214.643 225.111 246.634 220.038C254.004 218.87 268.366 213.953 269.282 205.289C271.783 181.632 237.181 175.587 244.739 163.591C249.353 156.268 263.685 167.166 263.685 167.166L323.132 196.512C323.132 196.512 302.595 247.319 252.756 249.354C191.448 251.859 144.305 208.268 144.305 208.268Z" fill="#F0F0F0"/>
<path fill-rule="evenodd" clip-rule="evenodd" d="M97.1734 9.29826C96.6154 9.07819 93.6188 5.39609 89.8149 4.72604C88.0866 4.42142 89.655 6.63021 87.7531 6.65048C82.087 6.70955 72.879 5.64106 71.1733 6.65048C69.9055 7.39814 72.6973 10.0094 71.1733 10.1293C56.792 11.2609 34.8526 25.6714 30.0931 32.6626C28.5778 34.8876 40.8297 31.1129 38.8775 32.2126C36.6865 33.4473 34.2565 41.5314 32.8041 47.7744C31.7983 52.0738 31.1647 57.6068 30.9413 63.6263C30.755 68.8228 30.8294 69.6828 31.5744 72.524C32.4313 75.7017 33.1018 76.6364 34.2565 76.1876C34.6668 76.0381 34.8526 75.4775 34.8526 74.4305C34.8526 73.6081 35.2998 71.1404 35.8584 68.9345L36.8273 64.9721L37.237 66.6169C37.7586 68.5234 40.8129 74.4305 43.5695 78.7299C43.7184 78.9581 44.3578 78.668 44.9348 77.2688C45.4605 75.9935 45.247 73.9567 46.1403 71.7734C48.1738 66.8005 52.1676 60.3351 56.792 55.1594C63.6266 47.5109 65.8938 38.6583 72.3003 31.5524C84.2567 18.2915 99.2618 10.1212 97.1734 9.29826Z" fill="#F0F0F0"/>
<path fill-rule="evenodd" clip-rule="evenodd" d="M39.0476 34.0166C37.1295 35.5646 34.2824 48.1189 34.2339 48.3286C33.2281 52.628 32.2586 67.5579 33.2494 70.3847C34.2408 73.2114 37.0153 63.0222 37.0153 63.0222C37.0153 63.0222 41.2098 73.9527 44.9162 76.9497C45.0743 77.0776 40.511 63.4259 39.0476 55.4565C37.1157 44.9366 40.1388 33.1357 39.0476 34.0166Z" fill="#F0F0F0"/>
<path fill-rule="evenodd" clip-rule="evenodd" d="M110.532 253.891C114.108 253.105 120.142 250.371 122.453 249.437C124.763 248.501 131.803 238.525 134.336 227.272C136.161 218.972 137.093 207.159 136.049 205.177C135.895 204.896 135.332 199.524 136.832 201.278C140.166 205.177 144.124 211.298 156.612 200.329C160.014 197.342 164.522 193.486 163.335 190.078C160.014 180.541 145.616 161.337 143.422 159.882C140.797 158.142 127.534 159.621 107.795 153.773C85.4086 147.142 76.0875 127.616 67.3273 130.158C60.2429 132.214 43.2689 144.846 39.0092 152.845C18.8978 190.611 43.2689 217.074 48.819 224.674L54.2081 227.01L54.3945 231.833L54.6547 234.861C55.1394 240.656 55.3252 241.179 57.9329 243.124C64.4519 248.096 77.3039 252.731 88.9263 254.377C94.3281 255.124 106.062 254.862 110.532 253.891Z" fill="#F0F0F0"/>
<path fill-rule="evenodd" clip-rule="evenodd" d="M56.3269 230.068L56.5878 233.095C57.0725 238.891 57.2583 239.414 59.866 241.358C63.712 244.291 69.7618 247.107 76.4625 249.262C81.1205 250.759 86.0935 251.936 90.8594 252.611C96.2611 253.358 107.995 253.097 112.465 252.125C114.675 251.644 96.5 237.314 85.7929 241.358C77.5705 244.463 58.1908 220.777 66.0704 214.589C74.9097 207.647 58.7125 180.268 58.1908 174.324C57.6692 168.38 55.6154 166.96 55.5554 167.169C55.4954 167.377 55.4954 168.088 55.6564 169.802C56.3518 177.187 56.3269 230.068 56.3269 230.068Z" fill="#F0F0F0"/>
<path fill-rule="evenodd" clip-rule="evenodd" d="M54.3883 172.628C55.1702 172.475 55.9272 172.988 56.0796 173.773C58.891 188.269 70.7834 198.082 92.0483 203.215C113.44 208.377 128.011 208.098 135.688 202.588C136.336 202.123 135.853 206.106 135.378 206.412C130.371 209.634 113.347 214.443 93.0298 210.097C67.0528 204.54 54.8557 182.619 53.2474 174.326C53.0957 173.541 53.6058 172.781 54.3883 172.628Z" fill="#4E157A"/>
<path fill-rule="evenodd" clip-rule="evenodd" d="M43.5554 146.472C44.2473 146.075 70.0478 175.751 105.456 182.469C140.863 189.186 149.436 184.914 150.814 175.751C150.933 174.961 151.668 174.416 152.456 174.536C153.244 174.655 153.786 175.393 153.667 176.183C151.921 187.796 135.537 190.558 104.97 185.323C74.7877 180.154 54.0946 167.873 43.0199 148.448C42.624 147.754 42.8641 146.869 43.5554 146.472Z" fill="#4E157A"/>
<path fill-rule="evenodd" clip-rule="evenodd" d="M192.167 144.828C191.198 144.491 190.155 143.743 189.485 142.883L188.367 141.5L192.316 137.575C198.388 131.593 203.044 125.462 207.068 118.171C208.409 115.741 211.798 107.628 211.798 106.844C211.798 106.582 212.209 105.535 212.693 104.451C213.438 102.881 213.996 102.282 215.598 101.385C217.498 100.264 219.659 99.8901 220.59 100.525C222.378 101.722 222.378 105.498 220.59 112.003C218.616 119.143 215.971 124.265 210.495 131.63C209.638 132.752 208.036 134.957 206.881 136.49C203.789 140.603 201.778 142.584 199.059 144.117C196.377 145.612 194.812 145.799 192.167 144.828ZM218.913 141.463L221.595 142.659C222.152 142.916 228.287 145.875 235.657 149.429C247.539 155.159 262.629 162.436 262.721 162.436C262.871 162.436 263.569 160.814 263.727 158.922C264.1 154.847 265.478 149.313 267.08 145.463C267.825 143.743 268.421 141.594 268.421 141.407C268.421 141.322 267.815 141.077 266.824 140.675C265.643 140.197 263.917 139.498 262.014 138.584C252.626 134.06 234.261 124.826 231.989 123.443C229.754 122.134 229.307 122.022 229.307 122.882C229.307 124.004 227.034 129.2 225.283 132.004C224.353 133.537 222.527 136.303 221.223 138.135L218.913 141.463ZM262.088 155.706C263.156 156.328 261.306 157.239 260.859 157.389C258.227 157.614 255.128 157.117 252.589 155.632C251.262 154.687 240.808 148.859 233.874 144.993C230.705 143.226 228.27 141.868 227.78 141.575C226.215 140.64 224.725 139.631 224.464 139.332C223.682 138.322 224.427 137.874 226.624 138.06C227.946 138.173 259.781 154.365 262.088 155.706ZM110.66 253.583C113.534 252.951 117.995 251.062 120.835 249.859C121.53 249.565 122.127 249.312 122.581 249.129C124.892 248.193 131.931 238.217 134.464 226.964C136.289 218.664 137.221 206.85 136.178 204.869C135.549 203.721 139.285 207.571 142.068 210.438C142.911 211.307 143.667 212.086 144.187 212.608C160.429 228.796 184.605 241.806 209.712 247.9C222.229 250.966 231.132 252.05 243.09 252.05C263.168 252.05 279 248.087 293.379 239.376C294.063 238.962 294.702 238.582 295.312 238.219C300.325 235.241 303.311 233.467 311.484 224.235C320.651 213.879 328.806 189.84 331.525 181.54C332.717 177.801 335.623 162.932 335.623 159.221C335.623 154.828 334.095 152.753 332.009 150.622C328.321 146.996 323.329 145.688 319.195 147.258L317.258 148.005L316.662 146.024C315.805 143.033 314.017 140.64 311.26 138.846C307.163 136.116 306.567 135.93 302.879 135.93C300.01 135.93 299.228 136.079 297.402 136.939L295.279 137.911L294.832 136.565C293.975 133.799 291.102 129.942 288.872 128.826C286.894 127.837 283.471 127.746 281.086 128.191C275.871 129.163 272.146 131.593 270.619 134.995C270.171 136.042 269.613 136.865 269.39 136.865C269.203 136.865 261.865 134.807 253.11 130.919C251.634 130.261 250.247 129.644 248.944 129.065C233.224 122.072 229.817 120.556 230.127 118.657C230.387 117.05 230.312 116.153 229.866 114.769C229.083 112.451 228.189 111.816 225.656 111.816C223.645 111.816 223.645 111.816 223.868 110.807C225.06 105.087 225.023 101.797 223.756 99.703C222.9 98.3195 221.894 97.7589 219.584 97.4224C218.243 97.2354 217.61 97.3477 216.12 98.1701C215.114 98.6936 214.257 99.0672 214.183 98.9924C214.108 98.9177 214.369 96.8618 214.779 94.4312C217.833 76.4487 215.473 60.9553 207.688 44.5058C207.613 44.3482 207.527 44.1623 207.428 43.9492C205.061 38.8494 195.544 18.3431 168.326 7.99578C167.094 7.52726 165.929 7.07439 164.808 6.63946C155.536 3.03786 149.373 0.643167 134.502 0.66807C117.833 0.695868 112.188 3.06103 101.198 8.10813C99.6716 8.81814 98.3306 9.22933 98.2186 9.07991C98.1067 8.89285 97.3992 8.4446 96.6912 8.07048C95.9837 7.69695 94.4562 6.76223 93.3385 6.01458C90.1347 3.84574 88.1606 2.94867 87.1548 3.1728C86.0001 3.47221 86.0001 4.44398 87.1548 4.89281C87.639 5.07987 88.1981 5.71517 88.4215 6.35106C88.9056 7.69695 89.4642 7.84637 89.7994 6.7246C89.9489 6.31342 90.1722 6.01459 90.2842 6.08929C90.3263 6.11014 90.4682 6.17732 90.6846 6.27867C91.2294 6.53464 92.2456 7.01242 93.3385 7.54696C94.8659 8.29461 96.5423 9.07991 96.9895 9.26697C97.8089 9.5658 97.5481 9.7905 94.009 11.884C80.1887 20.0341 68.9391 32.7078 62.6435 47.1385C61.6746 49.3067 60.8183 50.6526 59.9238 51.4009C57.6514 53.3074 53.1816 58.728 52.1383 60.8592C51.5797 62.018 50.3875 63.8127 49.4561 64.8592C48.5623 65.9063 47.5934 67.2522 47.2582 67.8128C46.9604 68.411 46.6626 68.8222 46.5507 68.7475C46.4762 68.6351 46.5876 66.8033 46.8484 64.6727C47.4076 59.7003 47.4076 58.3915 46.9604 58.2797C46.2899 58.0927 45.3216 60.7098 44.9113 63.9622C44.6135 65.9433 44.5391 68.9345 44.7255 71.9999L44.9488 76.8605L42.3042 72.5611C41.3947 71.1231 40.4992 69.6857 39.8627 68.6647V68.6641L39.8621 68.6635L39.8609 68.6612L39.8598 68.66V68.6595L39.8592 68.6589L39.8581 68.6571C39.4547 68.0091 39.1558 67.5302 39.0259 67.3269C38.0571 65.9063 37.4985 63.7751 37.9082 63.0651C38.1315 62.6539 38.0946 62.4668 37.7218 62.4668C36.9399 62.4668 35.4125 64.9716 34.4067 67.8504C33.9225 69.1963 33.4378 70.3175 33.2889 70.3175C32.7303 70.3175 32.9912 56.9338 33.5872 52.6344C34.8164 44.1479 38.0571 33.6795 39.5101 33.6795C39.8079 33.6795 40.0687 33.5301 40.0687 33.306C40.0687 32.633 39.1004 32.8948 38.3179 33.7548C36.5671 35.6613 34.2578 41.5308 32.8048 47.7744C31.799 52.0738 31.1659 57.6068 30.942 63.6257C30.7562 68.8222 30.8307 69.6822 31.5757 72.5234C32.4326 75.7011 33.1031 76.6358 34.2578 76.1875C34.6675 76.0376 34.8539 75.477 34.8539 74.4299C34.8539 73.6075 35.3005 71.1404 35.8597 68.9345L36.828 64.9716L37.2377 66.6163C37.7593 68.5234 40.8136 74.4305 43.5702 78.7293C45.4704 81.6458 45.5074 81.8323 46.141 86.3935C46.4762 88.9729 47.519 95.2478 49.9403 104.9C52.08 113.428 64.1069 121.887 67.1104 124L67.1121 124.001C67.5068 124.278 67.7452 124.446 67.7838 124.49C68.1566 124.901 68.6783 125.125 68.976 125.013C69.3113 124.901 69.4977 125.05 69.4977 125.462C69.4977 125.836 69.7585 126.322 70.0562 126.546C70.429 126.807 70.6899 127.817 70.7643 129.574C70.9507 133.088 73.5578 139.818 75.5694 142.023C76.8735 143.444 79.5926 144.042 82.61 143.519C84.5846 143.22 85.1432 142.996 84.9568 142.547C84.8455 142.248 85.5529 142.622 86.5218 143.369C97.8458 152.043 109.319 157.239 122.208 159.482C127.2 160.342 135.47 160.828 139.977 160.492C143.964 160.231 143.964 160.231 143.777 161.015C143.516 162.062 143.852 162.698 149.327 172.007C153.686 179.372 154.059 179.858 158.901 184.83C169.183 195.485 180.395 203.747 193.098 210.14C205.056 216.122 224.147 221.094 241.6 222.665C259.052 224.235 271.587 208.159 271.55 204.046C271.476 198.401 270.693 194.7 268.793 191.111C266.931 187.634 265.702 186.438 260.114 182.699C253.893 178.55 250.056 175.147 247.523 171.521C245.921 169.24 245.325 166.661 245.325 165.277C245.325 164.38 246.48 162.361 248.193 161.95C249.758 161.539 250.056 161.576 251.807 162.436C252.85 162.922 255.569 164.193 257.804 165.277C260.077 166.324 262.275 167.371 262.721 167.595C264.039 167.963 264.597 170.552 264.898 171.955C264.966 172.268 265.021 172.523 265.068 172.68C265.59 174.624 268.058 177.134 269.65 177.988C272.446 179.49 279.336 179.69 281.236 177.634C281.721 177.11 283.326 176.466 283.657 176.662C283.988 176.857 285.184 178.474 285.184 179.783C285.222 182.026 286.376 184.083 288.834 186.138C293.491 190.027 297.105 190.961 300.755 189.241C302.655 188.344 304.212 187.994 304.212 187.994C304.212 187.994 305.765 189.983 305.859 190.662C306.59 195.974 314.426 198.201 316.513 198.425C316.99 198.473 317.921 198.268 318.866 198.059C320.13 197.781 321.419 197.496 321.691 197.803C322.223 198.406 312.787 214.066 311.484 216.047C299.079 234.74 274.94 246.18 245.399 247.377C226.215 248.161 202.635 242.778 182.183 232.983C169.108 226.665 157.523 218.926 145.118 208.084C142.958 206.215 140.462 204.084 139.568 203.336C138.674 202.626 136.55 200.196 134.911 197.953C132.155 194.214 130.59 192.868 130.59 194.139C130.59 194.7 132.378 198.139 134.427 201.542C135.247 202.887 135.768 203.822 135.582 203.673C135.396 203.523 134.8 206.215 134.241 209.654C132.415 220.683 129.398 231.562 126.343 238.329C124.667 241.993 121.453 244.729 120.484 245.477C116.908 248.206 111.555 249.433 104.141 250.18C94.754 251.115 80.9336 249.021 70.3915 245.058C67.598 244.012 60.408 240.984 59.9238 240.647C59.895 240.618 59.7299 239.542 59.4997 238.041C59.4345 237.618 59.3647 237.161 59.2908 236.684C57.9497 227.45 56.087 191.896 56.087 175.446C56.087 168.642 56.0126 167.147 55.5654 167.147C54.634 167.147 54.2618 168.044 53.8521 171.259C52.9207 178.587 53.1071 216.832 54.1129 224.87L54.3362 226.702L53.0696 225.992C51.1325 224.87 43.7566 217.356 41.1864 213.879C39.0104 210.906 37.7172 207.099 36.7495 204.251C36.5244 203.589 36.3173 202.978 36.1199 202.442C30.7187 187.413 32.6184 170.549 40.0687 155.37C46.4018 142.435 54.1874 135.257 65.5864 131.78C67.4486 131.219 69.088 130.621 69.2743 130.472C69.9818 129.799 65.437 130.135 62.9412 130.92C54.8204 133.425 46.3274 140.266 40.5534 149.015C32.4326 161.277 28.7816 179.372 31.3518 194.812C31.9479 198.476 34.3692 206.402 35.0397 206.962C35.0991 207.022 35.4055 207.667 35.8689 208.643C37.1505 211.34 39.6318 216.565 41.4097 218.926C43.5702 221.879 50.0897 228.309 52.8088 230.291L54.5226 231.525L54.7835 234.553C55.2676 240.348 55.454 240.871 58.0611 242.815C64.5806 247.788 77.4321 252.423 89.0545 254.068C94.4562 254.816 106.191 254.554 110.66 253.583ZM236.571 218.477C214.928 216.571 188.777 206.214 169.853 190.213C161.882 183.446 151.525 170.287 147.428 162.997C146.571 161.501 145.938 160.791 145.193 160.604C144.41 160.38 145.081 160.155 148.285 159.632C161.807 157.314 174.956 151.669 185.574 143.631L187.138 142.472L187.585 143.556C188.591 145.986 192.465 148.454 195.333 148.454C196.488 148.454 200.362 146.697 202.709 145.089L204.311 144.005L205.615 145.313C206.807 146.51 207.03 146.585 209.266 146.585C211.836 146.585 214.928 145.426 216.641 143.78L217.572 142.92L220.217 144.678C221.633 145.688 225.582 147.893 228.971 149.65C234.038 152.267 239.402 155.295 244.505 158.436L245.325 158.959L244.542 160.006C243.723 161.128 242.197 163.258 242.197 166.511C242.197 170.175 245.993 176.758 253.259 181.278C258.969 184.83 268.793 191.816 268.421 202.027C268.376 203.261 267.005 206.327 265.18 209.093C263.988 210.85 260.673 213.468 257.655 215.001C252.514 217.58 243.462 219.075 236.571 218.477ZM37.9457 50.6526C38.9515 50.8773 39.622 51.2138 39.4726 51.3632C38.9884 51.8491 36.4183 51.625 35.8222 51.0267C34.8908 50.1297 35.1141 49.4938 36.4183 49.232C37.0888 49.1202 38.0946 48.5591 38.6532 47.9985C39.2123 47.4379 39.6965 47.1761 39.6965 47.3632C39.6965 47.8491 37.8338 49.5685 36.9024 49.9426C36.3063 50.2044 36.4927 50.3161 37.9457 50.6526ZM52.7719 51.2509C53.8521 50.6526 53.6282 50.2414 52.3616 50.4285C51.0955 50.6156 51.0211 50.4661 51.8405 49.195C52.1758 48.7091 52.3616 47.9985 52.2871 47.6244C52.1758 47.1385 51.9149 47.3632 51.3189 48.5591C50.8716 49.4191 50.2386 50.1297 49.9403 50.1297C49.0095 50.1297 48.9345 50.8773 49.8289 51.2138C50.9836 51.6997 51.8774 51.6997 52.7719 51.2509ZM39.8829 30.8383C38.9884 30.9877 36.1949 32.1095 33.7361 33.3431C31.2404 34.5395 29.1168 35.549 28.968 35.5119C25.1681 35.1007 30.4579 28.7448 40.0687 22.24C49.2697 15.9964 55.4909 12.7064 61.2649 11.024C64.8784 9.97698 68.9391 9.82756 70.0938 10.6876C70.7268 11.1735 70.5035 11.2111 67.7469 11.2482C61.7865 11.2482 54.8948 14.3141 43.6822 21.8283C37.8713 25.7165 31.1284 31.2872 31.1284 32.1842C31.1284 32.3713 32.2087 31.9972 33.5497 31.3995C36.4183 30.0907 39.3612 29.4177 40.6648 29.7171C42.0434 30.0907 41.745 30.5766 39.8829 30.8383ZM54.2987 34.0536C57.8009 33.3431 57.9497 33.306 57.9497 32.9319C57.9497 32.7454 56.6087 32.5583 54.9323 32.4836L51.9149 32.3713L54.7084 29.1936C56.2359 27.4365 58.0242 25.6795 58.6572 25.2683C60.0358 24.3706 60.1102 23.7353 58.9925 23.3612L58.1361 23.0994L59.0669 22.763C59.5886 22.5765 60.5574 22.5012 61.228 22.6136C62.2338 22.763 62.4571 22.6883 62.3451 22.1647C62.2338 21.6418 61.8241 21.5294 59.9983 21.5671C54.6715 21.6418 52.3991 23.0624 56.5712 23.7353C57.7258 23.9224 58.6947 24.2212 58.6947 24.4083C58.6947 24.5577 58.5083 24.7071 58.285 24.7071C57.577 24.7071 51.5797 30.8013 50.8347 32.2966C49.68 34.5025 50.3131 34.8389 54.2987 34.0536ZM78.8851 19.5482C77.8049 19.6229 77.544 19.8094 77.6185 20.333L77.63 20.4094C77.6716 20.6856 77.6958 20.8449 77.6341 20.893C77.5504 20.9578 77.3109 20.8217 76.7477 20.5009L76.6496 20.4453C75.9422 20.0712 75.8677 19.8847 76.2774 19.5853C76.5383 19.3612 77.2457 19.0247 77.8049 18.9123L78.8476 18.6506L78.0657 17.8282C77.6554 17.3423 77.4321 16.8935 77.544 16.7441C77.8418 16.4453 81.4928 16.8564 82.0139 17.2676C82.2378 17.4541 82.573 17.417 82.7964 17.1929C83.318 16.6694 84.0255 17.0806 84.0255 17.9029C84.0255 18.3518 83.9141 18.3888 83.5788 18.0523C83.2805 17.7535 83.0197 17.7535 82.6844 18.0153C82.3867 18.277 82.1633 18.277 81.977 17.9776C81.865 17.7906 81.1575 17.6041 80.4126 17.6041C79.7247 17.6041 79.3998 17.6041 79.3335 17.7356C79.274 17.8531 79.4229 18.0767 79.7045 18.5012C80.2989 19.433 80.2637 19.4359 78.8978 19.5471L78.8851 19.5482ZM73.2225 9.60344C73.2225 9.11755 72.7759 8.25755 72.2167 7.69695L71.174 6.64988L76.7616 6.87401C79.8534 7.024 83.3549 7.36048 84.5846 7.69695C85.8138 7.99578 87.2293 8.21991 87.7509 8.21991C88.5334 8.21991 88.3839 8.07048 86.9315 7.28518C84.3983 5.97693 81.1575 5.34163 74.9364 4.89281C67.4861 4.36928 63.7237 5.07987 64.4312 6.94871C64.5431 7.32283 65.1392 7.50989 66.0331 7.50989C67.8583 7.50989 70.8387 8.59402 71.8445 9.60344C72.9248 10.6876 73.2225 10.6876 73.2225 9.60344ZM55.0437 108.601C58.0611 112.489 62.0474 116.9 63.9101 118.396C65.0273 119.293 65.9961 120.041 66.0706 120.041C66.1075 120.041 65.2881 118.321 64.2454 116.227C60.0358 107.815 57.577 99.4413 56.4223 89.7959C56.1615 87.6647 55.7518 85.87 55.3045 85.1223C54.4107 83.627 54.4107 81.6829 55.342 79.8511C55.8262 78.8793 56.087 77.6452 56.087 76.2993V74.2434L54.2987 76.1123C52.548 77.9446 50.8716 78.6923 50.8716 77.5705C50.8716 76.7481 53.6282 72.7852 55.0812 71.5516C56.2359 70.5793 56.3848 70.2428 56.7575 67.3269C57.0184 65.5698 57.6145 62.4668 58.0986 60.4104C58.6203 58.3544 58.918 56.5974 58.8436 56.5227C58.5828 56.2609 49.8289 66.3511 48.6367 69.5698C48.3747 70.277 47.6684 71.514 47.1093 72.2616L46.141 73.5097C46.141 73.5097 46.4416 75.2575 46.774 77.4535C47.1098 79.6727 47.2674 81.1982 47.4082 82.5568C47.5957 84.3741 47.7527 85.8931 48.2639 88.3753C48.86 91.4406 49.4561 94.0948 49.605 94.2818C49.717 94.5065 50.2011 96.226 50.6858 98.1325C51.7286 102.357 53.4793 106.544 55.0437 108.601ZM206.211 143.968L205.429 143.182C205.429 143.182 218.412 126.627 220.739 120.527C222.514 115.872 223.559 114.551 224.969 114.551C225.758 114.551 226.401 114.732 226.699 115.181C227.22 115.966 227.723 116.938 227.053 120.265C225.935 125.649 224.222 129.2 219.081 136.865C217.889 138.622 216.362 140.566 215.691 141.239C214.127 142.696 210.607 144.192 208.558 144.528C207.254 144.715 206.881 144.64 206.211 143.968Z" fill="#070707"/>
<path d="M309.36 180.541C313.995 167.869 313.293 165.169 312.489 164.905C312.489 164.905 310.719 165.914 309.937 168.045C308.485 172.045 303.512 182.513 301.649 184.383C299.451 186.588 299.451 186.588 297.216 186.588C294.981 186.588 288.535 183.21 287.657 179.88C286.253 174.552 292.299 156.044 292.448 154.998L291.442 154.287C290.771 154.923 282.05 181.467 270.582 174.55C269.268 173.758 266.483 170.027 266.26 168.045C265.019 162.288 270.714 142.155 271.683 138.02C272.55 134.319 277.063 130.884 282.614 130.884C291.144 130.884 289.998 138.367 293.819 141.004C295.512 142.173 298.296 140.054 299.153 139.893C303.959 138.996 305.8 140.041 309.323 142.847C312.042 145.013 314.054 149.3 316.269 150.81C317.499 151.649 318.805 150.502 319.232 150.287C320.985 149.404 324.745 150.062 325.788 150.81C327.317 151.479 331.065 155.094 331.656 157.197C334.339 166.726 325.868 187.851 322.669 191.814C317.375 198.374 304.726 193.214 309.36 180.541Z" fill="#F0F0F0"/>
<path fill-rule="evenodd" clip-rule="evenodd" d="M95.2016 145.817C105.408 152.285 115.933 156.509 127.928 157.668C137.39 158.566 150.148 157.331 159.311 154.341C167.022 151.836 177.453 144.897 184.419 139.028C197.941 127.662 206.472 109.91 210.197 91.0677C210.718 88.4129 211.514 81.7408 211.477 75.1237C211.477 67.4219 208.1 46.3763 197.867 34.2413C176.762 9.21252 142.07 -2.06194 112.914 7.57185C102.396 11.0466 91.198 17.3429 82.7419 25.5677C72.0879 35.9984 64.2279 50.205 61.0991 64.7104C57.8209 80.0387 62.0853 98.3577 69.498 113.387C75.4209 125.35 85.1811 139.424 95.2016 145.817ZM194.663 100.638C187.66 121.761 169.407 137.538 146.46 142.323C142.958 143.033 140.537 143.295 135.619 143.37C132.155 143.482 128.691 143.445 127.983 143.37C111.927 141.426 99.7089 135.482 88.4593 124.191C83.5417 119.219 81.4557 116.527 78.4014 111.218C73.5957 102.807 71.0255 94.2077 70.243 83.8517C67.5609 48.3732 92.8547 18.8006 128.467 15.7352C142.437 14.5388 157.933 18.8382 169.705 27.2124C174.063 30.3154 181.961 38.1666 184.419 41.8302C185.425 43.2884 195.185 57.6074 196.899 65.8321C199.096 76.5246 198.24 89.9082 194.663 100.638Z" fill="#F0F0F0"/>
<path fill-rule="evenodd" clip-rule="evenodd" d="M211.489 75.1225C211.489 100.216 199.662 127.651 184.398 139.367C177.116 144.957 167.598 151.725 159.311 154.34C147.165 158.172 127.927 157.667 127.927 157.667C127.927 157.667 147.554 155.034 154.827 152.097C175.683 143.673 187.069 130.742 194.099 118.335C207.977 93.8446 211.489 74.5133 211.489 75.1225Z" fill="#F0F0F0"/>
<path fill-rule="evenodd" clip-rule="evenodd" d="M128.355 138.883C118.409 137.612 108.537 134.06 100.565 128.789C95.8346 125.686 88.6821 118.396 85.2175 113.2C80.2635 105.723 76.9853 97.7218 75.3834 89.123C74.2287 82.8794 74.2657 73.2716 75.4203 67.701C76.6125 62.0186 78.14 57.6815 80.859 52.1862C84.0259 45.8302 87.3786 41.1572 92.407 36.1101C100.975 27.5113 110.921 22.053 122.767 19.4359C126.604 18.6135 140.499 17.9406 140.983 18.5765C141.095 18.7629 141.84 19.2494 142.622 19.6606C143.404 20.1088 145.491 21.6794 147.204 23.2118C149.774 25.4553 150.93 26.8759 153.165 30.3901C154.692 32.7831 155.921 34.9513 155.921 35.1384C155.921 35.5495 157.113 36.2972 157.784 36.2972C158.715 36.2972 159.348 33.4931 159.535 28.5583C159.646 25.8289 159.87 23.5859 160.019 23.5859C160.54 23.5859 166.277 26.7636 168.959 28.5583C174.212 32.0725 179.464 37.0072 183.339 42.1667C185.089 44.4843 185.35 45.0826 185.35 46.5032C185.35 47.812 185.722 48.8214 186.877 50.8403C189.783 55.9244 192.055 62.3174 193.433 69.3834C194.327 74.1316 194.327 83.1041 193.396 88.0765C190.863 101.76 183.339 115.368 173.541 124.004C165.234 131.294 156.405 135.78 145.975 137.986C142.399 138.771 131.671 139.295 128.355 138.883ZM101.72 113.311C102.055 112.938 102.279 112.377 102.167 112.115C102.134 112.037 101.667 111.817 100.984 111.495C99.3927 110.744 96.6258 109.438 95.4267 108.078C90.6585 102.62 88.9077 98.5442 87.8275 90.1324C86.7842 81.9452 87.6607 76.4099 89.5408 67.5139C90.4583 63.1745 92.8963 59.5897 94.4128 57.3601C95.4446 55.8434 96.0499 54.9532 95.4619 54.8779C94.0089 54.6532 93.7855 54.7656 92.2581 56.2238C88.9799 59.3639 87.4899 61.8686 85.9255 66.6916C83.5042 74.2434 83.0362 94.6525 87.8275 103.853C92.6187 113.054 100.863 114.284 101.72 113.311ZM154.692 81.9076C154.059 87.7151 151.376 96.1142 148.248 99.7778C146.795 101.498 141.461 104.451 136.96 103.853C132.612 103.275 129.212 101.236 126.306 96.8618C123.81 93.0859 122.521 88.5027 121.65 82.73C120.145 72.762 126.716 61.1586 129.547 58.2797C132.416 55.3262 134.464 54.2797 137.072 54.2421C139.605 54.2421 141.244 54.8032 143.815 56.635C148.508 59.925 155.921 70.6221 154.692 81.9076ZM104.477 50.9897C105.222 50.1297 105.333 49.7185 105.11 48.1108C104.961 46.6155 104.663 46.0173 103.88 45.382C102.502 44.2602 100.789 44.2602 99.5226 45.4567C98.6281 46.3167 98.5168 46.6155 98.6281 48.6714C98.7401 50.8773 98.8145 51.0267 100.044 51.6997C101.683 52.5973 103.285 52.3356 104.477 50.9897ZM127.722 27.9224C121.017 32.7454 118.111 34.7266 115.094 36.596C112.709 38.0913 111.964 38.129 111.964 36.7831C111.964 36.0725 112.486 35.2878 113.827 34.0537L115.689 32.3342L112.076 31.8483C108.016 31.3248 104.067 30.203 103.21 29.343C101.794 27.8854 103.024 27.5489 107.047 28.2965C108.835 28.5954 112.3 28.9695 114.758 29.0442L119.228 29.2313L122.469 26.8759C129.584 21.7165 136.96 18.8006 140.499 19.6977C142.697 20.2212 142.436 20.8194 139.94 21.1183C137.072 21.4547 135.321 22.4271 127.722 27.9224Z" fill="#F0F0F0"/>
<path d="M137.295 98.7313C137.295 98.5442 137.519 98.3577 137.817 98.3577C138.115 98.3577 138.488 98.5442 138.599 98.7313C138.711 98.9554 138.488 99.1054 138.078 99.1054C137.631 99.1054 137.295 98.9554 137.295 98.7313Z" fill="#F0F0F0"/>
<path d="M139.531 98.3936C139.531 97.9824 140.462 97.6089 141.505 97.6089C142.324 97.646 142.324 97.646 141.617 98.1695C140.797 98.8048 139.531 98.9171 139.531 98.3936Z" fill="#F0F0F0"/>
<path d="M133.756 97.4224C133.644 97.1236 133.496 96.6 133.384 96.3006C133.272 95.9271 133.458 95.7401 133.942 95.7401C134.352 95.7401 134.687 95.9642 134.687 96.2636C134.687 96.5624 134.799 97.0483 134.911 97.3848C135.06 97.7965 134.948 97.983 134.538 97.983C134.203 97.983 133.831 97.7212 133.756 97.4224Z" fill="#F0F0F0"/>
<path d="M135.73 96.4866C135.544 95.3654 135.953 94.9913 137.294 94.9913C137.704 94.9913 138.039 95.3654 138.189 96.0007C138.487 97.0848 138.002 97.6084 136.698 97.6084C136.102 97.6084 135.842 97.3466 135.73 96.4866Z" fill="#F0F0F0"/>
<path d="M131.931 96.6742C131.223 96.113 131.223 96.113 132.005 96.113C132.49 96.113 132.825 96.3377 132.825 96.6742C132.825 97.3471 132.825 97.3471 131.931 96.6742Z" fill="#F0F0F0"/>
<path d="M139.419 96.6359C138.935 96.1501 139.158 94.6924 139.754 94.4677C140.835 94.0565 141.319 94.2436 141.543 95.2153C141.692 95.7765 141.766 96.2624 141.692 96.2995C141.393 96.636 139.642 96.8606 139.419 96.6359Z" fill="#F0F0F0"/>
<path d="M142.733 95.853C142.622 95.7412 142.51 95.2553 142.51 94.8065C142.51 94.1706 142.808 93.9094 143.702 93.7223C144.484 93.5729 144.969 93.6477 145.192 93.9465C145.565 94.5447 145.565 95.2924 145.229 95.4794C144.559 95.853 142.994 96.0777 142.733 95.853Z" fill="#F0F0F0"/>
<path d="M130.218 94.6935C130.218 94.2447 130.553 93.8712 131.037 93.7588C132.006 93.4971 131.969 93.4594 132.155 94.4318C132.229 94.9924 132.043 95.2171 131.261 95.2918C130.441 95.4035 130.218 95.2541 130.218 94.6935Z" fill="#F0F0F0"/>
<path d="M133.049 94.73C132.527 94.1694 132.863 93.1224 133.57 93.1224C134.055 93.1224 134.316 93.3841 134.316 93.833C134.316 94.5436 133.459 95.1412 133.049 94.73Z" fill="#F0F0F0"/>
<path d="M135.283 93.61C134.986 92.8994 135.619 92.3759 136.848 92.3759C137.407 92.3759 137.668 92.6006 137.668 93.0865C137.668 93.4977 137.332 93.8718 136.848 94.0212C135.619 94.32 135.544 94.32 135.283 93.61Z" fill="#F0F0F0"/>
<path d="M146.05 93.4965C146.161 93.3094 146.347 93.1224 146.459 93.1224C146.571 93.1224 146.534 93.3094 146.422 93.4965C146.31 93.7206 146.124 93.8706 146.012 93.8706C145.901 93.8706 145.938 93.7206 146.05 93.4965Z" fill="#F0F0F0"/>
<path d="M138.636 92.8612C138.338 92.1136 138.711 91.7395 139.903 91.5524C140.573 91.4777 140.872 91.6277 140.946 92.1506C141.207 93.3847 139.083 94.0577 138.636 92.8612Z" fill="#F0F0F0"/>
<path d="M129.696 92.2265C129.361 90.993 129.435 90.8806 130.404 90.8806C130.925 90.8806 131.335 91.0306 131.335 91.2171C131.335 91.4041 131.447 91.8153 131.559 92.1147C131.67 92.4883 131.447 92.713 130.814 92.8247C130.106 92.9742 129.845 92.8248 129.696 92.2265Z" fill="#F0F0F0"/>
<path d="M142.138 91.8141C142.138 91.1412 142.399 90.8418 143.107 90.6547C144.149 90.393 144.745 90.9165 144.745 92.113C144.745 92.5989 144.448 92.7483 143.442 92.7483C142.287 92.7483 142.138 92.6365 142.138 91.8141Z" fill="#F0F0F0"/>
<path d="M128.578 91.8147C128.467 91.5159 128.541 91.2541 128.727 91.2541C128.951 91.2541 129.1 91.5159 129.1 91.8147C129.1 92.1141 129.025 92.3759 128.951 92.3759C128.876 92.3759 128.727 92.1141 128.578 91.8147Z" fill="#F0F0F0"/>
<path d="M132.341 92.1141C131.82 91.6282 132.118 90.5812 132.788 90.3941C133.198 90.2823 133.608 90.3194 133.72 90.4318C134.167 90.8429 133.906 91.9271 133.347 92.1512C132.639 92.413 132.639 92.413 132.341 92.1141Z" fill="#F0F0F0"/>
<path d="M145.64 91.853C145.23 90.7683 145.677 89.9459 146.72 89.8341C147.502 89.7218 147.726 89.8712 147.726 90.4694C147.726 91.703 147.316 92.3759 146.571 92.3759C146.161 92.3759 145.751 92.1518 145.64 91.853Z" fill="#F0F0F0"/>
<path d="M134.948 91.3659C134.502 90.9547 134.651 90.2071 135.284 89.9829C135.992 89.7212 137.482 90.4688 137.072 90.88C136.55 91.3288 135.209 91.6653 134.948 91.3659Z" fill="#F0F0F0"/>
<path d="M138.189 90.4306C137.854 89.9071 139.046 89.01 140.015 89.01C140.462 89.01 140.648 89.2341 140.573 89.6453C140.425 90.3929 138.524 90.9912 138.189 90.4306Z" fill="#F0F0F0"/>
<path d="M127.982 90.1695C127.982 89.9824 127.87 89.5712 127.758 89.2347C127.646 88.8983 127.684 88.6365 127.907 88.6365C128.391 88.6365 128.764 90.0571 128.317 90.3565C128.131 90.4689 127.982 90.3936 127.982 90.1695Z" fill="#F0F0F0"/>
<path d="M128.988 89.3106C128.765 88.4882 129.212 87.89 130.069 87.89C130.553 87.89 131.037 89.3482 130.74 89.8341C130.329 90.47 129.175 90.0959 128.988 89.3106Z" fill="#F0F0F0"/>
<path d="M131.596 89.4959C131.037 88.9353 131.372 87.5894 132.117 87.4023C132.676 87.2529 132.974 87.4394 133.272 88.1124C133.495 88.5988 133.607 89.0847 133.533 89.1594C133.16 89.4959 131.819 89.7576 131.596 89.4959Z" fill="#F0F0F0"/>
<path d="M141.654 89.4971C141.169 89.0112 141.393 88.7118 142.511 88.3006C143.442 88.0018 143.703 88.0388 143.889 88.4877C144.224 89.3847 142.362 90.2447 141.654 89.4971Z" fill="#F0F0F0"/>
<path d="M144.931 88.6359C144.559 88.0382 145.08 87.5147 146.049 87.5147C147.204 87.5147 147.539 88.4865 146.496 88.7859C145.378 89.0847 145.192 89.0477 144.931 88.6359Z" fill="#F0F0F0"/>
<path d="M148.099 87.7394C148.099 87.1788 148.769 86.5806 149.068 86.8794C149.328 87.1412 148.807 88.2629 148.434 88.2629C148.248 88.2629 148.099 88.0382 148.099 87.7394Z" fill="#F0F0F0"/>
<path d="M127.499 87.2541C127.35 87.1418 127.238 86.6559 127.275 86.2447C127.275 85.5341 127.312 85.5341 127.648 86.357C128.02 87.2541 127.946 87.7029 127.499 87.2541Z" fill="#F0F0F0"/>
<path d="M128.206 86.6935C127.871 85.3846 127.908 85.2729 128.876 85.2729C129.957 85.2729 130.627 86.6558 129.808 87.1793C128.951 87.7029 128.467 87.5535 128.206 86.6935Z" fill="#F0F0F0"/>
<path d="M141.02 87.4406C141.02 87.3288 141.206 86.7306 141.43 86.0576C141.951 84.5617 143.106 84.487 143.367 85.9453C143.478 86.5059 143.516 86.9924 143.478 87.0294C143.292 87.2535 141.02 87.59 141.02 87.4406Z" fill="#F0F0F0"/>
<path d="M130.851 86.507C130.702 86.3947 130.59 85.9459 130.59 85.5347C130.59 84.9364 130.702 84.8994 131.149 85.2729C131.447 85.5347 131.708 85.9835 131.708 86.2453C131.708 86.8059 131.26 86.9553 130.851 86.507Z" fill="#F0F0F0"/>
<path d="M144.262 85.7582C144.039 84.5993 144.523 84.0758 145.678 84.2252C146.236 84.2999 146.422 84.6364 146.422 85.4593C146.422 86.394 146.274 86.6182 145.454 86.6929C144.635 86.8052 144.448 86.6182 144.262 85.7582Z" fill="#F0F0F0"/>
<path d="M147.912 85.9076C147.428 84.4117 147.577 83.9635 148.582 83.8511C149.476 83.7388 149.588 83.8511 149.588 84.8235C149.588 85.6459 149.365 85.9823 148.806 86.1317C148.396 86.2441 147.986 86.1318 147.912 85.9076Z" fill="#F0F0F0"/>
<path d="M126.939 83.7764C126.939 83.0659 127.014 82.767 127.126 83.1406C127.2 83.477 127.2 84.0753 127.126 84.4494C127.014 84.7859 126.939 84.4865 126.939 83.7764Z" fill="#F0F0F0"/>
<path d="M127.871 84.2635C127.387 83.8147 127.61 82.357 128.207 82.1323C129.063 81.7958 129.473 82.207 129.473 83.4411C129.473 84.2258 129.287 84.5253 128.803 84.5253C128.43 84.5253 127.983 84.4129 127.871 84.2635Z" fill="#F0F0F0"/>
<path d="M130.105 83.2529C129.956 82.6923 129.882 82.0941 130.031 81.9817C130.403 81.6082 130.627 82.2064 130.515 83.2906L130.403 84.3371L130.105 83.2529Z" fill="#F0F0F0"/>
<path d="M142.138 82.9929C142.138 82.5811 142.324 82.357 142.51 82.4694C142.734 82.5811 142.883 82.9553 142.883 83.2541C142.883 83.5535 142.734 83.7776 142.51 83.7776C142.324 83.7776 142.138 83.4411 142.138 82.9929Z" fill="#F0F0F0"/>
<path d="M143.814 83.4788C143.293 82.9176 143.702 81.9082 144.559 81.6841C145.64 81.4223 145.676 81.4223 146.012 82.5064C146.235 83.1794 146.086 83.3294 145.118 83.4788C144.522 83.5905 143.926 83.5535 143.814 83.4788Z" fill="#F0F0F0"/>
<path d="M147.242 82.7676C146.832 82.3935 146.944 81.1599 147.353 81.1599C147.577 81.1599 147.726 81.0105 147.726 80.7858C147.726 80.5994 147.502 80.4123 147.205 80.4123C146.571 80.4123 146.05 78.5805 146.571 78.057C147.242 77.384 147.987 78.094 148.434 79.9264C148.695 80.8982 148.955 82.02 149.067 82.3935C149.216 82.8794 149.067 83.0294 148.359 83.0294C147.875 83.0294 147.353 82.917 147.242 82.7676Z" fill="#F0F0F0"/>
<path d="M149.253 80.787C148.993 79.6652 148.322 77.4222 147.837 75.7769C147.092 73.3846 147.018 72.7863 147.428 72.5245C147.688 72.3375 148.024 72.1881 148.136 72.1881C148.545 72.1881 150.035 79.8523 149.886 81.3476L149.774 82.8429L149.253 80.787Z" fill="#F0F0F0"/>
<path d="M126.566 80.5993C126.566 80.0011 126.641 79.777 126.753 80.1505C126.827 80.487 126.827 81.0105 126.753 81.2723C126.641 81.4964 126.566 81.2346 126.566 80.5993Z" fill="#F0F0F0"/>
<path d="M127.311 80.5228C127.46 79.2146 128.541 78.9152 128.838 80.1117C129.099 81.0834 129.174 80.9717 128.056 81.3452C127.274 81.5699 127.2 81.4952 127.311 80.5228Z" fill="#F0F0F0"/>
<path d="M143.032 80.1864C142.734 79.1023 143.367 78.467 144.559 78.6164C145.454 78.7288 145.789 80.3358 145.044 80.8223C144.112 81.4206 143.256 81.1588 143.032 80.1864Z" fill="#F0F0F0"/>
<path d="M129.472 79.8881C129.472 79.2523 129.659 78.9158 130.068 78.9158C130.441 78.9158 130.59 79.1776 130.515 79.7382C130.329 80.9346 129.472 81.047 129.472 79.8881Z" fill="#F0F0F0"/>
<path d="M126.157 78.3181C126.157 77.907 126.269 77.7952 126.381 78.094C126.492 78.3558 126.455 78.6923 126.343 78.8046C126.231 78.954 126.12 78.7293 126.157 78.3181Z" fill="#F0F0F0"/>
<path d="M126.865 78.2058C126.865 77.6446 127.088 77.4205 127.647 77.4205C128.168 77.4205 128.355 77.6076 128.28 78.0564C128.094 79.0282 126.865 79.1405 126.865 78.2058Z" fill="#F0F0F0"/>
<path d="M128.913 77.8699C128.653 77.197 128.653 77.1969 129.77 76.8975C130.441 76.6734 130.59 76.7858 130.59 77.3464C130.59 78.2434 129.249 78.6923 128.913 77.8699Z" fill="#F0F0F0"/>
<path d="M142.399 77.3458C142.138 76.4111 142.622 75.9252 143.926 75.9252C144.559 75.9252 144.746 76.1493 144.746 76.8599C144.746 77.4205 144.522 77.7946 144.224 77.7946C143.926 77.7946 143.442 77.907 143.144 78.0187C142.808 78.1311 142.548 77.907 142.399 77.3458Z" fill="#F0F0F0"/>
<path d="M145.641 76.487C145.342 75.7393 145.79 75.1787 146.647 75.1787C147.168 75.1787 147.354 75.4405 147.354 76.1134C147.354 76.7864 147.168 77.0481 146.609 77.0481C146.199 77.0481 145.752 76.7864 145.641 76.487Z" fill="#F0F0F0"/>
<path d="M126.492 75.9628C126.492 75.1775 127.349 74.2805 127.722 74.6916C127.871 74.804 127.983 75.327 127.983 75.8134C127.983 76.4111 127.759 76.6728 127.237 76.6728C126.753 76.6728 126.492 76.4111 126.492 75.9628Z" fill="#F0F0F0"/>
<path d="M128.541 75.5134C128.243 74.5793 128.578 74.1676 129.845 73.9811C131 73.8311 131.372 75.0652 130.366 75.8129C129.398 76.5229 128.802 76.4111 128.541 75.5134Z" fill="#F0F0F0"/>
<path d="M142.027 75.2905C141.766 75.0664 141.654 73.6828 141.878 73.6828C141.915 73.6828 142.474 73.5334 143.145 73.3463C144.262 73.0099 144.336 73.0475 144.299 74.0569C144.262 74.8046 144.038 75.1787 143.48 75.3281C142.474 75.5899 142.325 75.5899 142.027 75.2905Z" fill="#F0F0F0"/>
<path d="M140.648 74.4293C140.648 74.1681 140.76 74.0557 140.909 74.1681C141.021 74.3175 141.021 74.5416 140.909 74.691C140.76 74.8034 140.648 74.691 140.648 74.4293Z" fill="#F0F0F0"/>
<path d="M144.82 73.831C144.932 73.1957 146.086 72.261 146.347 72.5599C146.459 72.6722 146.645 73.121 146.757 73.6069C147.018 74.3546 146.906 74.4293 145.863 74.4293C144.969 74.4293 144.708 74.2799 144.82 73.831Z" fill="#F0F0F0"/>
<path d="M126.865 73.7946C126.865 73.6075 127.051 73.234 127.237 72.9346C127.535 72.4863 127.61 72.5234 127.61 73.234C127.61 73.6828 127.461 74.0563 127.237 74.0563C127.051 74.0563 126.865 73.944 126.865 73.7946Z" fill="#F0F0F0"/>
<path d="M127.982 72.9716C127.982 71.9245 128.764 71.5881 129.36 72.3734C129.733 72.934 129.733 73.121 129.36 73.3828C128.578 73.8687 127.982 73.7193 127.982 72.9716Z" fill="#F0F0F0"/>
<path d="M139.306 72.4869C138.636 71.7392 138.636 71.7022 139.27 71.9263C139.642 72.0757 140.126 72.1881 140.312 72.1881C140.499 72.1881 140.648 72.4498 140.648 72.7486C140.648 73.5339 140.126 73.4592 139.306 72.4869Z" fill="#F0F0F0"/>
<path d="M131.298 72.4487C129.697 71.2151 129.473 68.4486 130.963 68.4486C131.969 68.4486 132.9 70.0187 132.751 71.4769C132.639 72.8228 132.192 73.1216 131.298 72.4487Z" fill="#F0F0F0"/>
<path d="M141.505 72.6728C141.654 72.5605 141.878 72.5605 142.027 72.6728C142.138 72.8222 142.027 72.9346 141.766 72.9346C141.505 72.9346 141.393 72.8222 141.505 72.6728Z" fill="#F0F0F0"/>
<path d="M147.13 71.2146C147.242 70.8781 147.354 70.5416 147.354 70.4669C147.354 70.3922 147.54 70.3175 147.726 70.3175C147.95 70.3175 148.099 70.654 148.099 71.0651C148.099 71.5134 147.838 71.8128 147.503 71.8128C147.093 71.8128 146.982 71.6257 147.13 71.2146Z" fill="#F0F0F0"/>
<path d="M127.61 71.1022C127.61 70.2428 128.392 68.8222 128.839 68.8222C129.621 68.8222 129.063 71.2146 128.243 71.364C127.908 71.4387 127.61 71.3269 127.61 71.1022Z" fill="#F0F0F0"/>
<path d="M135.992 70.6911L134.874 70.4293L135.88 70.1675C136.923 69.8687 137.668 70.0928 137.668 70.7287C137.668 71.1023 137.631 71.1023 135.992 70.6911Z" fill="#F0F0F0"/>
<path d="M134.687 68.8963C134.687 67.3633 135.544 67.1392 136.326 68.4851C136.848 69.3822 136.885 69.5692 136.401 69.5692C136.103 69.5692 135.618 69.6816 135.283 69.7934C134.836 69.9804 134.687 69.7563 134.687 68.8963Z" fill="#F0F0F0"/>
<path d="M141.17 69.4199C139.493 68.6722 138.413 66.691 138.413 64.3357C138.413 62.6533 138.562 62.2422 139.568 61.3075C140.201 60.7092 140.834 60.2233 141.021 60.2233C141.84 60.2233 144.858 63.1022 145.863 64.8963L147.018 66.9528L145.789 68.261C144.373 69.7564 142.809 70.1681 141.17 69.4199Z" fill="#F0F0F0"/>
<path d="M133.384 68.4492C133.272 68.2621 133.346 68.0751 133.533 68.0751C133.756 68.0751 133.942 68.2621 133.942 68.4492C133.942 68.6733 133.868 68.8233 133.793 68.8233C133.681 68.8233 133.496 68.6733 133.384 68.4492Z" fill="#F0F0F0"/>
<path d="M128.504 67.8504C128.616 67.5139 128.728 67.1774 128.728 67.1027C128.728 67.028 129.063 66.9533 129.473 66.9533C130.404 66.9533 130.441 67.5515 129.51 68.0751C128.504 68.598 128.243 68.561 128.504 67.8504Z" fill="#F0F0F0"/>
<path d="M131.447 67.4016C130.59 67.2898 130.329 66.8039 130.888 66.4674C131.037 66.3551 131.708 66.168 132.378 66.0186C133.384 65.7945 133.57 65.8692 133.57 66.5045C133.57 67.2898 132.788 67.6263 131.447 67.4016Z" fill="#F0F0F0"/>
<path d="M134.315 66.131C134.315 65.6827 134.352 65.421 134.427 65.4957C134.464 65.5704 134.762 65.9439 135.023 66.318C135.47 66.8416 135.433 66.9534 134.911 66.9534C134.538 66.9534 134.315 66.6545 134.315 66.131Z" fill="#F0F0F0"/>
<path d="M129.1 65.8692C129.1 65.6451 129.286 65.3833 129.472 65.271C129.696 65.1592 129.845 65.3086 129.845 65.6074C129.845 65.9439 129.696 66.2057 129.472 66.2057C129.286 66.2057 129.1 66.0563 129.1 65.8692Z" fill="#F0F0F0"/>
<path d="M130.478 65.3069C130.18 64.5593 132.825 63.7369 133.272 64.4469C133.607 65.0451 133.272 65.3069 131.856 65.6063C131 65.7928 130.627 65.7181 130.478 65.3069Z" fill="#F0F0F0"/>
<path d="M133.981 64.1116C133.981 63.7004 134.092 63.588 134.204 63.8875C134.316 64.1492 134.278 64.4857 134.167 64.5975C134.055 64.7475 133.943 64.5228 133.981 64.1116Z" fill="#F0F0F0"/>
<path d="M130.814 63.5139C131.26 62.6909 132.564 61.345 132.9 61.345C133.272 61.345 133.309 63.1021 132.937 63.3268C132.75 63.4015 132.155 63.5886 131.596 63.738C130.776 63.925 130.59 63.8874 130.814 63.5139Z" fill="#F0F0F0"/>
<path d="M133.793 62.6533C133.384 61.5321 133.57 61.0456 134.464 60.8962C135.395 60.7092 135.395 60.7092 134.799 61.8686C134.054 63.3639 134.091 63.3639 133.793 62.6533Z" fill="#F0F0F0"/>
<path d="M133.569 60.411C133.569 60.3357 134.315 59.8127 135.246 59.2892C136.363 58.6163 137.146 58.3921 137.704 58.5416C138.375 58.7657 138.189 58.9151 136.55 59.7004C134.725 60.5227 133.569 60.8222 133.569 60.411Z" fill="#F0F0F0"/>
<path d="M154.244 27.2877C153.238 25.8295 151.115 23.4742 149.587 22.0536C148.061 20.633 147.055 19.4741 147.353 19.4741C148.172 19.4741 154.431 21.1936 155.995 21.8665C157.299 22.4271 157.336 22.5024 157.001 23.6612C156.814 24.3342 156.666 26.0165 156.666 27.3995C156.666 28.8201 156.554 29.9419 156.405 29.9419C156.218 29.9419 155.287 28.7454 154.244 27.2877Z" fill="#F0F0F0"/>
<path d="M78.4382 140.527C76.9107 139.743 76.5755 139.294 74.6383 135.443C71.8448 129.985 71.7704 128.714 74.415 131.817C75.4577 133.05 77.8796 135.593 79.7793 137.462C83.02 140.602 83.1689 140.827 82.0886 140.677C81.3067 140.565 81.0084 140.64 81.1948 140.939C81.642 141.612 80.2265 141.425 78.4382 140.527Z" fill="#F0F0F0"/>
<path fill-rule="evenodd" clip-rule="evenodd" d="M140.866 208.642C140.557 207.905 140.902 207.057 141.636 206.746L142.439 206.405C150.242 203.054 154.721 201.041 157.764 197.844C160.807 194.648 161.171 189.954 161.743 187.097C161.9 186.313 163.669 187.69 164.45 187.847C165.231 188.005 165.737 188.768 165.58 189.552C164.893 192.987 163.041 196.261 160.061 199.369C157.091 202.467 151.34 205.788 142.756 209.415C142.021 209.725 141.176 209.379 140.866 208.642Z" fill="#070707"/>
<path fill-rule="evenodd" clip-rule="evenodd" d="M176.153 59.4727C176.838 59.0633 177.724 59.2891 178.131 59.976C182.212 66.8554 184.398 74.72 184.398 82.9019C184.398 107.69 164.375 127.784 139.676 127.784C133.113 127.784 126.748 126.364 120.919 123.657C120.196 123.321 117.464 120.648 120.215 121.735C122.966 122.822 133.61 125.263 139.753 125.263C162.858 125.263 179.204 106.09 179.204 82.9019C179.204 75.2447 176.153 68.4486 175.652 61.4574C175.594 60.6466 175.469 59.8816 176.153 59.4727Z" fill="#070707"/>
<path fill-rule="evenodd" clip-rule="evenodd" d="M33.2791 169.051C33.7886 168.436 34.6986 167.195 35.3109 167.707C37.8222 169.806 40.502 172.238 43.3688 172.708C46.3522 173.197 49.8912 173.197 53.9813 172.699C54.7725 172.604 55.4909 173.169 55.5867 173.963C55.6825 174.757 55.1187 175.478 54.3281 175.574C49.9841 176.102 46.1779 176.102 42.9043 175.566C39.5141 175.011 36.3611 173.512 33.4643 171.09C32.8521 170.578 32.769 169.665 33.2791 169.051Z" fill="#070707"/>
<path d="M63.9092 118.396C62.0465 116.901 58.0603 112.489 55.0429 108.601C53.4785 106.545 51.7277 102.358 50.6844 98.133C50.2003 96.2265 49.7161 94.5065 49.6042 94.2824C49.4553 94.0953 48.8592 91.4412 48.2631 88.3753C47.3693 84.0388 47.5585 82.6413 46.7732 77.4541C46.4408 75.2575 46.1401 73.5102 46.1401 73.5102L47.1084 72.2622C47.667 71.5146 48.3739 70.277 48.6359 69.5704C49.8281 66.3511 58.5819 56.2609 58.8427 56.5227C58.9172 56.5974 58.6194 58.3545 58.0978 60.4109C57.6136 62.4668 57.0175 65.5698 56.7567 67.3269C56.3839 70.2434 56.2351 70.5798 55.0804 71.5516C53.6274 72.7857 50.8708 76.7481 50.8708 77.5711C50.8708 78.6923 52.5471 77.9446 54.2979 76.1128L56.0862 74.2434V76.2999C56.0862 77.6458 55.8254 78.8793 55.3412 79.8511C54.4098 81.6835 54.4098 83.6276 55.3037 85.1229C55.7509 85.8706 56.1606 87.6647 56.4214 89.7959C57.5761 99.4413 60.0349 107.816 64.2445 116.228C65.2872 118.321 66.1067 120.041 66.0697 120.041C65.9953 120.041 65.0264 119.293 63.9092 118.396Z" fill="#F0F0F0"/>
<path fill-rule="evenodd" clip-rule="evenodd" d="M218.913 141.463L221.595 142.66C222.151 142.917 228.287 145.876 235.657 149.43C247.539 155.16 262.629 162.437 262.721 162.437C262.87 162.437 263.569 160.814 263.727 158.922C264.1 154.848 265.478 149.314 267.079 145.463C267.824 143.744 268.421 141.594 268.421 141.408C268.421 141.322 267.815 141.077 266.824 140.676C265.643 140.198 263.917 139.499 262.014 138.585C252.626 134.061 234.261 124.827 231.988 123.443C229.754 122.135 229.306 122.023 229.306 122.883C229.306 124.004 227.034 129.201 225.283 132.004C224.352 133.537 222.527 136.304 221.223 138.136L218.913 141.463ZM262.088 155.707C263.156 156.328 261.306 157.24 260.859 157.389C258.226 157.614 255.128 157.117 252.589 155.632C251.261 154.688 240.808 148.859 233.874 144.993C230.705 143.226 228.27 141.869 227.779 141.575C226.215 140.641 224.725 139.632 224.464 139.332C223.682 138.323 224.427 137.875 226.624 138.061C227.946 138.173 259.78 154.365 262.088 155.707Z" fill="#F0F0F0"/>
<path d="M192.166 144.828C191.198 144.492 190.154 143.743 189.484 142.884L188.366 141.5L192.315 137.575C198.387 131.593 202.857 125.056 206.88 117.766C208.221 115.336 212.208 105.535 212.692 104.451C213.437 102.881 213.995 102.283 215.597 101.385C217.497 100.264 219.658 99.8901 220.589 100.526C222.377 101.722 222.377 105.498 220.589 112.003C218.615 119.144 215.97 124.266 210.494 131.631C209.637 132.752 208.036 134.958 206.88 136.491C203.788 140.603 201.777 142.585 199.058 144.118C196.376 145.613 194.811 145.8 192.166 144.828Z" fill="#F0F0F0"/>
<path d="M206.21 143.966L205.427 143.182C205.427 143.182 218.411 126.626 220.738 120.526C222.513 115.871 223.558 114.55 224.968 114.55C225.756 114.55 226.4 114.731 226.698 115.18C227.22 115.965 227.722 116.937 227.052 120.264C225.934 125.647 224.221 129.199 219.08 136.863C217.887 138.62 216.361 140.565 215.69 141.238C214.125 142.696 210.605 144.191 208.557 144.528C207.253 144.715 206.88 144.639 206.21 143.966Z" fill="#F0F0F0"/>
<path fill-rule="evenodd" clip-rule="evenodd" d="M228.019 126.656C228.771 124.932 229.306 123.427 229.306 122.883C229.306 122.023 229.753 122.135 231.988 123.443C234.261 124.827 252.626 134.061 262.013 138.585C265.515 140.267 268.42 141.221 268.42 141.408C268.42 141.594 227.223 128.485 228.019 126.656Z" fill="#F0F0F0"/>
<path fill-rule="evenodd" clip-rule="evenodd" d="M100.565 128.788C95.8339 125.685 88.6813 118.395 85.2173 113.198C80.2628 105.721 76.9845 97.7206 75.3826 89.1218C74.228 82.8782 74.2655 73.2704 75.4201 67.6998C76.6123 62.0168 78.1392 57.6803 80.8588 52.1844C84.0251 45.829 87.3778 41.1561 92.4068 36.109C97.3382 31.1597 75.4201 51.6273 80.8588 88.2478C85.2173 118.936 103.948 131.025 100.565 128.788Z" fill="#F0F0F0"/>
</svg>