<svg xmlns="http://www.w3.org/2000/svg" width="29" height="30" viewBox="0 0 29 30" fill="none">
  <path d="M14.3658 18.372C16.3494 18.372 17.9573 16.764 17.9573 14.7805C17.9573 12.797 16.3494 11.189 14.3658 11.189C12.3823 11.189 10.7744 12.797 10.7744 14.7805C10.7744 16.764 12.3823 18.372 14.3658 18.372Z" fill="#4E157A"/>
  <path d="M27.78 14.4752C26.7239 11.7436 24.8906 9.38128 22.5066 7.68024C20.1226 5.97921 17.2924 5.01402 14.3659 4.90396C11.4393 5.01402 8.60909 5.97921 6.22509 7.68024C3.84109 9.38128 2.00778 11.7436 0.951744 14.4752C0.880424 14.6725 0.880424 14.8885 0.951744 15.0858C2.00778 17.8174 3.84109 20.1797 6.22509 21.8807C8.60909 23.5818 11.4393 24.547 14.3659 24.657C17.2924 24.547 20.1226 23.5818 22.5066 21.8807C24.8906 20.1797 26.7239 17.8174 27.78 15.0858C27.8513 14.8885 27.8513 14.6725 27.78 14.4752ZM14.3659 20.6166C13.2116 20.6166 12.0832 20.2743 11.1235 19.6331C10.1637 18.9918 9.4157 18.0803 8.97398 17.0139C8.53226 15.9475 8.41668 14.774 8.64187 13.6419C8.86706 12.5098 9.4229 11.4699 10.2391 10.6537C11.0553 9.83753 12.0952 9.28169 13.2273 9.0565C14.3594 8.83131 15.5328 8.94689 16.5992 9.38861C17.6657 9.83033 18.5771 10.5784 19.2184 11.5381C19.8597 12.4979 20.202 13.6262 20.202 14.7805C20.1996 16.3276 19.584 17.8107 18.49 18.9046C17.396 19.9986 15.913 20.6142 14.3659 20.6166Z" fill="#4E157A"/>
</svg>