<svg width="21" height="21" viewBox="0 0 21 21" fill="none" xmlns="http://www.w3.org/2000/svg">
<g id="ph:eye" opacity="0.75" clip-path="url(#clip0_65_2743)">
<path id="Vector" d="M20.2456 10.6484C20.2182 10.5866 19.5563 9.11822 18.0847 7.64668C16.124 5.68592 13.6474 4.64966 10.9216 4.64966C8.19574 4.64966 5.7192 5.68592 3.75844 7.64668C2.28689 9.11822 1.62184 10.589 1.59762 10.6484C1.56207 10.7283 1.5437 10.8149 1.5437 10.9024C1.5437 10.9899 1.56207 11.0764 1.59762 11.1564C1.62497 11.2181 2.28689 12.6857 3.75844 14.1573C5.7192 16.1173 8.19574 17.1535 10.9216 17.1535C13.6474 17.1535 16.124 16.1173 18.0847 14.1573C19.5563 12.6857 20.2182 11.2181 20.2456 11.1564C20.2811 11.0764 20.2995 10.9899 20.2995 10.9024C20.2995 10.8149 20.2811 10.7283 20.2456 10.6484ZM10.9216 15.9031C8.51616 15.9031 6.41473 15.0286 4.67513 13.3047C3.96135 12.5948 3.35409 11.7854 2.87223 10.9016C3.35396 10.0177 3.96123 9.20823 4.67513 8.4985C6.41473 6.77453 8.51616 5.90004 10.9216 5.90004C13.327 5.90004 15.4284 6.77453 17.168 8.4985C17.8832 9.20806 18.4918 10.0175 18.9748 10.9016C18.4114 11.9535 15.9567 15.9031 10.9216 15.9031ZM10.9216 7.15043C10.1797 7.15043 9.45443 7.37043 8.83755 7.78261C8.22068 8.1948 7.73988 8.78065 7.45597 9.46608C7.17205 10.1515 7.09777 10.9057 7.24251 11.6334C7.38725 12.3611 7.74451 13.0294 8.26912 13.5541C8.79373 14.0787 9.46212 14.4359 10.1898 14.5807C10.9174 14.7254 11.6717 14.6511 12.3571 14.3672C13.0425 14.0833 13.6284 13.6025 14.0406 12.9856C14.4527 12.3687 14.6727 11.6435 14.6727 10.9016C14.6717 9.90703 14.2762 8.95351 13.5729 8.25026C12.8697 7.54701 11.9161 7.15146 10.9216 7.15043ZM10.9216 13.4024C10.427 13.4024 9.94348 13.2557 9.53223 12.9809C9.12098 12.7061 8.80045 12.3155 8.61117 11.8586C8.4219 11.4016 8.37237 10.8988 8.46887 10.4137C8.56536 9.92861 8.80353 9.48301 9.15327 9.13327C9.50301 8.78353 9.94861 8.54536 10.4337 8.44887C10.9188 8.35237 11.4216 8.4019 11.8786 8.59117C12.3355 8.78045 12.7261 9.10098 13.0009 9.51223C13.2757 9.92348 13.4224 10.407 13.4224 10.9016C13.4224 11.5648 13.1589 12.2009 12.6899 12.6699C12.2209 13.1389 11.5848 13.4024 10.9216 13.4024Z" fill="#070707"/>
</g>
<defs>
<clipPath id="clip0_65_2743">
<rect width="20.0062" height="20.0062" fill="white" transform="translate(0.918518 0.898438)"/>
</clipPath>
</defs>
</svg>
