<svg xmlns="http://www.w3.org/2000/svg" width="337" height="313" viewBox="0 0 337 313" fill="none">
<path d="M295.378 229.458C293.38 268.432 262.153 303.75 223.875 311.346C185.597 318.944 143.704 298.737 125.053 264.458C122.995 260.675 121.162 256.708 119.329 252.741C114.598 242.499 109.867 232.26 101.266 225.215C91.4454 217.171 78.8149 215.02 66.0574 212.846C57.9561 211.467 49.8036 210.078 42.2865 207.166C24.1657 200.147 10.0958 183.518 6.17367 164.485C-0.182235 133.642 19.9501 102.152 46.7975 85.6929C73.6445 69.2334 105.905 64.649 137.198 61.1169C149.168 59.7659 158.891 50.7448 165.836 40.9017C168.525 37.0914 170.944 33.0868 173.361 29.0861C177.188 22.7516 181.01 16.4248 185.89 10.8849C206.555 -12.5732 245.036 -16.5316 271.358 0.336108C297.678 17.2038 310.277 51.8886 303.277 82.3569C302.071 87.6046 300.36 92.7146 298.649 97.8246L298.649 97.8256C297.01 102.717 295.372 107.609 294.177 112.623C291.623 123.339 291.135 134.429 290.845 145.442C290.498 158.572 290.416 171.737 291.646 184.814C292.074 189.364 292.66 193.907 293.247 198.45C294.578 208.772 295.91 219.089 295.378 229.458Z" fill="#D39CFF"/>
<path d="M137.154 51.8085C151.466 44.6885 162.857 32.3228 170.031 18.037C170.972 16.164 171.863 14.1738 171.83 12.078C171.797 9.9823 170.577 7.76247 168.55 7.23022C165.645 6.46748 163.147 9.25304 161.335 11.6489C148.889 28.1072 130.775 41.0278 110.334 43.8454C102.483 44.9279 94.5126 44.5212 86.5984 44.1126L74.2365 43.4742C64.2802 42.9601 54.1854 42.4565 44.4396 44.5576C34.6939 46.6582 25.171 51.7112 19.8183 60.1222C18.1146 62.7993 16.8384 65.954 17.3098 69.0925C17.7929 72.3081 20.0788 75.0374 22.8323 76.7678C25.5858 78.4977 28.7847 79.3633 31.955 80.0875C34.2761 80.6179 36.6469 81.0875 39.0217 80.9206C42.9049 80.6472 46.4285 78.7164 49.8571 76.8373C50.0858 76.7122 50.3136 76.5875 50.5414 76.4633C56.5339 73.1939 62.7432 70.2905 69.2195 68.1333C78.6641 64.9876 88.5945 63.4482 98.5009 61.9125C111.846 59.8436 125.147 57.7818 137.154 51.8085Z" fill="#D39CFF"/>
<path d="M62.7242 241.494L62.7328 241.495C63.316 241.518 63.8992 241.541 64.4804 241.571C73.6775 242.05 82.7787 244.305 91.135 248.175C94.3214 249.651 97.5481 251.498 99.3379 254.518C101.552 258.257 104.21 261.732 107.238 264.847C108.413 266.056 109.685 267.238 111.253 267.856C112.822 268.473 114.758 268.416 116.031 267.312C117.576 265.969 117.676 263.584 117.2 261.593C116.419 258.329 114.472 255.485 112.545 252.738C106.222 243.724 99.5648 234.711 90.7648 228.092C81.9648 221.473 70.6081 217.465 59.837 219.752C56.1178 220.541 52.4317 222.15 49.9661 225.044C47.5001 227.938 46.5255 232.294 48.3015 235.655C49.7105 238.322 52.5665 239.963 55.491 240.703C57.8477 241.299 60.2888 241.396 62.7242 241.494Z" fill="#D39CFF"/>
<path d="M311.492 105.91C309.033 104.983 306.248 106.102 304.168 107.707C300.057 110.875 297.626 115.832 296.519 120.902C295.413 125.972 295.502 131.217 295.597 136.406L296.41 180.989C296.469 184.246 296.614 187.757 298.617 190.326C299.244 191.13 300.102 191.836 301.116 191.939C302.345 192.064 303.482 191.288 304.37 190.429C309.224 185.729 309.862 178.325 310.443 171.576L310.464 171.331C311.318 161.425 312.796 151.573 314.888 141.852C315.476 139.119 316.122 136.368 317.352 133.857C321.209 125.986 320.287 115.993 315.054 108.961C314.107 107.689 312.975 106.469 311.492 105.91Z" fill="#D39CFF"/>
<path d="M223.426 166.257C226.02 166.972 228.343 169.132 228.598 171.811C229.09 170.745 230.171 169.975 231.339 169.858L229.643 171.66L231.789 171.703L228.837 173.351C230.667 176.735 230.37 180.91 229.197 184.574C228.479 186.817 227.441 189.064 227.644 191.41C227.843 193.718 229.892 196.075 232.132 195.603L232.244 195.577C234.937 194.897 237.885 195.291 240.304 196.654C243.781 198.612 245.89 202.249 248.278 205.444C250.388 208.265 252.884 210.889 256.004 212.523C259.124 214.157 262.95 214.697 266.201 213.34C267.813 212.667 269.257 211.552 270.969 211.197C272.68 210.843 274.434 211.794 275.062 213.416C275.34 214.133 274.743 216.792 273.219 219.896C273.467 219.825 273.726 219.779 273.997 219.762C282.003 219.242 290.082 217.502 296.971 213.391C299.161 212.085 301.206 210.554 303.237 209.011L304.421 208.109L305.137 207.557C309.593 204.105 313.993 200.256 315.825 195.006L315.921 194.723L316.124 194.102C316.516 192.928 317.013 191.713 318.147 191.348C319.717 190.843 321.146 192.363 322.1 193.708L328.976 203.401C329.153 203.65 329.333 203.908 329.401 204.206C329.699 205.523 327.732 206.189 326.465 205.721C324.161 204.87 322.312 202.336 319.894 202.771C318.195 203.077 317.18 204.722 316.34 206.272L316.128 206.667C311.039 216.194 302.477 223.815 292.426 227.765C289.834 228.783 287.157 229.563 284.484 230.342L279.084 231.915L280.035 232.084C288.093 233.497 296.689 234.36 304.006 230.789C308.878 228.412 312.631 224.32 316.171 220.184L317.455 218.674L317.985 218.043C320.158 215.437 322.222 212.646 322.856 209.344C323.1 208.075 324.701 207.47 325.946 207.814C327.191 208.157 328.14 209.142 329.022 210.086L335.706 217.24C336.232 217.804 336.787 218.426 336.864 219.193C336.941 219.961 336.253 220.83 335.512 220.614L328.264 218.509C327.584 218.312 326.831 218.119 326.191 218.421C325.7 218.653 325.383 219.129 325.103 219.598L317.31 232.757C315.116 236.462 311.049 238.611 307.054 240.218C297.472 244.071 287.075 245.882 276.754 245.494C275.634 245.451 274.511 245.383 273.404 245.209C269.241 244.553 265.481 242.436 261.84 240.295C262.479 242.629 261.91 244.599 258.119 244.748C254.761 244.881 246.536 231.055 243.978 230.338C230.017 226.423 227.725 218.695 223.239 213.416C223.239 213.416 214.175 214.587 208.191 213.34C194.163 210.415 184.736 201.418 181.337 200.846C177.938 200.273 175.697 202.451 174.647 201.13V200.172C174.81 199.91 176.434 198.392 181.067 199.377C187.536 200.754 197.878 205.95 205.776 206.92C214.067 207.939 221.09 206.591 221.052 206.364C220.973 205.903 223.057 203.941 221.392 202.95C219.727 201.96 195.554 192.258 190.3 184.173L190.237 184.072C189.334 182.572 188.648 178.846 190.465 180.552L190.974 179.65C192.931 181.496 199.357 185.715 206.033 189.874C213.09 194.272 223.057 197.088 223.239 196.964C227.301 194.217 223.699 192.228 223.027 191.644C221.453 190.277 219.363 189.532 218.008 187.95C214.756 184.153 217.078 177.361 213.361 174.017C212.798 173.512 212.116 173.114 211.708 172.477C211.01 171.385 211.353 169.865 212.199 168.883C213.045 167.901 214.282 167.352 215.506 166.925C218.046 166.038 220.831 165.543 223.426 166.257Z" fill="#FAFAFA"/>
<path d="M225.605 186.632C226.134 186.632 226.564 186.202 226.564 185.672C226.564 185.143 226.134 184.713 225.605 184.713C225.075 184.713 224.646 185.143 224.646 185.672C224.646 186.202 225.075 186.632 225.605 186.632Z" fill="#4E157A"/>
<path d="M219.757 186.632C220.15 186.632 220.468 186.202 220.468 185.672C220.468 185.143 220.15 184.713 219.757 184.713C219.364 184.713 219.045 185.143 219.045 185.672C219.045 186.202 219.364 186.632 219.757 186.632Z" fill="#4E157A"/>
<path d="M184.998 190.32C176.08 188.014 166.707 187.482 157.585 188.764C158.275 185.355 159.139 181.981 160.173 178.66C157.205 179.618 153.701 176.898 153.893 173.785C154.085 170.672 157.896 168.403 160.724 169.718C161.695 167.477 161.757 164.856 160.892 162.572C160.477 161.476 162.131 160.843 163.303 160.843L169.778 160.842C170.684 160.841 171.946 160.421 171.721 159.544C171.188 157.465 172.617 155.09 174.704 154.587C176.753 154.094 179.06 155.497 179.589 157.53L179.617 157.644C180.108 159.827 182.874 160.52 185.112 160.478L186.226 160.451C188.161 160.41 190.179 160.473 191.474 161.827C193.024 163.446 192.677 166.025 192.166 168.223L192.132 168.369C191.409 171.42 190.637 174.46 189.818 177.487C191.409 190.288 187.47 190.959 184.998 190.32Z" fill="#FAFAFA"/>
<path d="M110.616 179.633C109.671 173.48 109.672 167.183 110.62 161.03L110.668 160.732C110.903 159.336 111.316 157.863 112.483 157.093C113.357 156.517 114.46 156.474 115.512 156.474L123.566 156.496C123.933 156.497 124.335 156.511 124.611 156.752C124.886 156.994 124.879 157.549 124.525 157.647C123.682 157.881 123.197 158.854 123.299 159.723C123.402 160.592 123.967 161.345 124.631 161.916C126.214 163.277 128.675 163.761 130.428 162.626C132.18 161.491 132.592 158.568 130.932 157.302C134.694 157.226 138.458 157.238 142.22 157.338L143.631 157.379C144.087 157.394 144.591 157.43 144.909 157.757C145.148 158.002 145.227 158.358 145.281 158.697C145.698 161.301 145.242 164.037 144.004 166.366C143.807 166.737 143.351 167.145 143.039 166.863C141.718 165.664 139.495 165.827 138.142 166.992C136.79 168.157 136.266 170.093 136.506 171.862C136.736 173.564 137.977 175.383 139.693 175.297C141.045 175.229 142.548 174.048 143.569 174.935L141.848 182.624C141.542 183.99 140.994 185.61 139.625 185.902C131.724 187.592 123.44 187.465 115.595 185.532L115.214 185.436C114.262 185.186 113.314 184.864 112.571 184.228C111.278 183.121 110.875 181.315 110.616 179.633Z" fill="#FAFAFA"/>
<path d="M172.603 119.3L191.696 119.684L192.007 119.691C192.581 119.71 193.158 119.76 193.675 120.001C194.842 120.546 195.377 121.889 195.732 123.126C197.626 129.736 197.393 136.937 195.073 143.409L194.976 143.674C194.674 144.47 194.279 145.264 193.566 145.712C192.979 146.081 192.264 146.158 191.569 146.195L191.42 146.202C188.581 146.337 185.732 146.265 182.903 145.985C184.377 145.079 184.748 142.871 183.813 141.415C182.877 139.96 180.901 139.353 179.237 139.826C178.223 140.113 177.278 140.807 176.911 141.795C176.544 142.784 176.899 144.053 177.836 144.536C178.485 144.869 178.373 145.921 177.805 146.379C177.238 146.837 176.449 146.869 175.72 146.881L166.14 147.036C165.42 147.048 164.663 147.051 164.031 146.706C163.135 146.217 162.723 145.163 162.47 144.174C161.86 141.786 161.778 139.266 162.23 136.844C162.775 138.757 165.132 139.918 166.981 139.185C168.829 138.451 169.749 135.989 168.834 134.224C167.919 132.458 165.378 131.79 163.712 132.877L163.643 132.26C163.404 130.097 163.219 127.905 163.634 125.774C164.089 123.441 165.387 121.149 167.515 120.089C169.067 119.315 170.859 119.272 172.603 119.3Z" fill="#FAFAFA"/>
<path d="M114.695 140.779C112.007 140.789 109.318 140.678 106.639 140.447L106.379 140.423C105.42 140.327 104.414 140.135 103.785 139.422C102.937 138.459 103.144 137.008 103.399 135.738L103.425 135.611C104.563 130.039 105.01 124.325 104.754 118.643L104.706 117.663C104.634 115.902 104.747 113.904 106.21 112.998C106.656 112.723 107.172 112.595 107.688 112.491L107.859 112.457C117.229 110.632 126.984 110.817 136.277 112.995C137.501 113.283 137.842 114.94 137.436 116.13C137.03 117.319 136.159 118.319 135.833 119.533C135.507 120.747 136.104 122.391 137.36 122.43C139.975 122.512 142.191 125.168 141.84 127.76C141.489 130.352 138.687 132.318 136.122 131.804C135.52 131.683 135.307 132.572 135.373 133.183L136.105 139.949C136.225 141.054 134.657 141.403 133.55 141.316L127.089 140.814C126.073 140.734 124.712 140.91 124.555 141.916C124.166 144.421 121.597 146.377 119.079 146.087C116.56 145.796 114.505 143.306 114.695 140.779Z" fill="#FAFAFA"/>
<path fill-rule="evenodd" clip-rule="evenodd" d="M97.3029 182.422C98.0198 182.596 99.0462 182.906 98.9891 183.584C97.8419 197.248 92.9031 194.733 88.499 198.651C87.3356 199.686 86.6401 202.135 86.1404 202.191C87.9935 203.047 90.6836 206.481 95.3121 206.638C108.21 207.075 112.904 197.665 112.904 197.665C113.207 194.647 111.677 189.213 113.587 190.735C114.906 191.785 114.645 186.668 116.446 187.177C116.987 187.33 116.042 190.733 116.446 190.936C116.669 191.049 117 190.121 117.576 189.383C118.056 188.768 118.797 188.312 118.951 188.446C119.054 188.538 118.955 189.417 118.522 190.161C117.914 191.207 116.897 192.213 117.04 192.381C117.196 192.566 119.877 190.071 120.041 190.289C121.126 191.736 114.254 208.392 102.66 211.536L101.742 211.783C94.9836 213.578 92.1449 213.823 85.8829 211.536C82.9137 210.451 81.0673 220.581 79.4166 223.953C78.3744 226.081 73.3128 231.299 71.0017 229.721C67.9525 227.639 65.4658 223.765 62.8707 221.805L62.7038 221.682C60.9356 220.414 56.9353 218.49 50.7036 215.91L50.9846 215.78C52.2848 215.189 55.6332 213.744 58.2048 211.536C61.8583 208.399 63.8376 201.661 66.3842 198.027C68.8992 194.439 72.2736 194.968 70.2372 194.333C70.2372 194.333 65.0764 191.599 62.7038 191.348C54.7805 190.512 44.4521 194.257 41.1477 196.67C36.6141 199.981 41.1185 204.854 34.8541 202.465C32.7663 201.67 38.3623 191.358 46.0813 187.177C56.8102 181.366 66.9549 179.767 77.126 189.018C81.2654 192.783 81.675 196.134 82.7847 198.689L82.5579 198.064C94.8277 197.255 76.4436 184.97 91.7914 181.896C93.4033 181.573 95.0948 181.91 96.7106 182.283L97.3029 182.422Z" fill="#FAFAFA"/>
<path d="M89.4011 191.907C89.9308 191.907 90.3603 191.478 90.3603 190.948C90.3603 190.418 89.9308 189.989 89.4011 189.989C88.8713 189.989 88.4419 190.418 88.4419 190.948C88.4419 191.478 88.8713 191.907 89.4011 191.907Z" fill="#4E157A"/>
<path d="M94.6765 193.825C95.2062 193.825 95.6356 193.396 95.6356 192.866C95.6356 192.337 95.2062 191.907 94.6765 191.907C94.1467 191.907 93.7173 192.337 93.7173 192.866C93.7173 193.396 94.1467 193.825 94.6765 193.825Z" fill="#4E157A"/>
<path fill-rule="evenodd" clip-rule="evenodd" d="M38.9932 228.146C49.3902 235.345 36.0878 225.401 47.4474 237.251C49.7412 239.644 61.3559 225.977 62.5544 234.077C62.9913 237.032 62.0384 240.107 62.6192 243.037C63.1616 245.77 75.0506 244.129 75.969 242.934C79.2983 238.599 68.9378 227.466 66.7657 225.687C54.6431 215.756 50.6424 216.445 39.3155 226.72L38.9932 228.146Z" fill="#FAFAFA"/>
<path fill-rule="evenodd" clip-rule="evenodd" d="M309.454 48.2001C311.494 48.4442 313.39 48.6705 313.39 46.2937C313.39 45.7283 306.527 40.7607 304.493 42.6738C301.878 45.1341 299.801 47.955 297.789 50.6877C293.566 56.4241 289.63 61.7705 281.604 62.5671L281.507 62.5777C278.397 62.9532 284.193 65.7142 290.702 62.5671C295.177 60.4027 301.131 53.5561 303.959 50.3045C304.699 49.4532 305.225 48.8485 305.455 48.6384L305.514 48.5876C306.477 47.8442 308.002 48.0265 309.454 48.2001ZM319.136 54.6328L325.927 60.0229C327.25 61.0732 325.701 63.3359 324.015 63.4443C323.037 63.5076 322.099 63.2064 321.156 62.9038C320.474 62.6851 319.79 62.4655 319.086 62.382C315.098 61.9106 312.057 65.6662 309.583 68.8296C307.323 71.7201 304.847 74.4427 302.184 76.9678L301.824 77.3064L301.449 77.6517C299.307 79.5988 296.905 81.3627 294.079 81.8711C289.917 82.6197 285.784 80.4889 282.385 77.9749C281.556 77.361 280.742 76.7174 279.927 76.0733C277.403 74.0782 274.874 72.0803 271.881 70.9604C269.286 72.3757 266.859 74.0864 264.642 76.0374L264.74 75.9597C268.462 79.6904 271.065 84.5242 272.131 89.685L271.419 89.5603L270.949 89.4802C266.551 88.7426 261.84 88.3062 258.123 90.6595C256.814 91.4892 255.645 92.6474 254.49 93.7927C253.686 94.5903 252.888 95.3811 252.053 96.0506C252.265 96.1767 252.482 96.3077 252.704 96.4439C256.818 98.1263 261.177 99.2034 265.6 99.6307C266.277 99.6964 266.96 99.7483 267.645 99.8001C270.818 100.041 274.031 100.285 276.743 101.878L277.694 102.446C279.22 103.35 280.918 104.21 282.197 103.164C282.565 102.863 282.805 102.451 283.047 102.036C283.194 101.784 283.341 101.531 283.518 101.303C283.985 100.698 284.912 100.272 285.493 100.769L285.728 102.617C285.899 101.428 287.047 100.462 288.247 100.495C289.447 100.529 290.539 101.557 290.644 102.754C290.834 104.925 288.371 106.226 286.281 106.917L275.448 110.408C271.577 111.655 267.286 111.009 263.554 109.392C260.08 107.887 257.015 105.595 254.085 103.187L253.436 102.65C251.224 100.81 248.234 98.8097 245.725 100.218C250.086 100.483 253.266 104.241 255.867 107.795L256.117 108.139C256.538 108.719 256.972 109.33 257.076 110.039C257.367 112.026 255.111 113.344 253.205 113.975C254.81 114.836 254.015 117.333 252.771 118.664C250.96 120.599 248.59 121.992 246.033 122.682L245.799 123.49C245.784 123.545 245.777 123.573 245.779 123.574C246.985 123.49 247.729 125.11 247.237 126.215C246.746 127.319 245.533 127.908 244.37 128.237C240.536 129.321 236.206 128.466 233.072 126.005L232.463 126.323C229.815 127.693 227.076 128.968 224.133 129.4C220.964 129.865 217.475 129.212 215.184 126.973L215.335 127.303C215.659 128.021 215.95 128.765 215.961 129.548C215.972 130.451 215.505 131.427 214.65 131.716C213.238 132.194 212.004 130.686 211.271 129.387C210.87 130.387 211.284 131.511 211.686 132.605C212.146 133.853 212.59 135.059 211.792 135.994C210.961 136.967 209.384 136.718 208.24 136.144C203.955 133.994 201.942 128.585 202.87 123.882C203.798 119.179 207.18 115.24 211.207 112.64C208.473 110.636 206.473 107.652 205.658 104.362C205.875 104.642 206.844 103.741 208.221 102.461C210.74 100.12 214.623 96.5115 217.76 96.5456C218.361 96.5518 219.331 97.0165 220.281 97.4721H220.282C220.97 97.8021 221.648 98.1268 222.168 98.2687C222.211 98.2136 222.263 98.1632 222.323 98.1191L221.73 97.6927C220.536 96.8448 219.289 96.0473 217.875 95.6957C216.226 95.2857 214.273 95.6228 213.222 96.9585C210.653 100.225 207.397 102.949 203.729 104.902L205.904 108.917C205.005 109.346 203.885 109.268 203.051 108.726L202.949 108.656L203.013 108.737C204.266 110.37 203.165 113.218 201.115 113.541C199.034 114.414 196.936 111.807 197.141 109.56C197.284 107.985 198.065 106.589 198.846 105.191C199.18 104.594 199.513 103.997 199.798 103.385C200.76 101.318 201.183 99.0217 201.604 96.7398C202.18 93.6124 202.751 90.5128 204.698 88.0683C206.062 86.3562 207.971 85.1654 209.93 84.1894C217.705 80.3143 226.905 79.3878 235.296 81.6346C236.725 76.5145 239.558 71.7935 243.404 68.1241L243.633 67.9088C245.105 66.553 246.935 65.342 248.887 65.5646L249.041 65.5852C250.979 65.8806 252.663 64.3853 254.072 63.0012L254.506 62.5748L254.846 62.2468C257.642 59.5769 260.887 57.1132 264.706 56.8475C268.103 56.6111 271.355 58.1707 274.288 59.9025C277.605 61.8621 280.762 64.0951 283.713 66.5722L284.231 67.012L284.383 67.1419L284.552 67.2868L284.649 67.3702C287.432 69.761 290.478 72.3771 294.101 72.1604C297.816 71.9378 300.53 68.8541 303.03 66.013L303.031 66.012L303.032 66.0111C303.234 65.7818 303.434 65.554 303.634 65.3296C306.718 61.8573 310.231 58.8 313.786 55.8054L315.311 54.5249C315.773 54.1383 316.269 53.7355 316.866 53.6578C317.707 53.5489 318.473 54.1062 319.136 54.6328ZM251.996 113.493C251.242 113.343 250.212 113.409 248.907 113.69C249.766 113.694 250.489 113.678 251.077 113.644C251.361 113.609 251.644 113.565 251.922 113.509L251.996 113.493ZM224.035 96.8669C224.31 96.5844 224.601 96.2866 224.923 96.0314C225.522 95.7154 226.198 95.5552 226.877 95.6195C229.178 95.8382 230.92 98.2845 230.619 100.576C229.405 103.585 226.4 105.302 223.427 107C221.596 108.046 219.777 109.085 218.398 110.415C218.744 109.844 219.123 109.388 219.507 109.108C220.707 108.235 221.962 107.479 223.144 106.765C224.137 106.166 225.081 105.597 225.897 105.016C227.182 104.101 228.045 103.232 228.713 102.558H228.714C229.224 102.043 229.622 101.642 230.008 101.423C230.04 101.405 231.49 98.4663 227.985 96.5456C225.339 95.0953 224.16 96.9297 223.526 97.9157C223.321 98.2356 223.172 98.4663 223.05 98.4663C223.019 98.4663 222.974 98.461 222.919 98.4514C223.007 98.1388 223.139 97.8366 223.31 97.5536C223.547 97.3666 223.785 97.1235 224.035 96.8669ZM224.782 96.1091C224.181 96.4578 223.665 96.9642 223.31 97.5536L223.223 97.6198C223.048 97.7464 222.873 97.84 222.692 97.8826C222.328 97.9685 221.461 97.3033 220.727 96.7393C220.287 96.4026 219.895 96.1019 219.687 96.0199C218.313 95.4813 218.152 95.4737 217.2 95.4286C217.039 95.4209 216.855 95.4123 216.639 95.3998L216.244 95.3749C216.158 95.3701 216.063 95.3662 215.961 95.3619C215.171 95.3288 214.035 95.2809 214.262 94.667C218.32 83.683 235.66 81.2927 232.793 93.7093C232.556 94.7356 231.933 95.6343 231.311 96.5331C230.999 96.9825 230.688 97.4314 230.425 97.897C229.305 96.3048 228.084 95.4655 226.763 95.3792C226.026 95.3308 225.435 95.6267 224.923 96.0314L224.782 96.1091ZM256.235 86.2555L256.239 86.2492C255.284 88.0631 254.259 90.2466 253.165 92.799C253.988 90.531 255.02 88.3398 256.235 86.2555ZM263.966 87.9283L263.833 87.9331C262.775 87.9777 261.826 88.136 260.986 88.4084C260.054 88.7105 259.062 89.2155 258.01 89.9234C259.85 88.9043 261.884 88.2223 263.966 87.9283Z" fill="#FAFAFA"/>
<path fill-rule="evenodd" clip-rule="evenodd" d="M209.863 133.931C209.031 134.905 207.826 134.591 206.722 133.515C204.413 131.263 203.484 126.917 204.413 122.214C205.341 117.511 208.959 115.574 212.985 112.973C211.178 112.229 207.905 107.51 207.576 102.924C208.69 104.361 208.749 106.941 209.863 108.378C210.919 109.742 213.031 111.402 214.088 112.766C214.223 112.94 214.34 113.232 214.148 113.341C210.288 115.534 207.787 116.26 205.509 122.214C203.233 128.169 207.855 133.677 208.469 133.515C209.226 133.315 208.958 132.311 208.524 131.66C207.297 129.824 208.464 127.376 209.463 125.407C209.997 126.006 208.713 127.725 208.984 129.511C209.248 131.255 210.603 133.065 209.863 133.931Z" fill="#F0F0F0"/>
<path d="M225.605 115.173C226.134 115.173 226.564 114.743 226.564 114.214C226.564 113.684 226.134 113.254 225.605 113.254C225.075 113.254 224.646 113.684 224.646 114.214C224.646 114.743 225.075 115.173 225.605 115.173Z" fill="#4E157A"/>
<path d="M222.247 111.336C222.777 111.336 223.206 110.907 223.206 110.377C223.206 109.847 222.777 109.418 222.247 109.418C221.718 109.418 221.288 109.847 221.288 110.377C221.288 110.907 221.718 111.336 222.247 111.336Z" fill="#4E157A"/>
<path d="M78.8072 119.796C79.362 120.831 78.4902 122.311 77.3161 122.328C76.3109 116.675 75.2265 110.827 71.9548 106.11C65.6904 97.0774 52.7808 94.1107 47.4176 84.5156C43.7655 87.1149 38.1811 86.4521 35.2389 83.0705C33.4091 80.9676 30.2195 80.709 27.4715 81.1786C24.7235 81.6476 22.0388 82.685 19.2525 82.5967C18.0435 82.5583 16.7262 82.2332 16.0225 81.2495C15.3189 80.2654 15.7254 78.5341 16.9228 78.3624C22.1395 77.6157 27.3562 76.869 32.573 76.1223C32.9826 76.0637 33.4173 75.9937 33.7283 75.7208C34.0802 75.412 34.1908 74.918 34.282 74.459C35.0372 70.6583 35.5814 66.1271 32.7826 63.4467C30.4631 61.2257 26.8021 61.302 23.6508 61.9216C20.4995 62.5417 17.2518 63.5613 14.1462 62.7427C11.0405 61.9245 8.44334 58.2355 10.1175 55.4946C11.2389 53.6588 9.97448 51.2109 8.24479 49.9319C6.5151 48.6533 4.36251 48.0236 2.68596 46.6759C1.00942 45.3278 -0.0546017 42.7275 1.28081 41.0413C1.86812 40.2998 2.78773 39.9089 3.68994 39.6241C6.67596 38.6822 10.0055 38.6107 12.8838 39.8428C15.762 41.0753 18.0994 43.7169 18.5679 46.8126C18.9494 49.3348 18.2243 52.2689 19.8917 54.1993C22.0715 56.7234 26.1004 55.3076 29.4353 55.2774C32.8461 55.2462 36.2189 57.0547 38.0804 59.9126C39.9422 62.771 40.2333 66.5866 38.8262 69.6938C42.7881 65.6629 48.124 62.5705 53.7721 62.781C58.9891 62.9758 63.7826 65.9765 67.2716 69.8598C70.7606 73.743 73.1408 78.4722 75.475 83.142C76.3445 84.882 78.5501 85.8248 80.4085 85.2512C82.2669 84.6777 83.5575 82.6557 83.2956 80.7287C84.9152 81.0817 85.084 83.271 85.1339 84.928C85.2385 88.4093 86.4993 91.8461 88.6704 94.5697C89.3965 93.2297 89.9509 91.7972 90.3149 90.3171C91.8995 92.1391 92.4908 94.7759 91.8357 97.1C91.1806 99.4241 89.2996 101.364 86.9966 102.09C85.7713 102.477 84.2726 102.662 83.6644 103.795C85.9626 107.818 87.939 112.025 89.5691 116.363C90.443 118.689 91.0736 121.682 89.2339 123.352C87.1069 121.782 85.8979 119.291 84.7694 116.899C83.0093 113.17 81.2487 109.44 79.4882 105.71" fill="#FAFAFA"/>
<path fill-rule="evenodd" clip-rule="evenodd" d="M84.6138 82.4615C84.1515 86.9777 85.842 91.6672 89.0797 94.8502C90.2341 94.1534 90.9726 92.8163 90.9468 91.4681C92.1601 93.4632 91.4805 96.1681 89.9717 97.9503C88.463 99.7324 86.2986 100.801 84.198 101.821C82.9947 102.405 81.7454 103.001 80.4078 103.041C78.3676 103.102 76.5399 101.875 74.8719 100.698L69.9777 97.2477C72.5065 101.966 78.2616 104.714 83.5208 103.713C87.1777 108.843 89.4169 114.974 89.9276 121.253L88.9445 119.437C88.9354 119.415 88.9238 119.393 88.909 119.371L88.9445 119.437C89.0859 119.785 88.5335 120.171 88.1613 119.99C87.7656 119.799 87.6165 119.322 87.4995 118.899C86.0597 113.678 83.4795 108.775 79.9915 104.632L85.2727 115.821C86.4017 118.212 87.6103 120.703 89.7372 122.274C91.5774 120.604 90.9467 117.611 90.0725 115.285C88.4423 110.947 86.466 106.74 84.1682 102.716C84.6617 101.797 85.7427 101.502 86.7878 101.216H86.7882C87.0295 101.15 87.2697 101.085 87.4999 101.012C89.8029 100.286 91.6839 98.3459 92.339 96.0218C92.9941 93.6978 92.4028 91.061 90.8182 89.239C90.4542 90.7185 89.8998 92.1516 89.1737 93.4915C87.0026 90.7679 85.7422 87.3312 85.6372 83.8499C85.5873 82.1929 85.4185 80.0036 83.799 79.6506C84.0608 81.5776 82.7702 83.5995 80.9118 84.1731C79.0534 84.7462 76.8478 83.8033 75.9783 82.0639C73.6441 77.3941 71.2639 72.6649 67.7749 68.7812C64.2859 64.8979 59.4924 61.8976 54.2754 61.7029C48.6273 61.4924 43.2914 64.5848 39.3295 68.6157C40.7366 65.5085 40.4455 61.6924 38.5842 58.8345C36.7223 55.9766 33.3495 54.1681 29.9387 54.1993C29.0735 54.2069 28.1616 54.3081 27.2474 54.4093C24.6378 54.699 22.0094 54.9901 20.3951 53.1211C19.2549 51.8008 19.2335 50.0115 19.2119 48.2053C19.2019 47.3704 19.1919 46.5316 19.0713 45.7345C18.6029 42.6388 16.2655 39.9972 13.3872 38.7646C10.5089 37.5321 7.17937 37.604 4.19335 38.5459C3.29115 38.8308 2.37154 39.2212 1.78423 39.9631C0.448817 41.6494 1.51283 44.2497 3.18938 45.5973C4.07173 46.3067 5.08597 46.8174 6.10102 47.3282C7.01459 47.7881 7.92883 48.248 8.74821 48.8537C10.4779 50.1328 11.7423 52.5806 10.621 54.4165C8.94676 57.1574 11.544 60.8464 14.6496 61.6645C17.2168 62.3412 19.8813 61.7614 22.508 61.1902C23.0588 61.0703 23.608 60.9509 24.1542 60.8435C27.3055 60.2239 30.9665 60.1471 33.2861 62.3686C36.0848 65.049 35.5407 69.5797 34.7854 73.3809C34.6942 73.8399 34.5836 74.3339 34.2318 74.6427C33.9208 74.9156 33.486 74.9856 33.0764 75.0441L17.4262 77.2843C16.2288 77.4555 15.8223 79.1873 16.5259 80.1714C17.2296 81.1551 18.5469 81.4802 19.7559 81.5186C21.6046 81.5771 23.4084 81.1402 25.2157 80.7023C26.1325 80.4803 27.0501 80.2582 27.9749 80.1004C30.7229 79.6309 33.9125 79.8889 35.7423 81.9924C38.6845 85.374 44.2688 86.0368 47.9209 83.4374C50.7433 88.4861 55.6547 91.6998 60.5883 94.9279C65.0302 97.8342 69.4899 100.752 72.4581 105.031C75.7299 109.749 76.8142 115.597 77.8194 121.249C78.9935 121.232 79.8654 119.753 79.311 118.718L78.2079 120.173C77.8002 111.265 73.2504 102.632 66.1323 97.2597C64.3698 95.9293 62.4366 94.7634 60.5077 93.5994C56.2691 91.0427 52.0506 88.4981 49.704 84.2508C49.4925 83.8681 49.2959 83.4633 49.2613 83.0274C49.2182 82.4763 49.4378 81.9449 49.6498 81.4318L49.68 81.3589C50.526 79.3062 51.1173 77.0546 50.7015 74.8739C50.2862 72.6932 48.6446 70.6314 46.449 70.3029C50.1654 72.6802 50.9269 78.5792 47.9367 81.8222C44.946 85.0652 39.0048 84.7836 36.3349 81.2716C34.1951 78.4574 29.9163 78.8022 26.4721 79.6002C23.0281 80.3983 18.9722 81.2337 16.3117 78.9058C22.0038 77.3404 27.861 76.3769 33.7545 76.0359C35.1585 75.9544 35.7092 74.2034 35.8983 72.8097C36.189 70.6674 36.4797 68.4905 36.1612 66.3525C35.8428 64.214 34.8265 62.0813 33.012 60.9058C30.8331 59.4944 28.0202 59.7131 25.4382 59.9836L18.5766 60.7015C17.0982 60.856 15.5788 61.008 14.1453 60.6142C12.7119 60.2205 11.3631 59.1515 11.0883 57.6907C10.9147 56.7679 11.1788 55.8596 11.4451 54.9436C11.6369 54.2841 11.8297 53.6209 11.8611 52.9456C11.9507 51.0229 10.7087 49.2614 9.19964 48.0672C8.27499 47.3354 7.24474 46.7594 6.21353 46.1834C5.56162 45.8189 4.90933 45.4544 4.28313 45.0501C3.1044 44.289 1.89497 43.0593 2.22272 41.6949C2.4323 40.8225 3.2218 40.2178 4.01557 39.7996C6.69542 38.3867 10.0452 38.3234 12.7767 39.6332C15.5082 40.9434 17.5555 43.5955 18.1314 46.5695C18.2735 47.3032 18.3381 48.0696 18.4025 48.8346C18.5515 50.6033 18.6999 52.3639 19.8052 53.6933C21.1254 55.2807 23.4072 55.6807 25.4698 55.5824C26.177 55.5488 26.8841 55.4697 27.5905 55.3906C28.9447 55.239 30.2967 55.0875 31.6429 55.2567C36.1699 55.827 39.7367 60.537 39.0581 65.049C39.0207 65.2989 38.9722 65.5507 38.9238 65.8029C38.7511 66.7031 38.5766 67.6119 38.884 68.457C39.2777 69.5399 40.9994 70.1163 41.5452 69.1015C43.9897 64.556 49.597 62.2655 54.7234 62.8659C59.8497 63.4664 64.4375 66.553 67.8032 70.4664C71.1685 74.3794 73.458 79.0885 75.5462 83.8086C76.2819 85.4714 78.4717 86.0732 80.2207 85.5788C81.9703 85.0843 83.3587 83.7765 84.6138 82.4615ZM75.4272 90.3838C75.4771 90.3771 75.5922 90.6025 75.7663 90.943C76.1941 91.7808 76.9768 93.3122 78.0084 93.7783C77.9623 94.2124 77.2799 93.9798 76.996 93.6484C76.1893 92.7055 75.3332 91.6211 75.4272 90.3838ZM77.8626 97.8241C78.3954 98.6049 75.2057 98.9934 74.1458 98.3124C74.3323 98.2764 74.5784 98.2956 74.8508 98.3167C75.174 98.3416 75.5342 98.3699 75.8766 98.3124C76.3778 98.228 76.8617 98.074 77.2271 97.958C77.5816 97.8452 77.8242 97.768 77.8626 97.8241ZM77.0972 94.9241C75.8277 95.1418 74.2676 93.4508 74.2676 91.8605C74.6335 93.0364 75.9337 93.9692 76.6521 94.4843C77.0176 94.7466 77.2324 94.901 77.0972 94.9241ZM81.6461 101.575C79.955 101.575 79.1887 98.7229 79.955 98.5397C80.1382 98.4567 80.1469 98.7119 80.1598 99.0893C80.1733 99.4859 80.191 100.017 80.4217 100.431C80.6778 100.89 81.2202 101.197 81.5367 101.376C81.776 101.512 81.8864 101.575 81.6461 101.575ZM83.5299 97.6918C83.9011 97.8961 84.2397 98.2136 84.3361 98.626C84.432 99.0389 84.2013 99.5396 83.786 99.6255C83.656 99.4346 83.7265 99.3128 83.8009 99.1847C83.9102 98.9967 84.0277 98.7944 83.5299 98.3359C83.3203 98.1426 83.0762 98.0587 82.905 97.9997C82.7736 97.9546 82.6849 97.9239 82.6882 97.8702C82.7098 97.5273 83.2287 97.5258 83.5299 97.6918ZM80.3646 93.9759C80.2812 94.0344 80.2236 94.0742 80.273 94.1203C80.4255 94.2622 80.6054 94.3303 80.7852 94.2272C80.9219 94.1481 80.9914 93.9889 81.024 93.834C81.2044 92.9702 80.2922 92.0777 79.4323 92.2777C79.5085 92.4786 79.6548 92.5429 79.8318 92.6211C80.0366 92.7112 80.2826 92.8196 80.5114 93.1774C80.8193 93.6599 80.5368 93.8565 80.3646 93.9759ZM80.0754 102.12C79.0798 101.83 78.0952 99.4787 78.6251 99.3003C78.9561 99.1895 78.9541 99.2073 78.935 99.3934C78.9172 99.5636 78.8851 99.8749 79.0798 100.358C79.322 100.957 79.6606 101.443 79.8764 101.753C80.0241 101.965 80.1143 102.094 80.0754 102.12ZM308.131 48.7339C305.993 48.9967 304.308 50.7208 303.246 52.5941C302.732 53.4995 302.321 54.4582 301.91 55.4165L301.91 55.4169C301.471 56.4409 301.032 57.4643 300.468 58.423C297.778 62.9978 292.668 65.4979 287.77 67.5414C286.926 67.8939 285.447 67.728 285.71 66.8518C293.728 65.3305 300.631 58.9817 302.817 51.1184C303.074 50.1923 301.87 49.4101 300.94 49.6551C300.099 49.8767 299.5 50.5784 298.959 51.2747L298.79 51.4939C294.324 57.3032 287.912 62.2142 280.591 62.5316C280.073 62.5537 279.332 62.2377 279.56 61.772C284.982 61.5902 290.093 58.9136 294.12 55.2774C298.146 51.6411 301.216 47.0831 304.088 42.4805C304.533 41.7688 305.599 41.9208 306.394 42.1918C308.831 43.0229 311.169 44.1437 313.343 45.5235C314.51 46.2644 313.586 48.2408 312.259 48.6283C311.496 48.8514 310.7 48.7972 309.9 48.743C309.308 48.7027 308.714 48.6624 308.131 48.7339ZM306.048 44.2008L305.861 44.1442C305.291 43.9806 304.654 43.8895 304.195 44.2439C304.017 44.3811 303.889 44.5705 303.772 44.7638L302.246 47.3368C303.048 47.5219 303.815 47.8505 304.503 48.3013C305.064 48.6696 305.838 48.684 306.413 48.3363C306.987 47.9886 307.334 47.2965 307.268 46.628C307.244 46.3786 307.653 46.311 307.823 46.4942C307.951 46.6313 307.989 46.8193 308.027 47.0069V47.0073C308.04 47.0706 308.053 47.1335 308.069 47.1948C308.133 47.437 308.331 47.6975 308.576 47.6481C308.825 47.4111 308.961 47.0606 308.937 46.7181C309.027 46.3647 309.578 46.6798 309.663 47.0342C309.749 47.3886 309.909 47.8927 310.261 47.7982C310.779 47.6701 310.942 46.9493 310.689 46.4798C310.437 46.0098 309.93 45.7446 309.446 45.5201C308.343 45.0089 307.207 44.5681 306.048 44.2008ZM301.41 48.3838C302.207 49.1856 303.366 49.612 304.493 49.518C303.802 48.649 302.628 48.1948 301.532 48.3626L301.41 48.3838ZM244.369 128.236C240.535 129.321 236.205 128.466 233.071 126.005C230.234 127.492 227.302 128.934 224.133 129.399C220.963 129.865 217.475 129.212 215.184 126.973C215.562 127.793 215.948 128.644 215.96 129.548C215.972 130.451 215.505 131.426 214.649 131.716C213.237 132.194 212.004 130.685 211.271 129.387C210.87 130.386 211.283 131.511 211.686 132.605C212.145 133.852 212.589 135.059 211.791 135.994C210.96 136.967 209.383 136.717 208.239 136.144C203.954 133.994 201.941 128.585 202.869 123.882C203.798 119.179 207.18 115.24 211.206 112.64C208.473 110.635 206.473 107.652 205.658 104.362C206.215 105.08 206.628 105.915 207.04 106.75C207.453 107.584 207.867 108.42 208.424 109.138C208.952 109.82 209.624 110.386 210.296 110.951H210.297C210.969 111.517 211.641 112.083 212.17 112.765C212.304 112.939 212.421 113.231 212.23 113.34C208.369 115.533 205.067 119.026 203.972 123.329C202.876 127.631 204.4 132.709 208.181 135.037C208.847 135.447 209.642 135.776 210.398 135.576C211.155 135.377 211.722 134.427 211.288 133.776C210.062 131.94 209.913 129.438 210.912 127.469L214.08 131.021C214.808 130.834 214.988 129.854 214.794 129.127C214.733 128.897 214.649 128.67 214.565 128.443L214.565 128.443C214.384 127.954 214.204 127.467 214.252 126.956C214.323 126.207 215.3 125.537 215.816 126.084C217.877 128.268 221.186 128.887 224.149 128.406C227.113 127.926 229.827 126.503 232.481 125.101L235.614 123.447C235.388 124.351 234.656 125.109 233.76 125.367C236.785 127.54 240.828 128.222 244.399 127.163C245.013 126.981 245.645 126.728 246.044 126.225C246.442 125.723 246.507 124.906 246.025 124.483C245.966 124.431 245.901 124.385 245.835 124.34C245.706 124.251 245.578 124.163 245.504 124.027C245.393 123.823 245.565 123.48 245.778 123.573C246.984 123.489 247.728 125.11 247.237 126.215C246.746 127.319 245.533 127.907 244.369 128.236ZM222.965 112.202C222.277 111.98 221.503 112.455 221.204 113.114C220.905 113.773 220.99 114.547 221.216 115.234C221.288 114.459 221.387 113.875 221.68 113.365C221.807 113.145 222.198 112.938 222.543 112.756C222.988 112.52 223.354 112.326 222.965 112.202ZM222.381 110.254C223.386 110.004 224.521 110.391 225.164 111.203C225.806 112.014 225.922 113.208 225.449 114.128C225.334 113.991 225.308 113.741 225.274 113.429C225.174 112.505 225.015 111.029 222.381 110.254ZM221.51 117.391C221.192 117.788 222.299 118.837 224.031 118.114C224.352 117.98 224.09 117.965 223.677 117.94C223.301 117.918 222.799 117.889 222.5 117.755C222.247 117.642 222.117 117.461 222.02 117.326C221.876 117.125 221.804 117.025 221.51 117.391ZM225.019 118.719C226.129 118.166 225.432 119.787 223.111 119.588C222.901 119.57 222.628 119.49 222.63 119.279C222.63 119.204 222.827 119.187 223.132 119.161C223.606 119.119 224.344 119.055 225.019 118.719ZM218.171 115.642C218.589 116.05 219.197 116.061 219.603 115.982C219.85 115.934 219.971 115.713 219.744 115.642C219.692 115.625 219.604 115.611 219.498 115.595C219.257 115.556 218.924 115.504 218.7 115.369C218.557 115.283 218.475 114.987 218.405 114.734C218.333 114.474 218.273 114.258 218.171 114.359C217.971 114.559 217.754 115.234 218.171 115.642ZM218.542 117.022C218.744 117.33 217.974 117.224 217.809 117.022C217.643 116.82 217.48 116.061 217.757 116.061C217.837 116.061 217.865 116.18 217.898 116.323C217.929 116.456 217.964 116.608 218.049 116.706C218.215 116.894 218.327 116.922 218.408 116.942C218.464 116.956 218.506 116.967 218.542 117.022ZM253.177 115.494C253.592 116.323 252.866 117.254 252.166 117.861C249.319 120.333 245.916 122.161 242.284 123.172C246.199 123.198 250.096 121.523 252.77 118.664C254.014 117.333 254.81 114.836 253.204 113.975C255.11 113.344 257.366 112.026 257.075 110.039C256.971 109.33 256.537 108.719 256.116 108.138L255.866 107.795C253.266 104.241 250.085 100.483 245.724 100.218C248.234 98.8097 251.224 100.81 253.436 102.65L254.085 103.187C257.014 105.595 260.079 107.886 263.553 109.392C267.285 111.009 271.576 111.656 275.447 110.408L286.281 106.917C288.371 106.225 290.833 104.925 290.643 102.753C290.539 101.557 289.447 100.528 288.246 100.495C287.046 100.461 285.899 101.428 285.728 102.617L285.492 100.769C284.911 100.272 283.985 100.698 283.518 101.303C283.341 101.531 283.194 101.784 283.046 102.036C282.805 102.45 282.564 102.863 282.196 103.163C280.918 104.209 279.219 103.35 277.693 102.446L276.742 101.878C274.03 100.285 270.817 100.041 267.644 99.8001C266.959 99.7478 266.276 99.696 265.6 99.6308C261.177 99.2034 256.817 98.1258 252.704 96.4434C256.476 99.5368 261.404 100.056 266.375 100.579C268.881 100.844 271.397 101.108 273.781 101.705C275.673 102.177 277.763 103.141 278.227 105.035C278.901 107.785 275.635 109.915 272.816 110.172C268.205 110.592 263.712 108.632 259.798 106.129L259.357 105.843C257.94 104.913 256.567 103.913 255.194 102.913C252.676 101.078 250.16 99.2442 247.38 97.8505C250.251 97.9949 252.348 95.9163 254.49 93.7927C255.645 92.6475 256.813 91.4892 258.123 90.6596C261.973 88.2218 266.888 88.7772 271.419 89.5599L272.131 89.685C271.065 84.5237 268.462 79.6904 264.74 75.9597L271.136 88.534C264.402 86.2905 256.325 89.0942 252.43 95.0277C255.437 84.8805 262.59 76.0292 271.88 70.9599C274.874 72.0798 277.402 74.0782 279.926 76.0733L279.928 76.0748C280.742 76.7184 281.557 77.3615 282.385 77.9744C285.784 80.4889 289.917 82.6192 294.078 81.8711C297.07 81.333 299.588 79.3868 301.824 77.3059L302.184 76.9678C304.847 74.4427 307.323 71.7201 309.583 68.8291C312.057 65.6662 315.097 61.9106 319.085 62.382C319.789 62.4655 320.474 62.6851 321.156 62.9038C322.099 63.2064 323.036 63.5071 324.015 63.4443C325.7 63.3359 327.25 61.0727 325.926 60.0229L319.136 54.6328C318.472 54.1057 317.706 53.5484 316.866 53.6578C316.269 53.735 315.772 54.1379 315.311 54.5249L313.786 55.8054C310.23 58.8 306.718 61.8569 303.633 65.3296C303.433 65.5545 303.232 65.7828 303.03 66.0125C300.529 68.8541 297.815 71.9378 294.101 72.1599C290.478 72.3767 287.432 69.761 284.649 67.3697C284.509 67.2498 284.369 67.1304 284.231 67.0115L283.712 66.5722C280.761 64.0951 277.605 61.8617 274.287 59.9025C271.355 58.1707 268.103 56.6106 264.705 56.8471C260.73 57.1238 257.378 59.7817 254.506 62.5743L254.071 63.0007C252.663 64.3848 250.978 65.8806 249.041 65.5847L248.886 65.5641C246.934 65.342 245.104 66.553 243.633 67.9088L243.403 68.1237C239.557 71.7935 236.724 76.5141 235.295 81.6346C226.904 79.3878 217.704 80.3143 209.93 84.1889C207.971 85.1654 206.061 86.3557 204.697 88.0679C202.75 90.5123 202.179 93.6124 201.603 96.7398C201.183 99.0217 200.76 101.317 199.798 103.385C199.513 103.996 199.179 104.594 198.846 105.191C198.064 106.589 197.284 107.984 197.14 109.559C196.936 111.807 199.034 114.414 201.114 113.541C203.198 113.213 204.302 110.274 202.948 108.656C203.791 109.26 204.967 109.364 205.903 108.917L203.729 104.902C207.397 102.949 210.652 100.225 213.222 96.9585C214.273 95.6228 216.226 95.2852 217.875 95.6952C219.289 96.0468 220.535 96.8448 221.729 97.6927L222.323 98.1191C221.631 98.6222 222.03 99.9593 222.884 100.002C222.333 97.758 224.577 95.4008 226.877 95.6195C229.177 95.8377 230.919 98.2845 230.618 100.576C229.404 103.585 226.399 105.302 223.426 107C220.201 108.843 217.015 110.663 216.197 114.088C215.374 117.539 218.035 121.403 221.552 121.864C225.069 122.325 228.636 119.278 228.73 115.732C228.73 115.732 229.251 115.786 229.435 115.234C229.726 114.364 230 113.401 230.273 112.446C230.785 110.651 231.288 108.886 231.87 107.832C233.501 104.876 236.536 102.536 239.911 102.454C240.982 102.428 242.047 102.269 243.111 102.11H243.111C244.471 101.907 245.828 101.705 247.195 101.78C249.633 101.915 252.307 103.342 252.658 105.758C249.954 105.233 247.133 105.322 244.467 106.016L253.904 107.138C255.977 107.385 256.364 110.594 254.887 112.068C253.495 113.458 251.373 113.687 249.387 113.775L249.028 113.79C249.375 114.498 250.238 114.571 251.101 114.644C251.963 114.718 252.825 114.791 253.177 115.494ZM303.378 74.2552C300.452 77.5035 297.032 80.9944 292.663 81.1575C288.843 81.2999 285.502 78.8382 282.411 76.5611L282.183 76.3932L281.444 75.8537C277.991 73.3488 274.415 71.0141 270.732 68.8608C267.881 67.1933 264.601 65.5828 261.402 66.4096L266.466 68.0033C265.612 68.4613 265.308 69.7073 265.854 70.5072C265.972 69.3097 267.357 68.5481 268.545 68.7351C269.734 68.9226 270.701 69.795 271.437 70.747C265.054 73.1944 259.624 78.0401 256.467 84.104C255.88 85.232 255.37 86.3989 254.859 87.5648C254.167 89.1455 253.476 90.7248 252.595 92.2062C251.064 94.7802 248.798 97.122 245.882 97.804C245.474 97.8994 245.055 97.9618 244.637 98.0246C243.799 98.1503 242.963 98.2754 242.217 98.6634C242.177 98.6845 242.136 98.7061 242.095 98.7282L242.016 98.7699L241.958 98.8011C241.083 99.2687 240.003 99.8447 239.464 99.0845C238.58 97.8395 237.171 96.9806 235.659 96.7652C238.158 88.3671 244.589 81.2308 252.682 77.8737C253.14 77.6838 252.965 76.998 252.715 76.5702L249.033 70.2708C248.693 69.689 249.091 68.8982 249.69 68.5893C250.289 68.2805 251.003 68.327 251.672 68.4104C255.93 68.9404 260.03 70.688 263.362 73.3924C263.894 73.825 264.768 74.2495 265.158 73.6845C261.357 69.8516 255.92 68.0743 250.57 67.3582C255.195 66.9065 259.978 68.3625 263.565 71.3153L263.74 71.4587C264.597 72.1546 265.634 72.8941 266.623 72.4673C262.616 68.6239 257.137 66.3559 251.586 66.2422C252.729 65.3929 253.795 64.4486 254.862 63.5042L254.862 63.5038H254.863C255.946 62.5446 257.029 61.5854 258.192 60.7255C260.5 59.0196 263.258 57.6873 266.123 57.8547C268.203 57.976 270.153 58.8738 271.993 59.8507C275.883 61.9158 279.546 64.4092 282.894 67.2705C283.131 67.4728 283.37 67.6786 283.61 67.8853C286.792 70.6276 290.264 73.6193 294.377 73.2327C296.885 72.9972 299.107 71.4822 300.872 69.6847C301.849 68.6905 302.719 67.6014 303.59 66.5122C304.294 65.6327 304.998 64.7531 305.757 63.9224C306.853 62.7249 308.121 61.5984 309.679 61.1413C311.236 60.6838 313.134 61.0627 314.059 62.3964L303.378 74.2552ZM202.583 96.5024C203.147 93.4158 203.704 90.3637 205.791 88.1163C206.812 87.0161 208.119 86.2234 209.449 85.5275C216.255 81.968 224.192 80.6126 231.794 81.7128C233.654 81.9819 235.959 83.0259 235.929 84.7918C235.918 84.9002 235.907 85.0081 235.898 85.116C235.917 85.0057 235.927 84.8973 235.929 84.7918C236.687 77.4071 240.989 70.4593 247.273 66.5026C247.83 70.3892 249.533 74.1041 252.113 77.0632C245.275 79.9431 239.597 85.4809 236.547 92.2451L236.499 92.352C235.633 94.2483 234.259 96.5767 232.252 96.1043L233.246 89.9675C233.337 89.405 233.421 88.7954 233.154 88.2918C232.856 87.7293 232.219 87.4703 231.599 87.2832L231.381 87.2195C227.785 86.2018 223.751 85.2244 220.468 87.008C218.73 87.9518 217.484 89.533 216.318 91.1564L215.452 92.3727C213.397 95.2416 211.096 97.9349 208.583 100.413C207.571 101.411 206.477 102.402 205.122 102.832C203.767 103.262 202.083 102.973 201.279 101.8C201.92 100.126 202.253 98.3081 202.583 96.5024ZM224.742 120.416C222.607 121.207 220.87 120.817 219.204 119.847C218.491 119.432 217.819 118.897 217.417 118.176C216.815 117.095 216.906 115.753 217.253 114.565C217.772 112.79 218.835 111.177 220.261 109.999C221.247 109.185 222.383 108.588 223.519 107.99L223.519 107.99C223.911 107.783 224.302 107.577 224.688 107.362C228.454 105.262 231.702 102.241 234.07 98.638C234.543 97.9186 235.54 97.6855 236.374 97.898C237.208 98.1105 237.903 98.6817 238.504 99.2975C238.935 99.7382 239.254 100.614 238.679 100.836C234.659 102.393 231.421 105.848 230.127 109.961C230.092 110.073 230.057 110.186 230.023 110.3C229.827 110.951 229.628 111.608 229.206 112.135C228.71 112.753 227.716 114.93 228.223 115.962C228.223 115.962 226.877 119.624 224.742 120.416ZM230.321 87.8343C230.972 87.9806 231.681 88.1902 232.039 88.7542C232.332 89.216 232.313 89.803 232.267 90.3473C232.086 92.5021 231.632 94.6334 230.922 96.6755C230.802 97.0208 230.431 97.4362 230.161 97.1901C229.855 95.6439 228.442 94.3869 226.871 94.2622C225.3 94.1375 223.707 95.1557 223.16 96.6343C223.053 96.9259 222.673 97.0343 222.373 96.9537C222.148 96.8937 221.955 96.7571 221.771 96.6103L221.589 96.4616C219.717 94.9413 217.184 94.2666 214.804 94.6541C216.072 92.5199 217.681 90.5891 219.55 88.9565C220.315 88.288 221.145 87.6578 222.111 87.3446C223.021 87.0497 223.998 87.0526 224.953 87.101C226.758 87.1931 228.556 87.4386 230.321 87.8343ZM315.662 60.6785C314.752 59.7083 313.505 59.0594 312.188 58.8753L313.682 56.9766C314.157 56.3814 314.71 55.7709 315.458 55.6774C315.997 55.6093 316.527 55.8308 317.018 56.0644C318.66 56.8466 320.207 57.8264 321.616 58.976C322.087 59.3596 322.56 59.7879 322.764 60.3596C322.968 60.9308 322.804 61.6789 322.256 61.9403C321.708 62.2017 320.919 61.6291 321.144 61.0655L321.165 61.0022C321.258 60.6814 321.113 60.303 320.823 60.1342L320.294 61.1485C320.245 61.2372 320.188 61.3231 320.101 61.3715C319.748 61.5667 319.461 61.0176 319.438 60.6147L319.434 60.5591C319.396 60.162 319.188 59.656 318.823 59.7798C318.774 60.4593 318.287 61.0871 317.642 61.3049C316.996 61.5226 316.23 61.3178 315.779 60.8066L315.662 60.6785ZM201.702 110.758L201.063 108.334C200.759 108.249 200.463 108.554 200.42 108.866C200.391 109.074 200.437 109.281 200.5 109.483L200.598 109.786C200.926 110.815 200.918 111.948 200.575 112.972C199.942 111.676 199.612 110.233 199.617 108.79C199.204 108.563 198.923 109.255 198.953 109.725L199.132 112.53C198.266 111.75 197.96 110.484 198.109 109.328C198.257 108.172 198.799 107.105 199.41 106.111C199.728 105.593 200.081 105.074 200.588 104.737C201.095 104.401 201.792 104.285 202.31 104.605C202.74 104.87 202.939 105.342 203.142 105.82C203.295 106.182 203.449 106.547 203.706 106.83C203.797 106.931 203.904 107.033 204.012 107.137C204.43 107.541 204.877 107.972 204.584 108.406C203.684 107.853 202.86 107.175 202.144 106.398C201.885 108.004 202.122 109.686 202.815 111.158C202.957 111.459 202.489 111.746 202.194 111.592C201.899 111.437 201.787 111.08 201.702 110.758ZM288.212 102.83C288.673 102.421 289.095 102.048 289.299 102.15C289.894 102.446 288.279 103.749 287.423 104.118C287.485 104.531 288.084 104.346 288.434 104.118C288.785 103.89 289.764 103.645 289.573 103.893C288.377 105.439 286.07 106.667 283.936 106.908C283.071 107.005 282.002 106.774 281.726 105.949C281.475 105.195 282.034 104.453 282.626 103.893L282.769 103.762C283.017 103.539 283.417 103.322 283.646 103.565C284.256 104.21 285.321 103.682 286.024 103.139C286.024 103.139 287.849 101.379 288.155 101.492C288.459 101.603 287.244 103.589 287.244 103.589C287.545 103.42 287.888 103.116 288.212 102.83V102.83ZM279.476 104.464C279.694 104.414 279.922 104.502 280.11 104.623C280.796 105.064 281.124 105.992 280.866 106.765C280.608 107.539 279.789 108.084 278.976 108.025C278.861 108.017 278.741 107.996 278.65 107.923C278.46 107.771 278.484 107.481 278.527 107.241L278.833 105.49C278.907 105.067 279.057 104.559 279.476 104.464ZM240.817 100.487C241.993 100.289 243.211 100.337 244.367 100.629C244.3 101.106 243.743 101.323 243.272 101.42C241.816 101.721 240.313 101.786 238.837 101.611C239.207 100.917 240.041 100.619 240.817 100.487ZM314.531 61.6526L311.445 59.8306C312.965 59.6033 314.587 60.4018 315.334 61.7456C315.12 61.9408 314.78 61.7998 314.531 61.6526ZM246.913 98.1997C245.605 98.5459 244.312 98.9483 243.038 99.4058C244.361 100.137 246.239 99.5526 246.913 98.1997ZM234.126 96.5451C234.486 96.6194 234.323 97.1863 234.036 97.4155C233.161 98.1138 231.833 98.1742 230.899 97.558L234.126 96.5451ZM316.242 54.276C316.454 54.2256 316.672 54.3115 316.87 54.4012C318.159 54.9829 319.34 55.8035 320.334 56.8092L315.9 54.545C315.968 54.4117 316.096 54.3105 316.242 54.276ZM248.683 66.5084L248.727 66.5391C249.127 66.4815 249.54 66.5151 249.925 66.6374C249.589 67.2729 249.121 67.8388 248.559 68.2882C248.278 67.7309 248.328 67.0216 248.683 66.5084ZM324.564 60.2867L324.574 60.3145C325.064 60.5135 325.397 61.0454 325.363 61.5729C324.354 61.0497 323.537 60.1639 323.097 59.116C323.7 59.3246 324.227 59.7452 324.564 60.2867ZM232.75 98.9905L232.677 99.0907C232.421 99.4384 232.117 99.8154 231.688 99.8653C231.26 99.9152 230.821 99.3608 231.123 99.0533C231.63 98.8255 232.227 98.8025 232.75 98.9905ZM202.402 103.293C202.784 103.383 203.216 103.662 203.156 104.049C202.28 103.935 201.416 103.733 200.581 103.446C201.152 103.207 201.799 103.153 202.402 103.293ZM283.73 103.219C283.531 103.305 283.351 102.942 283.54 102.836C283.54 102.836 284.846 100.546 284.903 102.15C284.931 102.549 284.086 103.037 283.73 103.219ZM228.555 114.977C228.652 114.282 228.834 112.972 229.206 112.972C229.732 112.916 229.529 113.812 229.387 114.443C229.348 114.617 229.313 114.771 229.299 114.88C229.251 115.259 228.897 115.557 228.491 115.374C228.507 115.319 228.527 115.172 228.555 114.977ZM106.159 139.008C108.838 139.239 111.527 139.349 114.215 139.339C114.025 141.867 116.081 144.356 118.599 144.647C121.117 144.938 123.686 142.981 124.075 140.476C124.232 139.47 125.593 139.295 126.609 139.374L133.07 139.877C134.177 139.963 135.745 139.615 135.625 138.51L134.893 131.743C134.827 131.133 135.04 130.243 135.642 130.364C138.207 130.879 141.009 128.913 141.36 126.321C141.711 123.729 139.495 121.072 136.88 120.99C135.624 120.951 135.027 119.308 135.353 118.094C135.528 117.441 135.861 116.85 136.195 116.259C136.481 115.75 136.769 115.24 136.956 114.69C137.362 113.501 137.021 111.843 135.797 111.556C126.504 109.377 116.749 109.192 107.379 111.017L107.208 111.051C106.692 111.155 106.176 111.283 105.73 111.559C104.267 112.465 104.154 114.463 104.226 116.224L104.274 117.203C104.53 122.886 104.083 128.599 102.945 134.172L102.919 134.298C102.665 135.568 102.457 137.02 103.305 137.983C103.934 138.696 104.94 138.888 105.899 138.984L106.159 139.008ZM122.642 140.37C122.717 140.736 122.624 141.118 122.476 141.461L122.429 141.565C121.565 143.391 118.991 144.174 117.266 143.106C115.508 142.018 115.078 139.284 116.415 137.708C113.016 138.115 109.573 138.142 106.168 137.788C105.114 137.679 103.737 137.11 103.952 136.072C105.434 128.94 105.897 121.596 105.322 114.334C105.218 113.018 106.838 112.335 108.137 112.097C116.515 110.559 125.184 110.622 133.539 112.283C134.608 112.496 135.984 113.308 135.51 114.289C134.395 116.6 133.949 119.229 134.24 121.778C134.315 122.428 134.823 123.278 135.391 122.953C136.919 122.075 139.131 122.779 139.871 124.378C140.611 125.977 139.715 128.118 138.057 128.715C136.399 129.312 134.345 128.232 133.896 126.527C133.495 130.037 133.638 133.609 134.318 137.075C134.553 138.277 132.804 138.73 131.583 138.639L121.835 137.913C121.536 138.383 121.842 138.87 122.165 139.382C122.366 139.701 122.572 140.029 122.642 140.37ZM173.082 118.341L192.175 118.725L192.487 118.733C193.06 118.751 193.638 118.801 194.154 119.042C195.321 119.587 195.856 120.93 196.211 122.168C198.106 128.777 197.872 135.978 195.553 142.45L195.455 142.715C195.153 143.511 194.759 144.305 194.046 144.753C193.459 145.122 192.744 145.199 192.048 145.236L191.899 145.244C189.06 145.378 186.211 145.306 183.383 145.027C184.856 144.12 185.228 141.912 184.293 140.457C183.357 139.002 181.381 138.394 179.717 138.867C178.702 139.155 177.758 139.848 177.391 140.837C177.023 141.825 177.378 143.095 178.316 143.577C178.964 143.911 178.853 144.962 178.285 145.42C177.717 145.878 176.928 145.91 176.199 145.922L166.62 146.078C165.9 146.089 165.143 146.092 164.51 145.747C163.614 145.258 163.202 144.204 162.949 143.215C162.34 140.827 162.258 138.307 162.71 135.885C163.254 137.798 165.612 138.959 167.46 138.226C169.309 137.492 170.229 135.031 169.314 133.265C168.399 131.499 165.857 130.831 164.192 131.918L164.122 131.301C163.884 129.137 163.698 126.946 164.113 124.815C164.568 122.482 165.866 120.19 167.994 119.13C169.546 118.356 171.338 118.314 173.082 118.341ZM193.924 120.338C193.446 120.051 192.87 120.001 192.309 119.978L192.169 119.973C186.23 119.75 180.287 119.638 174.343 119.635L172.362 119.639C171.109 119.643 169.815 119.661 168.668 120.166C166.956 120.92 165.847 122.668 165.395 124.483C164.942 126.297 165.05 128.198 165.162 130.066C168.172 129.236 171.409 132.295 171.052 135.396C170.695 138.497 167.257 140.736 164.193 140.138C164.054 141.118 163.917 142.135 164.205 143.082C164.493 144.029 165.333 144.885 166.322 144.853L175.203 144.567C175.753 144.55 176.513 144.265 176.353 143.739C175.446 140.749 178.064 137.26 181.188 137.295C184.312 137.33 186.851 140.878 185.876 143.847C187.828 144.286 189.858 144.378 191.842 144.118C192.486 144.034 193.158 143.897 193.652 143.474C194.137 143.059 194.375 142.43 194.578 141.824C196.639 135.648 196.865 128.872 195.219 122.573C195.006 121.759 194.711 120.882 194.029 120.407L193.924 120.338ZM109.657 179.152C108.712 173 108.713 166.702 109.661 160.55L109.709 160.252C109.944 158.856 110.357 157.382 111.524 156.613C112.397 156.037 113.5 155.994 114.553 155.993L122.607 156.016C122.974 156.017 123.376 156.03 123.651 156.272C123.927 156.513 123.919 157.069 123.566 157.167C122.722 157.4 122.238 158.373 122.34 159.243C122.442 160.112 123.008 160.865 123.672 161.435C125.255 162.797 127.716 163.28 129.468 162.145C131.221 161.011 131.633 158.087 129.972 156.822C133.735 156.746 137.499 156.757 141.261 156.857L142.671 156.899C143.128 156.914 143.632 156.95 143.95 157.276C144.189 157.522 144.268 157.878 144.322 158.216C144.738 160.821 144.283 163.557 143.045 165.886C142.848 166.256 142.391 166.665 142.08 166.383C140.758 165.183 138.535 165.346 137.183 166.511C135.831 167.677 135.307 169.612 135.547 171.381C135.777 173.084 137.018 174.902 138.734 174.816C139.217 174.792 139.721 174.626 140.214 174.462C141.099 174.168 141.954 173.885 142.61 174.455L140.889 182.143C140.583 183.509 140.035 185.129 138.666 185.422C130.765 187.112 122.481 186.984 114.636 185.051L114.255 184.955C113.303 184.706 112.355 184.383 111.612 183.747C110.319 182.64 109.915 180.834 109.657 179.152ZM141.084 175.83C138.85 176.881 135.938 175.979 134.539 173.943C133.14 171.907 133.277 168.998 134.712 166.988C136.148 164.978 138.727 163.91 141.189 164.12L141.394 164.137C141.739 164.167 142.093 164.18 142.386 164.007C142.756 163.789 142.914 163.34 143.017 162.923C143.428 161.258 143.405 159.487 142.952 157.833L132.539 157.91C132.729 160.8 130.349 163.62 127.468 163.921C124.587 164.221 121.677 161.951 121.267 159.084L121.209 158.657C121.147 158.227 121.051 157.802 120.73 157.529C120.504 157.338 120.208 157.262 119.915 157.204L119.806 157.182C116.776 156.61 112.935 156.372 111.345 159.014C110.804 159.913 110.658 160.99 110.548 162.034C109.915 168.028 110.066 174.105 110.995 180.061L111.04 180.339C111.191 181.226 111.427 182.136 112.087 182.731C112.54 183.14 113.135 183.342 113.726 183.509L113.874 183.55C121.429 185.628 129.473 185.905 137.153 184.357L137.58 184.269C137.958 184.189 138.35 184.097 138.647 183.851C139.033 183.53 139.182 183.011 139.311 182.525L141.084 175.83ZM197.278 191.063C197.278 191.063 197.322 189.865 197.473 189.471C197.746 188.76 198.551 187.749 198.551 187.749C198.495 188.023 198.417 188.315 198.336 188.618C198.059 189.653 197.753 190.797 198.218 191.643C198.577 192.296 203.823 195.734 205.626 196.539C213.337 199.985 221.086 203.104 228.872 206.237H228.873L228.873 206.237L228.88 206.24C232.062 207.52 235.249 208.803 238.442 210.111C232.954 209.442 227.9 206.887 222.976 204.372C221.913 210.269 225.199 216.213 229.632 220.244C232.86 223.179 236.659 225.355 240.458 227.531H240.459L240.459 227.531C241.877 228.343 243.295 229.155 244.683 230.006L245.193 230.322C250.119 233.405 254.829 237.298 257.004 242.666C257.403 243.65 258.628 244.211 259.633 243.87C260.639 243.528 261.27 242.338 260.987 241.314C262.039 242.178 261.432 244.109 260.156 244.587C258.88 245.064 257.418 244.416 256.477 243.432C255.767 242.69 255.272 241.784 254.777 240.879L254.777 240.879V240.878L254.775 240.876C254.614 240.581 254.453 240.286 254.284 239.997C251.244 234.785 245.873 231.548 240.545 228.585L238.044 227.2C232.262 223.971 226.337 220.093 223.861 213.981C214.87 215.407 205.511 214.44 197.002 211.204C195.182 210.512 193.4 209.718 191.618 208.925C188.781 207.662 185.945 206.399 182.962 205.549C181.3 205.075 179.009 205.024 178.387 206.637C178.387 206.636 178.386 206.637 178.385 206.641C178.367 206.672 178.248 206.879 177.718 206.925C177.469 206.946 177.241 206.51 177.17 206.221C177.11 206.14 177.089 205.912 177.089 205.444C177.089 205.191 177.604 204.087 178.573 203.403C179.246 202.929 180.005 202.756 180.402 202.666C180.581 202.625 180.687 202.601 180.678 202.574C180.658 202.51 179.969 202.331 179.343 202.635C178.859 202.869 178.402 203.179 177.982 203.463L177.981 203.464C177.331 203.904 176.768 204.284 176.336 204.234C175.751 204.166 175.335 203.893 175.329 203.304C175.322 202.715 175.479 201.998 175.933 201.628C176.905 200.837 178.159 200.401 179.412 200.418C179.683 200.422 179.982 200.461 180.159 200.666C180.335 200.871 180.249 201.281 179.978 201.293C178.354 201.366 176.477 201.637 175.845 203.304C175.66 203.788 176.823 203.867 177.272 203.608C177.533 203.458 177.757 203.256 177.981 203.054C178.143 202.908 178.306 202.762 178.482 202.635C179.01 202.255 179.666 202.057 180.316 202.08C180.578 202.089 180.867 202.149 181.021 202.361C181.176 202.573 181.067 202.958 180.805 202.962C179.121 202.989 177.585 204.449 177.469 206.128C177.475 206.189 177.522 206.466 177.718 206.533C177.947 206.609 178.2 206.423 178.21 206.404C179.087 204.839 180.688 203.793 182.408 204.317C183.058 204.515 183.684 204.816 184.307 205.116C185.397 205.642 186.479 206.162 187.667 206.118L186.954 202.336C184.062 199.686 179.704 198.751 175.98 199.983C175.582 200.115 175.151 200.306 174.989 200.693C174.826 201.08 175.183 201.642 175.575 201.493C174.958 202.063 173.916 201.095 174.151 200.288C174.385 199.482 175.27 199.067 176.082 198.856C180.644 197.67 185.19 199.737 189.583 201.734L189.587 201.735C190.401 202.106 191.21 202.473 192.013 202.817C200.959 206.652 211.066 207.724 220.618 205.853C220.203 206.986 218.791 207.329 217.591 207.464C209.084 208.421 200.345 207.25 192.39 204.088C191.418 205.322 191.881 207.24 192.987 208.356C194.093 209.472 195.657 209.979 197.162 210.429C205.597 212.95 214.54 214.878 223.159 213.085L221.762 204.912L221.734 204.763C221.665 204.437 221.538 204.1 221.233 203.996L221.156 203.97C210.109 200.218 201.689 197.359 190.757 186.938C190.735 186.917 190.713 186.895 190.693 186.873C190.612 190.006 189.618 190.695 185.477 189.841C176.439 187.978 167.186 187.003 158.064 188.284C158.754 184.875 159.618 181.501 160.652 178.18C157.684 179.138 154.18 176.418 154.372 173.305C154.564 170.193 158.375 167.923 161.203 169.239C162.174 166.997 162.236 164.377 161.371 162.092C160.956 160.996 162.61 160.364 163.782 160.364L170.257 160.362C171.163 160.362 172.425 159.942 172.2 159.065C171.667 156.986 173.097 154.61 175.183 154.108C177.232 153.614 179.539 155.018 180.068 157.051L180.096 157.164C180.587 159.348 183.353 160.041 185.591 159.998L186.705 159.971C188.641 159.931 190.658 159.994 191.953 161.348C193.503 162.967 193.156 165.546 192.646 167.743L192.612 167.889C192.362 168.94 191.999 169.793 191.634 170.652C190.938 172.287 190.235 173.94 190.297 177.008C190.322 178.258 190.368 179.406 190.419 180.456C190.599 179.718 190.757 179.231 190.757 179.231C190.757 179.231 211.863 194.946 224.898 197.079C226.46 195.699 225.558 193.01 223.985 191.643C223.322 191.067 222.567 190.602 221.814 190.137C220.781 189.5 219.751 188.864 218.966 187.949C217.408 186.13 217.13 183.623 216.854 181.137C216.554 178.435 216.256 175.758 214.32 174.017C214.147 173.861 213.963 173.716 213.779 173.571C213.364 173.243 212.949 172.917 212.667 172.476C211.969 171.384 212.312 169.864 213.158 168.882C214.004 167.899 215.24 167.351 216.464 166.924C219.005 166.037 221.79 165.542 224.384 166.256C226.978 166.971 229.302 169.131 229.557 171.81C230.049 170.744 231.13 169.974 232.298 169.857L230.602 171.659L232.747 171.702L229.796 173.35C231.626 176.734 231.329 180.909 230.156 184.573C230.013 185.022 229.856 185.471 229.699 185.921C229.072 187.719 228.44 189.532 228.602 191.409C228.801 193.717 230.851 196.074 233.091 195.602L233.203 195.576C235.895 194.896 238.843 195.29 241.263 196.653C244.084 198.242 246.005 200.937 247.906 203.605C248.347 204.224 248.787 204.842 249.237 205.444C251.346 208.264 253.843 210.887 256.963 212.522C260.083 214.156 263.909 214.695 267.159 213.339C267.757 213.089 268.332 212.779 268.905 212.47C269.879 211.944 270.85 211.42 271.927 211.196C273.639 210.842 275.818 211.679 276.021 213.415C275.135 211.936 273.038 211.673 271.388 212.172C270.457 212.454 269.598 212.914 268.738 213.374C268.074 213.73 267.41 214.086 266.711 214.361C263.21 215.735 259.133 214.902 255.911 212.963C252.789 211.086 250.344 208.283 248.138 205.378L247.925 205.096C247.702 204.799 247.478 204.5 247.256 204.2L247.255 204.2L247.255 204.199L247.255 204.199L247.254 204.198V204.197L247.253 204.197L247.252 204.196L247.252 204.195C245.701 202.111 244.138 200.011 242.091 198.425C239.794 196.646 236.71 195.595 233.945 196.449L233.776 196.504C231.131 197.399 228.33 194.869 227.854 192.118C227.378 189.366 228.5 186.616 229.597 184.049C230.73 181.4 228.65 178.31 226.029 177.116C223.596 176.008 220.675 176.033 218.262 177.183C217.48 177.555 217.339 178.581 217.365 179.458L217.368 179.555C217.504 182.651 218.331 185.906 220.591 188.026C221.263 188.657 222.04 189.166 222.815 189.674C223.784 190.31 224.753 190.945 225.51 191.814C226.874 193.377 227.084 196.306 225.19 197.151C228.44 197.738 231.656 198.515 234.816 199.477C217.815 197.738 202.183 189.719 190.96 180.033C190.73 180.482 190.568 180.956 190.47 181.442C190.496 181.928 190.522 182.391 190.548 182.831C190.584 183.452 190.617 184.029 190.643 184.564C191.183 186.341 192.446 187.909 194.18 188.598C194.043 187.349 194.464 186.049 195.307 185.118C194.76 186.341 193.892 188.688 197.278 191.063ZM223.393 167.129C221.88 166.847 220.343 166.697 218.804 166.681C218.699 166.874 218.66 167.103 218.693 167.32C220.409 167.463 222.098 167.915 223.656 168.648C223.005 169.299 221.929 168.909 221.055 168.592L221.004 168.574C219.511 168.033 217.872 167.903 216.312 168.2C215.516 168.351 214.72 168.624 214.108 169.153C213.495 169.683 213.094 170.507 213.231 171.305C213.405 172.325 214.364 173.021 215.322 173.414C217.695 174.386 220.538 174.112 222.683 172.705C222.856 172.591 223.101 172.781 223.111 172.989C223.122 173.196 222.982 173.38 222.834 173.526C221.98 174.377 220.709 174.648 219.505 174.718C219.153 174.738 218.8 174.745 218.447 174.752C217.59 174.769 216.734 174.785 215.907 174.995C216.018 175.677 216.871 175.912 217.56 175.962C220.196 176.154 222.87 175.799 225.365 174.927C225.989 174.709 226.564 175.334 226.932 175.884L229.619 179.894C230.502 179.063 230.449 177.628 230.032 176.489C229.87 176.044 229.663 175.615 229.456 175.186C229.134 174.518 228.812 173.852 228.661 173.129C228.577 172.73 228.547 172.322 228.517 171.914C228.475 171.34 228.433 170.769 228.244 170.23C227.575 168.33 225.373 167.497 223.393 167.129ZM190.932 203.735L188.492 202.333C188.222 202.178 187.723 202.152 187.75 202.462C187.667 203.722 187.77 205.264 188.579 206.313C189.089 206.974 189.458 207.313 191.259 207.76L191.126 204.234C191.12 204.047 191.094 203.828 190.932 203.735ZM228.074 184.553C228.371 184.38 228.56 184.074 228.737 183.78C229.052 183.254 229.377 182.698 229.392 182.085C229.406 181.472 228.982 180.803 228.369 180.779C228.064 180.767 227.775 180.912 227.526 181.088C226.973 181.479 226.546 182.046 226.324 182.685C226.606 183.091 227.244 182.728 227.528 182.323C227.811 181.918 228.232 181.406 228.684 181.608C228.386 182.642 227.858 183.609 227.151 184.419C227.34 184.706 227.778 184.724 228.074 184.553ZM232.954 214.336C232.276 213.259 231.543 212.096 230.335 211.745C233.016 216.792 237.172 221.045 242.156 223.841C243.896 224.817 245.731 225.619 247.565 226.42C250.122 227.537 252.676 228.653 254.964 230.238C257.829 232.225 260.2 234.921 261.803 238.017C261.173 233.602 257.481 230.222 253.54 228.135C251.756 227.19 249.882 226.428 248.008 225.667C245.743 224.747 243.479 223.827 241.378 222.584C238.029 220.604 235.159 217.819 233.078 214.532C233.037 214.467 232.995 214.402 232.954 214.336ZM241.377 215.829L241.451 215.995C241.781 216.759 242.01 217.719 241.391 218.236C240.897 218.648 240.148 218.49 239.566 218.217C238.307 217.626 237.267 216.582 236.679 215.321C237.414 215.175 238.103 214.806 238.631 214.274C239.069 213.832 239.845 213.922 240.339 214.3C240.833 214.678 241.114 215.265 241.377 215.829ZM240.977 217.636C241.611 216.497 240.317 214.818 239.686 214.709C239.41 214.661 239.127 214.933 238.822 215.226C238.509 215.526 238.174 215.847 237.804 215.866C237.804 215.866 240.343 218.775 240.977 217.636ZM272.969 220.911C288.372 220.405 303.409 212.901 313.075 200.898C313.576 200.276 314.566 200.266 315.262 200.656C315.957 201.047 316.427 201.733 316.872 202.395C317.357 202.324 317.371 201.572 317.037 201.214C316.872 201.037 316.665 200.909 316.459 200.78C316.246 200.648 316.034 200.516 315.867 200.332C315.194 199.587 315.554 198.415 315.948 197.491L317.705 193.377C317.941 192.825 318.309 192.182 318.909 192.191C319.347 192.196 319.684 192.563 319.963 192.902C322.995 196.597 325.808 200.471 328.382 204.498C326.795 204.744 325.27 203.963 323.765 203.191C322.084 202.33 320.429 201.482 318.743 202.093C317.274 202.625 316.408 204.105 315.631 205.46C313.087 209.892 310.172 214.161 306.48 217.696C297.907 225.904 285.943 229.457 274.289 231.703C281.498 234.432 289.439 235.197 297.037 233.896C301.385 233.151 305.72 231.684 309.109 228.859C310.481 227.716 311.672 226.373 312.856 225.036L321.584 215.184C322.095 214.608 323.038 215.161 323.514 215.767C323.99 216.373 324.636 217.128 325.362 216.87C324.842 215.706 323.94 214.717 322.829 214.093C322.763 212.703 322.722 211.215 323.46 210.036C324.199 208.857 326.041 208.283 327 209.291C330.142 212.597 333.154 216.028 336.025 219.573C334.34 219.838 332.739 219.113 331.151 218.393H331.151H331.15C330.659 218.171 330.17 217.949 329.679 217.757C327.601 216.944 324.687 216.962 323.738 218.982C321.145 224.51 318.451 230.178 314.001 234.357C306.568 241.336 295.708 242.911 285.577 244.061C281.084 244.57 276.468 245.053 272.093 243.909C268.909 243.076 266.012 241.42 263.158 239.781L260.893 238.481C260.226 238.648 260.762 239.658 261.353 240.007C265.146 242.243 269.055 244.522 273.403 245.208C274.511 245.382 275.633 245.45 276.754 245.493C287.074 245.881 297.472 244.07 307.054 240.217C311.049 238.61 315.115 236.461 317.31 232.756L325.042 219.697C325.339 219.197 325.664 218.669 326.19 218.42C326.83 218.118 327.583 218.31 328.263 218.508L335.511 220.613C336.252 220.828 336.941 219.96 336.863 219.192C336.786 218.425 336.232 217.803 335.705 217.24L329.021 210.085C328.139 209.141 327.191 208.156 325.946 207.812C324.701 207.469 323.1 208.074 322.856 209.343C322.137 213.088 319.579 216.173 317.11 219.08C313.289 223.577 309.31 228.2 304.006 230.788C296.4 234.499 287.411 233.421 279.083 231.914L284.484 230.341C287.157 229.562 289.834 228.782 292.425 227.764C302.477 223.814 311.039 216.193 316.127 206.666C317.01 205.013 318.049 203.102 319.894 202.77C321.41 202.497 322.703 203.392 324.025 204.308C324.81 204.852 325.606 205.403 326.465 205.72C327.732 206.188 329.698 205.522 329.401 204.205C329.333 203.907 329.153 203.649 328.976 203.4L322.1 193.707C321.146 192.362 319.716 190.842 318.146 191.347C316.885 191.753 316.412 193.209 315.995 194.493L315.957 194.61L315.94 194.662L315.92 194.722C313.963 200.686 308.7 204.852 303.706 208.653C301.52 210.316 299.329 211.983 296.971 213.39C290.081 217.501 282.002 219.241 273.997 219.761C271.735 219.907 270.314 222.029 269.013 223.971C268.858 224.202 268.705 224.43 268.553 224.653C266.324 227.899 263.151 230.49 259.524 232.022C260.132 232.693 261.236 232.291 262.003 231.812C265.642 229.537 268.73 226.386 270.929 222.701C271.414 221.888 272.023 220.942 272.969 220.911ZM224.642 186.115C224.288 186.891 223.499 187.449 222.649 187.525C221.8 187.6 220.924 187.19 220.439 186.489C220.26 186.231 220.262 185.728 220.574 185.755C221.224 186.618 222.578 186.841 223.47 186.232C223.856 185.968 224.526 185.662 224.642 186.115ZM217.815 180.478C217.892 179.829 218.44 179.264 219.087 179.167C219.734 179.071 220.422 179.451 220.686 180.05C220.213 180.05 219.895 179.964 219.632 179.893C219.094 179.748 218.777 179.663 217.815 180.478ZM222.83 184.097L222.094 184.413L222.051 184.389C221.86 184.752 221.298 184.341 221.255 183.932C221.246 183.848 221.242 183.758 221.237 183.668C221.221 183.322 221.204 182.962 220.918 182.807C220.56 183.322 220.397 184 220.605 184.591C220.813 185.182 221.445 185.631 222.062 185.519C222.679 185.408 223.122 184.652 222.83 184.097ZM223.714 179.078C224.645 179.152 224.893 179.203 225.15 179.815C225.201 179.936 224.803 179.822 224.423 179.714C224.145 179.634 223.875 179.558 223.803 179.579C220.686 180.503 222.783 179.003 223.714 179.078ZM223.451 180.688C223.965 181.095 223.816 182.721 223.057 182.415C222.738 182.287 222.358 179.821 223.451 180.688ZM248.088 224.203C247.842 223.897 248.121 223.351 248.512 223.37C248.686 223.482 248.804 223.676 248.823 223.881C248.675 224.123 248.368 224.255 248.09 224.196L248.088 224.203ZM241.088 221.035L241.624 220.954L241.666 220.939C241.852 220.591 241.245 220.195 241.002 220.505C240.949 220.683 240.982 220.884 241.088 221.035ZM244.899 223.147C244.589 223.231 244.547 222.698 244.721 222.428L245.462 222.765C245.348 222.965 245.136 223.106 244.907 223.135L244.899 223.147ZM235.647 215.381C235.565 215.178 235.271 215.1 235.099 215.236L235.146 215.283C234.998 215.477 235.116 215.809 235.354 215.866C235.572 215.845 235.729 215.584 235.647 215.381ZM219.372 182.452C219.074 182.452 218.762 182.161 218.777 181.654C218.793 181.148 218.93 180.679 219.372 180.928C219.814 181.177 219.68 182.452 219.372 182.452ZM80.4687 120.882C80.6485 121.119 81.0591 121.015 81.2168 120.764C81.3751 120.513 81.355 120.193 81.3267 119.898C80.9133 115.627 79.8049 111.426 78.0587 107.507C77.5614 106.391 77.0382 104.999 77.7998 104.044C79.5603 108.444 81.3353 112.898 81.9765 117.594C82.1516 118.875 82.2144 120.279 81.4998 121.357C80.7852 122.435 79.005 122.849 78.2113 121.827C79.4323 121.572 80.3665 120.336 80.2783 119.092C80.8423 119.476 80.9392 120.388 80.4687 120.882ZM94.6986 205.668C101.087 205.318 108.487 204.396 111.838 198.946C112.706 197.532 112.521 195.311 112.368 193.48C112.246 192.009 112.144 190.791 112.627 190.446C113.711 189.673 114.579 191.666 114.579 191.666C114.592 191.609 114.607 191.546 114.622 191.478C114.643 191.389 114.664 191.291 114.687 191.187C114.99 189.829 115.548 187.328 116.424 187.798C116.784 187.991 116.66 189.207 116.575 190.042V190.043C116.555 190.239 116.537 190.414 116.528 190.55C116.508 190.679 116.505 190.787 116.52 190.864C116.532 190.858 116.545 190.851 116.558 190.842C116.564 190.841 116.57 190.838 116.576 190.832C116.581 190.829 116.587 190.823 116.592 190.817C116.734 190.697 116.928 190.401 117.144 190.073C117.591 189.392 118.132 188.568 118.494 188.871C119.064 189.346 117.04 192.381 117.04 192.381C117.04 192.381 119.443 189.739 119.646 190.864C119.849 191.988 114.375 202.142 109.433 206.124C104.491 210.106 97.5282 212.335 91.2321 211.537C91.3726 209.04 92.2014 205.805 94.6986 205.668ZM116.592 190.817C116.58 190.826 116.569 190.835 116.558 190.842C116.52 190.848 116.516 190.735 116.528 190.55C116.575 190.256 116.712 189.854 116.931 189.469C116.89 189.601 116.848 189.729 116.809 189.849C116.634 190.387 116.506 190.777 116.638 190.747C116.627 190.766 116.617 190.782 116.608 190.795C116.602 190.804 116.597 190.81 116.592 190.817ZM117.782 188.525C117.428 188.749 117.142 189.101 116.931 189.469C117.259 188.43 117.591 187.12 116.784 187.015C115.415 186.837 114.077 189.066 114.314 190.25C113.934 189.307 112.353 189.715 111.971 190.657C111.677 191.38 111.802 192.171 111.926 192.957V192.957C111.963 193.195 112.001 193.433 112.027 193.668C112.438 197.424 109.622 200.935 106.208 202.554C102.99 204.082 99.3372 204.296 95.7642 204.407L94.9312 204.432C92.8915 204.485 90.6825 204.438 89.1257 203.136C87.522 201.794 87.5239 198.611 89.5377 198.049C94.6501 196.621 98.5497 191.639 98.7084 186.334C98.7554 184.766 99.7726 183.461 100.755 182.2C100.844 182.087 100.932 181.974 101.019 181.861L101.234 181.579C102.335 180.119 103.239 178.109 102.315 176.532C100.884 178.368 98.2029 179.109 96.0323 178.267C95.1264 177.916 94.324 177.329 93.5265 176.746C92.4589 175.966 91.4 175.191 90.1137 174.998C87.5987 174.619 85.1039 177.165 85.5346 179.672C84.8536 179.101 83.797 179.966 83.7232 180.852C83.68 181.372 83.8167 181.879 83.9543 182.387C84.0507 182.745 84.1476 183.102 84.1826 183.467C84.2234 183.892 84.1797 184.317 84.1366 184.743C84.1068 185.03 84.0776 185.318 84.0742 185.606C84.056 187.098 84.7207 188.479 85.3754 189.839L85.3763 189.841L85.3768 189.842C85.4425 189.979 85.5077 190.114 85.5725 190.25L85.7475 190.623C86.4933 192.239 87.0462 194.163 86.2516 195.756C85.4574 197.349 82.753 197.848 81.9871 196.241C78.2324 188.367 69.722 183.006 60.9988 183.019C50.8986 183.034 41.8114 189.69 35.859 197.85C35.1166 198.868 34.39 199.964 34.2283 201.214C34.0664 202.463 34.6462 203.896 35.8345 204.314C37.0229 204.732 38.5636 203.564 38.1766 202.365C38.7794 203.069 40.0124 202.403 40.2964 201.521C40.4561 201.025 40.4541 200.502 40.4522 199.978C40.4508 199.569 40.4493 199.159 40.5242 198.759C40.8925 196.803 42.9053 195.673 44.7167 194.847L45.0822 194.681C49.3496 192.749 53.7954 191.025 58.4627 190.698C63.2639 190.36 68.3869 191.695 71.686 195.199C67.1841 196.267 64.5698 200.784 62.486 204.956L62.1968 205.538C60.0928 209.763 57.3371 214.373 52.723 215.268C52.8985 216.179 53.7018 216.932 54.6217 217.047L37.7066 227.104L39.0043 228.714C34.8858 235.026 30.2278 240.985 25.0978 246.507C22.3085 249.509 18.6868 252.62 14.649 251.921C13.9189 251.795 13.211 251.544 12.5055 251.294C11.4725 250.929 10.4448 250.565 9.36016 250.595C7.53484 250.648 5.70305 252.868 6.94207 254.21C9.686 257.18 12.8178 259.793 16.2327 261.958L16.3212 262.014C16.7369 262.273 17.1942 262.515 17.6762 262.46C18.1635 262.404 18.5603 262.057 18.9227 261.727L41.8315 240.839C43.7077 239.141 45.7723 237.444 48.2719 237.194L48.483 237.169C50.3313 236.912 51.854 235.743 53.3815 234.571C54.0462 234.061 54.7119 233.549 55.4058 233.113C57.7539 231.635 61.6482 231.484 62.5613 234.103C63.0462 235.495 62.4112 236.911 61.7853 238.306V238.307C61.5988 238.723 61.4127 239.137 61.2578 239.548C60.5825 241.338 61.136 244.092 63.049 244.058L73.7554 243.868C74.14 243.864 74.5453 243.886 74.8445 244.121C75.1577 244.367 75.2675 244.778 75.3275 245.179L75.3524 245.364C75.7558 248.643 75.7001 251.978 75.1879 255.242C74.6326 258.779 73.1554 262.67 69.818 263.966C67.7131 264.785 65.3683 264.36 63.1512 263.852L49.6795 260.705C49.657 259.074 51.1327 257.746 52.7062 257.314C54.0404 256.947 55.4413 257.058 56.8292 257.169C56.9141 257.176 56.9995 257.183 57.0849 257.19L57.574 257.226C60.9834 257.461 64.4303 257.144 67.7399 256.292L62.9642 244.341C63.4509 248.308 64.5243 252.203 66.1381 255.86L50.4392 256.37C49.0719 256.408 47.5545 256.348 46.6351 255.35C46.3996 255.094 46.203 254.779 46.0078 254.467C45.6078 253.825 45.215 253.196 44.5048 253.114C43.8909 253.043 43.335 253.453 42.8646 253.854C39.7957 256.472 37.2471 259.698 35.4109 263.29C36.0729 264.929 38.2663 265.387 39.9702 264.917C40.9668 264.642 41.8766 264.146 42.7878 263.649C43.4348 263.297 44.0822 262.944 44.7623 262.67C48.5573 261.135 52.7292 262.175 56.7372 263.382L59.1174 264.107C63.8217 265.52 69.5575 266.244 73.083 262.824C75.1635 260.806 75.9212 257.802 76.3332 254.933C77.5216 246.654 76.5581 238.075 73.5626 230.266C76.9025 228.977 78.4784 225.241 79.7037 221.878L82.1036 215.29C82.905 213.089 84.7265 210.389 86.8947 211.275C93.0924 213.81 100.413 212.739 106.183 209.341C111.953 205.944 116.272 200.44 119.182 194.409L119.26 194.247C119.829 193.048 120.555 190.252 119.907 189.942C119.665 189.752 119.234 190.067 118.941 190.282C118.783 190.398 118.664 190.485 118.637 190.446C118.62 190.423 118.674 190.268 118.749 190.049C119.045 189.185 119.685 187.321 117.782 188.525ZM76.7682 225.503C76.0186 227.189 74.7779 229.173 72.9463 228.949C71.9656 228.829 71.2251 228.089 70.5589 227.328L70.2016 226.915C66.3313 222.422 61.0736 219.436 55.789 216.687L54.028 215.778C58.3328 214.931 60.9882 210.673 62.8845 206.717L63.4888 205.456C65.2225 201.862 67.1956 198.163 70.7719 196.545C71.2663 196.322 71.8332 196.143 72.343 196.329C72.4202 196.357 72.5037 196.389 72.5905 196.423C73.2197 196.665 74.0302 196.976 74.0173 196.38C72.8701 195.917 72.6811 194.244 73.3429 193.199C73.9472 192.244 74.9942 191.694 76.0306 191.219L76.326 191.085C75.6651 190.173 74.2321 190.94 73.4835 191.781L73.4216 191.85C72.6706 192.674 71.5171 193.577 70.65 192.907C67.0666 190.138 62.2913 189.249 57.7836 189.684C53.2765 190.119 48.976 191.767 44.8582 193.651C43.3489 194.341 41.8162 195.094 40.6963 196.319C39.8297 197.267 39.74 198.528 39.6499 199.795C39.6235 200.166 39.5966 200.538 39.5506 200.902C39.4398 201.784 38.9549 201.817 38.5276 201.847C38.2989 201.863 38.0869 201.878 37.9574 202.021C37.9469 202.033 37.9133 202.084 37.8629 202.161C37.6068 202.555 36.913 203.621 36.5996 203.515C36.1394 203.358 36.3741 202.365 36.3741 202.365C36.3741 202.365 35.0083 202.755 34.9066 202.365C34.551 200.999 36.5996 198.204 36.5996 198.204C40.0441 193.137 45.1522 188.933 50.7677 186.489C56.4873 183.999 63.1617 183.519 69.0089 185.692C75.6008 188.142 80.8212 193.995 82.5036 200.823C82.9232 202.525 84.9034 203.277 86.6338 203.56C86.7925 203.586 86.9532 203.611 87.1148 203.636L87.1191 203.637L87.1273 203.638C88.7243 203.888 90.4221 204.153 91.4398 205.372C91.74 205.732 91.657 206.264 91.5539 206.72L91.5237 206.852C91.1443 208.48 90.482 210.303 88.8999 210.797C87.4616 211.246 85.7581 210.086 85.6478 208.584C85.6382 208.452 85.6353 208.311 85.6324 208.17C85.6204 207.586 85.6075 206.971 85.1173 206.73L76.7682 225.503ZM63.1694 234.408C62.6313 231.645 60.9974 229.159 58.8526 227.336C58.9366 228.422 59.396 229.475 60.1351 230.276C56.5012 231.431 53.0745 233.234 50.0642 235.575C49.2589 236.202 47.8902 236.773 47.4183 235.868C45.5618 232.308 42.607 229.33 39.0609 227.447L53.6395 219.069C54.298 218.691 54.9953 218.301 55.755 218.294C56.3439 218.288 56.9036 218.514 57.4364 218.776L57.7007 218.91C63.156 221.72 68.0396 225.635 71.9689 230.348C72.942 231.515 73.3947 233.01 73.7803 234.488L75.514 241.263C75.6292 241.712 75.7131 242.267 75.3615 242.568C75.1639 242.738 74.8853 242.767 74.6254 242.787L74.3213 242.811C70.0045 243.143 66.5217 243.411 62.1968 242.787C61.5518 241.55 62.039 240.017 62.5426 238.434C62.9742 237.077 63.4174 235.684 63.1694 234.408ZM41.4814 230.243C43.0991 231.667 44.557 233.272 45.8203 235.019C45.9555 235.205 46.0946 235.414 46.0802 235.644C46.0634 235.913 45.8457 236.12 45.6433 236.296L26.8008 252.788C26.0151 253.476 24.7617 253.355 23.8817 252.793C23.1117 252.302 22.5611 251.548 22.0559 250.78L21.8417 250.451C26.7523 247.87 29.9024 243.247 33.0804 238.583C35.0738 235.657 37.0783 232.715 39.5353 230.251C39.7741 230.011 40.0431 229.764 40.3793 229.726C40.7951 229.679 41.1673 229.966 41.4814 230.243ZM96.3527 184.242L96.8337 184.39C97.7708 184.68 97.9262 185.935 97.8073 186.908C97.3133 190.938 94.8084 194.928 90.9458 196.18L90.8077 196.227C88.2908 197.115 86.4914 199.748 86.5988 202.419C84.9092 202.735 83.0978 201.384 82.9203 199.674C82.8849 199.333 82.986 198.89 83.3246 198.839C84.8598 198.603 86.2712 197.661 87.0784 196.334C87.8855 195.007 88.0726 193.32 87.5757 191.849C87.4745 191.548 87.3455 191.247 87.2165 190.946C86.8491 190.089 86.4808 189.23 86.7388 188.365C87.3268 188.42 87.4386 189.226 87.3767 189.814L87.37 189.885C87.322 190.465 87.4242 191.207 87.9862 191.285C88.3565 190.434 88.4337 189.482 88.51 188.538C88.6064 187.344 88.7023 186.163 89.3862 185.212C90.1684 184.125 91.5717 183.626 92.9107 183.61C94.0823 183.596 95.2276 183.901 96.3527 184.242ZM11.6914 252.193L11.8122 252.054C12.4866 251.906 13.1305 252.769 12.7966 253.374C12.5823 253.762 13.2412 254.145 13.6091 253.898C13.9771 253.652 14.0513 253.151 14.0917 252.71C14.4619 252.594 14.7821 253.018 14.852 253.4C14.8705 253.5 14.8819 253.605 14.8934 253.709C14.9253 254 14.9573 254.291 15.1407 254.509C15.3899 254.807 16.0502 254.653 15.9419 254.281C15.7804 253.725 16.4367 253.272 17.0096 253.19C17.1473 253.17 17.2895 253.158 17.4321 253.146C17.8825 253.109 18.3367 253.072 18.6646 252.779L18.714 252.74C19.1302 252.445 19.6454 252.991 19.9596 253.476L20.1056 253.711C20.7963 254.785 21.9702 255.537 23.2359 255.708C23.4839 255.742 23.3577 256.128 23.1755 256.3L18.904 260.323C18.697 260.518 18.3614 260.379 18.1189 260.231C15.5834 258.678 13.2427 256.808 11.1691 254.677C10.5158 254.006 11.0699 252.935 11.6914 252.193ZM49.046 259.68C48.9232 260.187 48.5726 260.755 48.0523 260.717C46.7977 260.624 45.5253 260.775 44.3273 261.159C44.4371 260.649 44.2136 260.082 43.7849 259.783C43.4717 260.231 43.5998 260.925 44.052 261.232L42.8574 262.412L42.2857 261.098C42.0037 261.173 41.9955 261.519 42.0152 261.836L42.0291 262.033C42.0862 262.865 41.3807 263.673 40.5491 263.729C39.717 263.786 38.9094 263.079 38.8542 262.247C38.7948 261.341 39.4887 260.58 40.1338 259.942L44.7158 255.405C44.8131 255.312 44.9249 255.226 45.0563 255.228C45.2016 255.231 45.3196 255.341 45.4217 255.444L47.2096 257.248C47.5564 257.598 47.3372 258.134 47.1238 258.655C46.9041 259.193 46.6902 259.715 47.1051 260.006C47.5094 260.03 47.8461 259.679 48.001 259.305C48.0806 259.114 48.1285 258.913 48.177 258.712C48.223 258.519 48.2695 258.325 48.3429 258.141C48.494 257.765 48.8191 257.408 49.2239 257.416C49.6287 257.425 49.9409 258.003 49.6277 258.26C49.2939 258.534 49.199 258.979 49.1059 259.412C49.0868 259.502 49.0676 259.593 49.046 259.68ZM17.7193 261.686C13.601 259.483 9.96061 256.392 7.11919 252.685C7.49178 252.332 8.05213 252.708 8.41249 253.108L8.5017 253.212C11.2015 256.553 14.5921 259.333 18.3973 261.326C18.3664 261.626 17.9855 261.828 17.7193 261.686ZM37.4701 260.843C39.2537 258.51 41.2306 256.324 43.3729 254.315C43.7053 254.003 44.3949 253.793 44.4789 254.241C41.985 256.622 39.599 259.117 37.332 261.715C37.0857 261.501 37.2721 261.102 37.4701 260.843ZM23.7693 255.009C22.5245 254.566 21.4146 253.752 20.6195 252.696C20.3204 252.299 20.1316 251.609 20.5849 251.405C20.9433 251.244 21.2874 251.582 21.5373 251.911L21.7247 252.166C22.5299 253.228 23.6784 254.027 24.9559 254.41C24.9581 254.751 24.6759 255.07 24.3375 255.11C24.1447 255.132 23.9521 255.074 23.7693 255.009ZM84.8579 185.966C85.443 185.98 85.9384 186.59 85.8324 187.166L85.8458 187.174C85.9269 187.591 85.8736 188.033 85.6962 188.42C85.056 187.792 84.7356 186.854 84.8579 185.966ZM96.0069 185.98C96.0808 185.974 96.1584 185.967 96.2371 185.966C96.3359 185.965 96.45 185.983 96.5575 186C96.8471 186.044 97.0893 186.082 96.8606 185.723C96.5464 185.232 95.628 185.177 95.4774 185.74C95.5196 186.023 95.7383 186.004 96.0069 185.98ZM96.7464 188.411C96.7507 188.394 96.7551 188.376 96.7594 188.36C96.9829 187.514 96.8534 186.846 96.2371 186.846C95.9997 186.864 95.6367 188.075 95.6712 188.443C95.7057 188.809 96.1196 189.149 96.44 188.967C96.6304 188.859 96.6913 188.624 96.7464 188.411ZM92.6809 188.154C92.2512 187.557 92.2062 186.707 92.5702 186.069C92.6244 185.973 92.6901 185.879 92.7855 185.824C93.0267 185.686 93.349 185.874 93.4555 186.13C93.5615 186.387 93.515 186.678 93.467 186.952C93.467 186.952 93.1107 188.75 92.6809 188.154ZM183.7 188.171C175.85 186.246 167.651 185.759 159.629 186.743C161.021 183.499 161.632 179.924 161.396 176.402C159.306 177.867 155.875 176.148 155.795 173.597C155.716 171.045 159.035 169.118 161.212 170.45C161.789 170.803 162.423 170.07 162.654 169.435C163.44 167.268 163.448 164.828 162.676 162.656C162.374 161.81 163.651 161.352 164.548 161.369L172.166 161.52C172.677 161.53 173.22 161.532 173.657 161.266C174.094 161 174.342 160.359 174.021 159.961C172.703 158.325 174.218 155.398 176.315 155.53C178.411 155.662 179.548 158.755 178.035 160.213C177.753 160.485 178.302 160.835 178.693 160.844L188.653 161.073C190.634 161.119 192.034 163.229 192.115 165.209C192.183 166.885 191.588 168.489 191.001 170.074C190.949 170.212 190.898 170.35 190.848 170.488L190.685 170.936C188.921 175.886 188.353 181.258 189.043 186.467C189.178 187.483 188.242 188.387 187.241 188.608C186.358 188.802 185.448 188.609 184.564 188.388L183.7 188.171Z" fill="#414141"/>
<path fill-rule="evenodd" clip-rule="evenodd" d="M77.5365 97.0093C77.6094 96.5398 78.2348 96.2684 78.687 96.4295C79.1393 96.5906 79.5431 97.2391 79.2117 97.6059C78.687 98.1867 77.396 97.9201 77.5365 97.0093Z" fill="#4E157A"/>
<path fill-rule="evenodd" clip-rule="evenodd" d="M274.364 218.576C274.068 218.824 273.476 218.914 273.42 218.532C274.574 217.358 275.368 215.835 275.669 214.217C276.046 214.116 276.155 214.716 276.06 215.094C275.742 216.369 275.37 217.731 274.364 218.576Z" fill="#414141"/>
<path d="M19.6813 78.7351C19.6696 79.1135 19.0956 79.0914 18.7485 78.9404C18.8735 78.6027 19.38 78.49 19.6365 78.7423L19.6813 78.7351Z" fill="#070707"/>
<path fill-rule="evenodd" clip-rule="evenodd" d="M183.466 182.685C183.066 183.04 182.393 182.497 182.453 181.965C182.512 181.432 182.984 181.052 183.436 180.765C185.056 179.739 186.933 179.12 188.846 178.982C188.898 179.712 187.952 180.013 187.234 180.153C185.711 180.45 184.26 181.11 183.035 182.063C183.256 182.198 183.416 182.43 183.466 182.685Z" fill="#414141"/>
<path fill-rule="evenodd" clip-rule="evenodd" d="M188.9 183.616C188.002 184.049 187.089 184.449 186.162 184.815C186.267 185.206 186.829 185.193 187.21 185.056C187.591 184.919 188.092 184.774 188.339 185.095C187.712 186.052 186.159 186.201 185.362 185.381C185.015 185.025 184.387 185.259 183.939 185.043C183.298 184.733 183.418 183.766 183.795 183.162C184.583 181.902 186.085 181.125 187.568 181.211C188.133 181.243 188.808 181.522 188.845 182.087C187.074 181.975 185.268 182.706 184.072 184.017C184.751 184.543 185.726 184.151 186.492 183.762C187.258 183.374 188.27 183.031 188.9 183.616Z" fill="#414141"/>
<path fill-rule="evenodd" clip-rule="evenodd" d="M94.5934 188.639C95.1017 189.148 95.3128 189.38 95.3128 190.129C95.3128 190.877 94.907 191.357 94.2217 191.577C93.9061 191.678 93.4687 191.601 93.3867 191.279C95.6696 190.813 94.8308 189.818 94.5934 188.639Z" fill="#414141"/>
<path fill-rule="evenodd" clip-rule="evenodd" d="M91.5479 185.457C91.791 184.649 92.8504 184.213 93.5919 184.615C93.8854 184.774 94.1295 185.063 94.1448 185.396C93.2792 185.416 92.566 184.857 91.5479 185.457Z" fill="#414141"/>
<path fill-rule="evenodd" clip-rule="evenodd" d="M93.6204 192.669C88.7914 189.988 92.572 193.424 93.6204 192.669V192.669Z" fill="#414141"/>
</svg>